<?xml version="1.0" encoding="utf-8" standalone="no"?>
<!DOCTYPE svg PUBLIC "-//W3C//DTD SVG 1.1//EN"
  "http://www.w3.org/Graphics/SVG/1.1/DTD/svg11.dtd">
<svg xmlns:xlink="http://www.w3.org/1999/xlink" width="432pt" height="432pt" viewBox="0 0 432 432" xmlns="http://www.w3.org/2000/svg" version="1.1">
 <metadata>
  <rdf:RDF xmlns:dc="http://purl.org/dc/elements/1.1/" xmlns:cc="http://creativecommons.org/ns#" xmlns:rdf="http://www.w3.org/1999/02/22-rdf-syntax-ns#">
   <cc:Work>
    <dc:type rdf:resource="http://purl.org/dc/dcmitype/StillImage"/>
    <dc:date>2025-05-27T13:03:11.696350</dc:date>
    <dc:format>image/svg+xml</dc:format>
    <dc:creator>
     <cc:Agent>
      <dc:title>Matplotlib v3.10.3, https://matplotlib.org/</dc:title>
     </cc:Agent>
    </dc:creator>
   </cc:Work>
  </rdf:RDF>
 </metadata>
 <defs>
  <style type="text/css">*{stroke-linejoin: round; stroke-linecap: butt}</style>
 </defs>
 <g id="figure_1">
  <g id="patch_1">
   <path d="M 0 432 
L 432 432 
L 432 0 
L 0 0 
z
" style="fill: #ffffff"/>
  </g>
  <g id="axes_1">
   <g id="patch_2">
    <path d="M 184.925198 65.792161 
C 156.978152 65.792161 129.52327 73.193223 105.362822 87.239934 
C 81.202374 101.286646 61.187318 121.484265 47.360556 145.771258 
C 33.533794 170.05825 26.382319 197.5792 26.636071 225.525094 
C 26.889822 253.470987 34.539862 280.857538 48.805364 304.88945 
C 63.070867 328.921362 83.449385 348.752204 107.860919 362.357877 
C 132.272454 375.96355 159.857203 382.864847 187.799641 382.357365 
C 215.742078 381.849883 243.05804 373.951496 266.959434 359.468379 
C 290.860829 344.985261 310.505822 324.427524 323.889284 299.893461 
L 268.30365 269.571202 
C 260.273572 284.29164 248.486576 296.626282 234.14574 305.316152 
C 219.804903 314.006023 203.415326 318.745055 186.649863 319.049544 
C 169.884401 319.354033 153.333551 315.213255 138.686631 307.049851 
C 124.03971 298.886448 111.812599 286.987942 103.253298 272.568795 
C 94.693996 258.149648 90.103972 241.717717 89.951721 224.950181 
C 89.799471 208.182645 94.090355 191.670075 102.386413 177.09788 
C 110.68247 162.525684 122.691503 150.407113 137.187772 141.979086 
C 151.684041 133.551059 168.15697 129.110422 184.925198 129.110422 
z
" style="fill: #1f77b4"/>
   </g>
   <g id="patch_3">
    <path d="M 323.8893 299.893433 
C 340.083434 270.206932 346.346396 236.098137 341.754957 202.595044 
C 337.163517 169.091949 321.95497 137.925797 298.371147 113.690665 
L 252.992767 157.849524 
C 267.143061 172.390604 276.26819 191.090294 279.023053 211.192152 
C 281.777917 231.294007 278.02014 251.759284 268.303659 269.571185 
z
" style="fill: #aec7e8"/>
   </g>
   <g id="patch_4">
    <path d="M 298.371147 113.690665 
C 292.353536 107.506864 285.840372 101.825418 278.896786 96.703138 
C 271.9532 91.580858 264.602421 87.034877 256.917925 83.110644 
L 228.120834 139.501512 
C 232.731532 141.856051 237.141999 144.58364 241.308151 147.657008 
C 245.474303 150.730376 249.382201 154.139243 252.992767 157.849524 
z
" style="fill: #ff7f0e"/>
   </g>
   <g id="patch_5">
    <path d="M 256.917925 83.110644 
C 254.357695 81.803215 251.762287 80.565756 249.134667 79.399675 
C 246.507046 78.233593 243.848182 77.139313 241.160964 76.118043 
L 218.666658 135.305951 
C 220.278988 135.918713 221.874307 136.575281 223.450879 137.27493 
C 225.027451 137.974579 226.584696 138.717054 228.120834 139.501512 
z
" style="fill: #ffbb78"/>
   </g>
   <g id="patch_6">
    <path d="M 241.160964 76.118043 
C 239.36953 75.437211 237.565882 74.788969 235.750907 74.173636 
C 233.935932 73.558304 232.109932 72.975975 230.273813 72.426953 
L 212.134367 133.091297 
C 213.236038 133.42071 214.331638 133.770107 215.420623 134.139307 
C 216.509608 134.508507 217.591797 134.897452 218.666658 135.305951 
z
" style="fill: #2ca02c"/>
   </g>
   <g id="patch_7">
    <path d="M 230.273813 72.426953 
C 228.437718 71.87794 226.5918 71.362309 224.73698 70.880323 
C 222.882161 70.398338 221.018739 69.950074 219.147641 69.535757 
L 205.458664 131.356579 
C 206.581322 131.605169 207.699376 131.874128 208.812267 132.163319 
C 209.925159 132.452511 211.03271 132.761889 212.134367 133.091297 
z
" style="fill: #98df8a"/>
   </g>
   <g id="patch_8">
    <path d="M 219.147641 69.535757 
C 218.212098 69.328599 217.27473 69.129951 216.33558 68.939814 
C 215.396431 68.749676 214.455538 68.568069 213.513091 68.395018 
L 202.077934 130.672136 
C 202.643402 130.775966 203.207937 130.884931 203.771427 130.999013 
C 204.334917 131.113096 204.897338 131.232284 205.458664 131.356579 
z
" style="fill: #d62728"/>
   </g>
   <g id="patch_9">
    <path d="M 213.513091 68.395018 
C 210.685618 67.875849 207.844489 67.433783 204.99294 67.069341 
C 202.141391 66.704899 199.280483 66.418212 196.413321 66.209581 
L 191.818072 129.360874 
C 193.538369 129.486052 195.254914 129.658064 196.965843 129.87673 
C 198.676773 130.095395 200.38145 130.360635 202.077934 130.672136 
z
" style="fill: #ff9896"/>
   </g>
   <g id="patch_10">
    <path d="M 196.413321 66.209581 
C 195.457669 66.140044 194.501368 66.079178 193.544611 66.027002 
C 192.587855 65.974825 191.630682 65.931348 190.673136 65.896551 
L 188.373961 129.173056 
C 188.948488 129.193934 189.522792 129.22002 190.096846 129.251326 
C 190.6709 129.282632 191.244681 129.319152 191.818072 129.360874 
z
" style="fill: #9467bd"/>
   </g>
   <g id="patch_11">
    <path d="M 190.673136 65.896551 
C 189.715565 65.861754 188.757659 65.835657 187.799614 65.818258 
C 186.841569 65.80086 185.883423 65.792161 184.92522 65.792161 
L 184.925211 129.110422 
C 185.500133 129.110422 186.07502 129.115641 186.649848 129.12608 
C 187.224675 129.136519 187.799418 129.152178 188.373961 129.173056 
z
" style="fill: #c5b0d5"/>
   </g>
   <g id="matplotlib.axis_1"/>
   <g id="matplotlib.axis_2"/>
   <g id="text_1">
    <!-- 作者上榜次数分布（含1次） -->
    <g transform="translate(109.588437 20.975625) scale(0.12 -0.12)">
     <defs>
      <path id="ArialUnicodeMS-4f5c" d="M 6106 3706 
L 3781 3706 
L 3781 2956 
L 5850 2956 
L 5850 2491 
L 3781 2491 
L 3781 1703 
L 5972 1703 
L 5984 1234 
L 3781 1234 
L 3781 -428 
L 3297 -428 
L 3297 3706 
Q 3041 2972 2316 2278 
L 1875 2516 
Q 2978 3916 3213 5422 
L 3694 5247 
Q 3628 4800 3391 4172 
L 6106 4172 
L 6106 3706 
z
M 2309 5125 
Q 2238 4878 2041 4366 
L 1844 3872 
L 1844 -428 
L 1356 -428 
L 1356 3034 
Q 1063 2494 684 2088 
L 238 2344 
Q 1313 3516 1875 5325 
L 2309 5125 
z
" transform="scale(0.015625)"/>
      <path id="ArialUnicodeMS-8005" d="M 5947 2931 
L 3706 2931 
Q 3225 2606 2822 2413 
L 5106 2413 
L 5106 -409 
L 4622 -409 
L 4622 -31 
L 2450 -31 
L 2450 -409 
L 1966 -409 
L 1966 1947 
L 709 1416 
L 397 1838 
Q 1816 2338 2803 2925 
L 744 2925 
L 744 3397 
L 2741 3397 
L 2741 4091 
L 1356 4091 
L 1356 4556 
L 2741 4556 
L 2741 5350 
L 3244 5350 
L 3244 4556 
L 4441 4556 
L 4441 4178 
Q 4838 4628 5131 4991 
L 5556 4722 
Q 4878 3850 4341 3397 
L 5947 3397 
L 5947 2931 
z
M 4347 4091 
L 3244 4091 
L 3238 3397 
L 3566 3397 
Q 3872 3625 4347 4091 
z
M 4622 1447 
L 4622 1953 
L 2450 1953 
L 2450 1447 
L 4622 1447 
z
M 4622 434 
L 4622 978 
L 2450 978 
L 2450 434 
L 4622 434 
z
" transform="scale(0.015625)"/>
      <path id="ArialUnicodeMS-4e0a" d="M 5931 63 
L 588 63 
L 588 531 
L 2688 531 
L 2688 5209 
L 3175 5209 
L 3175 3353 
L 5369 3353 
L 5369 2888 
L 3175 2888 
L 3175 531 
L 5931 531 
L 5931 63 
z
" transform="scale(0.015625)"/>
      <path id="ArialUnicodeMS-699c" d="M 5941 2516 
L 5478 2516 
L 5478 2994 
L 3003 2994 
L 3003 2497 
L 2516 2497 
L 2516 3463 
L 3566 3463 
Q 3478 3678 3003 4019 
L 3341 4225 
L 2656 4225 
L 2656 4697 
L 3909 4697 
L 3909 5331 
L 4397 5331 
L 4397 4697 
L 5831 4697 
L 5831 4225 
L 5025 4225 
L 5319 4091 
Q 5138 3656 4959 3463 
L 5941 3463 
L 5941 2516 
z
M 4831 4225 
L 3481 4225 
Q 3838 3994 4084 3500 
L 3969 3469 
L 4409 3463 
Q 4709 3772 4831 4225 
z
M 5863 1784 
L 3897 1784 
Q 3859 1403 3853 1388 
L 5556 1388 
Q 5459 513 5411 256 
Q 5363 0 5178 -131 
Q 4994 -263 4728 -263 
Q 4444 -263 3944 -178 
L 3859 300 
Q 4538 197 4728 197 
Q 4856 197 4915 261 
Q 4975 325 5012 573 
Q 5050 822 5050 941 
L 3775 941 
Q 3566 91 2394 -428 
L 2059 0 
Q 2494 106 2928 476 
Q 3363 847 3413 1784 
L 2572 1784 
L 2572 2075 
L 2188 1869 
Q 2100 2359 1869 2572 
L 1869 -447 
L 1381 -447 
L 1381 2022 
Q 1269 1678 716 1031 
L 347 1388 
Q 1172 2197 1375 3572 
L 563 3572 
L 563 4038 
L 1381 4038 
L 1381 5259 
L 1869 5259 
L 1869 4038 
L 2497 4038 
L 2497 3572 
L 1869 3572 
L 1869 2975 
L 2041 3066 
Q 2369 2825 2572 2203 
L 2572 2253 
L 3950 2253 
L 3950 2713 
L 4434 2713 
L 4434 2253 
L 5863 2253 
L 5863 1784 
z
" transform="scale(0.015625)"/>
      <path id="ArialUnicodeMS-6b21" d="M 5759 4372 
Q 5653 3369 5281 2706 
L 4813 2881 
Q 5088 3478 5153 3903 
L 3169 3903 
Q 2906 3159 2381 2472 
L 1925 2731 
Q 2813 3800 3003 5259 
L 3494 5184 
Q 3444 4863 3316 4372 
L 5759 4372 
z
M 1941 3847 
L 1528 3541 
Q 1138 4263 409 4697 
L 788 4984 
Q 1597 4534 1941 3847 
z
M 6100 25 
L 5797 -397 
Q 4350 116 3803 1516 
Q 3500 447 1797 -422 
L 1459 -72 
Q 2197 300 2676 751 
Q 3156 1203 3348 1704 
Q 3541 2206 3572 3272 
L 4050 3163 
L 3988 2256 
Q 3988 2041 4461 1228 
Q 4934 416 6100 25 
z
M 1894 2431 
Q 1541 669 716 -231 
L 313 84 
Q 1200 1106 1459 2650 
L 1894 2431 
z
" transform="scale(0.015625)"/>
      <path id="ArialUnicodeMS-6570" d="M 6138 19 
L 5806 -378 
Q 5031 194 4697 716 
Q 4344 144 3328 -441 
L 2981 -50 
Q 3966 434 4403 1153 
Q 4038 1834 3866 2753 
Q 3678 2356 3353 1919 
L 2950 2203 
Q 3838 3172 3963 5253 
L 4409 5125 
Q 4341 4384 4269 4006 
L 5984 4006 
L 5984 3547 
L 5619 3541 
L 5594 3341 
Q 5441 2113 4978 1191 
Q 5281 672 6138 19 
z
M 5166 3541 
L 4172 3541 
Q 4297 2419 4691 1650 
Q 5038 2513 5166 3541 
z
M 3438 3653 
L 2209 3653 
L 2209 2338 
L 1919 2338 
Q 1900 2269 1753 1931 
L 3225 1931 
L 3225 1472 
L 2913 1472 
Q 2763 991 2503 666 
Q 2947 353 3103 184 
L 2747 -172 
Q 2463 138 2150 313 
Q 1322 -225 563 -428 
L 269 6 
Q 1106 163 1684 563 
Q 1291 756 703 884 
L 1038 1472 
L 403 1472 
L 403 1931 
L 1259 1931 
Q 1328 2056 1466 2553 
L 1747 2484 
L 1747 3653 
L 1716 3653 
Q 1413 2881 678 2456 
L 378 2803 
Q 938 3091 1241 3653 
L 403 3653 
L 403 4122 
L 1747 4122 
L 1747 5228 
L 2209 5228 
L 2209 4122 
L 3438 4122 
L 3438 3653 
z
M 2406 1472 
L 1538 1472 
Q 1422 1241 1369 1153 
Q 1388 1159 2069 884 
Q 2219 1031 2406 1472 
z
M 1625 4441 
L 1288 4159 
Q 1022 4547 575 4813 
L 878 5075 
Q 1394 4844 1625 4441 
z
M 3384 4844 
Q 3097 4409 2669 4172 
L 2322 4481 
Q 2806 4759 3047 5069 
L 3384 4844 
z
M 3303 2888 
L 2944 2578 
Q 2706 3025 2291 3297 
L 2584 3566 
Q 2988 3359 3303 2888 
z
" transform="scale(0.015625)"/>
      <path id="ArialUnicodeMS-5206" d="M 5991 3003 
L 5684 2553 
Q 4856 3041 4451 3534 
Q 4047 4028 3781 4831 
L 4319 4984 
Q 4375 4356 4829 3825 
Q 5284 3294 5991 3003 
z
M 2613 4697 
Q 2169 3484 800 2547 
L 416 2919 
Q 1731 3741 2188 4934 
L 2613 4697 
z
M 4872 2931 
Q 4844 1956 4730 1092 
Q 4616 228 4430 7 
Q 4244 -213 3847 -213 
Q 3469 -213 2894 -78 
L 2747 481 
Q 3503 269 3834 269 
Q 4013 269 4128 639 
Q 4244 1009 4341 2463 
L 3138 2463 
Q 2869 263 831 -441 
L 525 -31 
Q 2372 478 2631 2463 
L 1556 2463 
L 1556 2931 
L 4872 2931 
z
" transform="scale(0.015625)"/>
      <path id="ArialUnicodeMS-5e03" d="M 5888 3944 
L 2597 3944 
Q 2300 3216 2053 2841 
L 3272 2841 
L 3272 3653 
L 3756 3653 
L 3756 2841 
L 5338 2841 
L 5338 941 
Q 5338 325 4878 325 
L 4294 325 
L 4141 819 
Q 4481 775 4628 775 
Q 4850 775 4850 941 
L 4850 2375 
L 3756 2375 
L 3756 -428 
L 3272 -428 
L 3272 2375 
L 2322 2375 
L 2322 153 
L 1838 153 
L 1825 2534 
Q 1516 2056 794 1288 
L 372 1581 
Q 1731 2919 2094 3944 
L 659 3944 
L 659 4409 
L 2266 4409 
Q 2378 4706 2553 5344 
L 3009 5203 
Q 2794 4444 2778 4409 
L 5888 4409 
L 5888 3944 
z
" transform="scale(0.015625)"/>
      <path id="ArialUnicodeMS-ff08" d="M 3964 -1344 
L 3561 -1344 
Q 3042 -681 2745 103 
Q 2448 888 2448 1656 
Q 2448 2528 2764 3275 
Q 3080 4022 3561 4659 
L 3964 4659 
Q 3408 3747 3219 3059 
Q 3030 2372 3030 1663 
Q 3030 153 3964 -1344 
z
" transform="scale(0.015625)"/>
      <path id="ArialUnicodeMS-542b" d="M 6181 3481 
L 5894 3016 
Q 5197 3216 4428 3700 
L 4428 3456 
L 1900 3456 
L 1900 3706 
Q 1278 3309 506 2988 
L 238 3456 
Q 941 3656 1781 4232 
Q 2622 4809 3116 5491 
L 3584 5259 
L 3488 5119 
Q 4572 3931 6181 3481 
z
M 4091 3928 
Q 3516 4338 3181 4763 
Q 2775 4319 2222 3928 
L 4091 3928 
z
M 5141 2638 
Q 4156 1803 2016 1600 
L 1797 2059 
Q 3313 2181 4256 2591 
L 1184 2591 
L 1184 3059 
L 5141 3059 
L 5141 2638 
z
M 5081 -416 
L 4575 -416 
L 4575 -38 
L 1806 -38 
L 1806 -416 
L 1300 -416 
L 1300 1588 
L 5081 1588 
L 5081 -416 
z
M 4575 428 
L 4575 1119 
L 1806 1119 
L 1806 428 
L 4575 428 
z
" transform="scale(0.015625)"/>
      <path id="ArialUnicodeMS-31" d="M 2400 0 
L 1838 0 
L 1838 3584 
Q 1416 3184 709 2906 
L 709 3450 
Q 1681 3916 2034 4603 
L 2400 4603 
L 2400 0 
z
" transform="scale(0.015625)"/>
      <path id="ArialUnicodeMS-ff09" d="M 2850 4659 
Q 3369 3997 3666 3212 
Q 3963 2428 3963 1656 
Q 3963 788 3647 41 
Q 3332 -706 2850 -1344 
L 2447 -1344 
Q 3004 -431 3193 255 
Q 3382 941 3382 1650 
Q 3382 3163 2447 4659 
L 2850 4659 
z
" transform="scale(0.015625)"/>
     </defs>
     <use xlink:href="#ArialUnicodeMS-4f5c"/>
     <use xlink:href="#ArialUnicodeMS-8005" transform="translate(100 0)"/>
     <use xlink:href="#ArialUnicodeMS-4e0a" transform="translate(200 0)"/>
     <use xlink:href="#ArialUnicodeMS-699c" transform="translate(300 0)"/>
     <use xlink:href="#ArialUnicodeMS-6b21" transform="translate(400 0)"/>
     <use xlink:href="#ArialUnicodeMS-6570" transform="translate(500 0)"/>
     <use xlink:href="#ArialUnicodeMS-5206" transform="translate(600 0)"/>
     <use xlink:href="#ArialUnicodeMS-5e03" transform="translate(700 0)"/>
     <use xlink:href="#ArialUnicodeMS-ff08" transform="translate(800 0)"/>
     <use xlink:href="#ArialUnicodeMS-542b" transform="translate(900 0)"/>
     <use xlink:href="#ArialUnicodeMS-31" transform="translate(1000 0)"/>
     <use xlink:href="#ArialUnicodeMS-6b21" transform="translate(1055.615234 0)"/>
     <use xlink:href="#ArialUnicodeMS-ff09" transform="translate(1155.615234 0)"/>
    </g>
   </g>
   <g id="legend_1">
    <g id="patch_12">
     <path d="M 366.05 303.412812 
L 419.171875 303.412812 
Q 421.171875 303.412812 421.171875 301.412812 
L 421.171875 146.762812 
Q 421.171875 144.762812 419.171875 144.762812 
L 366.05 144.762812 
Q 364.05 144.762812 364.05 146.762812 
L 364.05 301.412812 
Q 364.05 303.412812 366.05 303.412812 
z
" style="fill: #ffffff; opacity: 0.8; stroke: #cccccc; stroke-linejoin: miter"/>
    </g>
    <g id="text_2">
     <!-- 上榜次数 -->
     <g transform="translate(372.610937 155.920625) scale(0.1 -0.1)">
      <use xlink:href="#ArialUnicodeMS-4e0a"/>
      <use xlink:href="#ArialUnicodeMS-699c" transform="translate(100 0)"/>
      <use xlink:href="#ArialUnicodeMS-6b21" transform="translate(200 0)"/>
      <use xlink:href="#ArialUnicodeMS-6570" transform="translate(300 0)"/>
     </g>
    </g>
    <g id="patch_13">
     <path d="M 368.05 170.070625 
L 388.05 170.070625 
L 388.05 163.070625 
L 368.05 163.070625 
z
" style="fill: #1f77b4"/>
    </g>
    <g id="text_3">
     <!-- 1次 -->
     <g transform="translate(396.05 170.070625) scale(0.1 -0.1)">
      <use xlink:href="#ArialUnicodeMS-31"/>
      <use xlink:href="#ArialUnicodeMS-6b21" transform="translate(55.615234 0)"/>
     </g>
    </g>
    <g id="patch_14">
     <path d="M 368.05 184.220625 
L 388.05 184.220625 
L 388.05 177.220625 
L 368.05 177.220625 
z
" style="fill: #aec7e8"/>
    </g>
    <g id="text_4">
     <!-- 2次 -->
     <g transform="translate(396.05 184.220625) scale(0.1 -0.1)">
      <defs>
       <path id="ArialUnicodeMS-32" d="M 3231 0 
L 197 0 
Q 197 388 467 784 
Q 738 1181 1478 1778 
Q 1931 2141 2287 2539 
Q 2644 2938 2644 3341 
Q 2644 3688 2398 3914 
Q 2153 4141 1778 4141 
Q 1400 4141 1144 3908 
Q 888 3675 884 3213 
L 306 3278 
Q 359 3922 764 4262 
Q 1169 4603 1791 4603 
Q 2466 4603 2842 4229 
Q 3219 3856 3219 3328 
Q 3219 2888 2901 2436 
Q 2584 1984 1638 1228 
Q 1141 831 978 544 
L 3231 544 
L 3231 0 
z
" transform="scale(0.015625)"/>
      </defs>
      <use xlink:href="#ArialUnicodeMS-32"/>
      <use xlink:href="#ArialUnicodeMS-6b21" transform="translate(55.615234 0)"/>
     </g>
    </g>
    <g id="patch_15">
     <path d="M 368.05 198.370625 
L 388.05 198.370625 
L 388.05 191.370625 
L 368.05 191.370625 
z
" style="fill: #ff7f0e"/>
    </g>
    <g id="text_5">
     <!-- 3次 -->
     <g transform="translate(396.05 198.370625) scale(0.1 -0.1)">
      <defs>
       <path id="ArialUnicodeMS-33" d="M 2425 2478 
Q 2850 2397 3067 2067 
Q 3284 1738 3284 1350 
Q 3284 725 2829 323 
Q 2375 -78 1741 -78 
Q 1134 -78 740 275 
Q 347 628 281 1209 
L 844 1288 
Q 928 834 1151 609 
Q 1375 384 1741 384 
Q 2134 384 2407 661 
Q 2681 938 2681 1338 
Q 2681 1722 2432 1975 
Q 2184 2228 1784 2228 
Q 1622 2228 1388 2169 
L 1453 2663 
Q 1678 2663 1809 2684 
Q 1941 2706 2103 2790 
Q 2266 2875 2372 3033 
Q 2478 3191 2478 3425 
Q 2478 3766 2251 3953 
Q 2025 4141 1728 4141 
Q 1388 4141 1173 3925 
Q 959 3709 903 3309 
L 341 3413 
Q 450 4009 823 4306 
Q 1197 4603 1716 4603 
Q 2288 4603 2670 4258 
Q 3053 3913 3053 3413 
Q 3053 2772 2425 2491 
L 2425 2478 
z
" transform="scale(0.015625)"/>
      </defs>
      <use xlink:href="#ArialUnicodeMS-33"/>
      <use xlink:href="#ArialUnicodeMS-6b21" transform="translate(55.615234 0)"/>
     </g>
    </g>
    <g id="patch_16">
     <path d="M 368.05 212.520625 
L 388.05 212.520625 
L 388.05 205.520625 
L 368.05 205.520625 
z
" style="fill: #ffbb78"/>
    </g>
    <g id="text_6">
     <!-- 4次 -->
     <g transform="translate(396.05 212.520625) scale(0.1 -0.1)">
      <defs>
       <path id="ArialUnicodeMS-34" d="M 3263 1094 
L 2644 1094 
L 2644 0 
L 2081 0 
L 2081 1094 
L 97 1094 
L 97 1613 
L 2181 4581 
L 2644 4581 
L 2644 1613 
L 3263 1613 
L 3263 1094 
z
M 2081 1613 
L 2081 3681 
L 2069 3681 
L 647 1613 
L 2081 1613 
z
" transform="scale(0.015625)"/>
      </defs>
      <use xlink:href="#ArialUnicodeMS-34"/>
      <use xlink:href="#ArialUnicodeMS-6b21" transform="translate(55.615234 0)"/>
     </g>
    </g>
    <g id="patch_17">
     <path d="M 368.05 226.670625 
L 388.05 226.670625 
L 388.05 219.670625 
L 368.05 219.670625 
z
" style="fill: #2ca02c"/>
    </g>
    <g id="text_7">
     <!-- 5次 -->
     <g transform="translate(396.05 226.670625) scale(0.1 -0.1)">
      <defs>
       <path id="ArialUnicodeMS-35" d="M 1013 2753 
Q 1431 3041 1881 3041 
Q 2453 3041 2878 2636 
Q 3303 2231 3303 1556 
Q 3303 875 2872 398 
Q 2441 -78 1741 -78 
Q 1169 -78 750 245 
Q 331 569 269 1203 
L 856 1247 
Q 928 813 1162 598 
Q 1397 384 1741 384 
Q 2169 384 2434 707 
Q 2700 1031 2700 1503 
Q 2700 1984 2428 2262 
Q 2156 2541 1728 2541 
Q 1188 2541 897 2100 
L 366 2163 
L 813 4519 
L 3084 4519 
L 3084 3975 
L 1259 3975 
L 1013 2753 
z
" transform="scale(0.015625)"/>
      </defs>
      <use xlink:href="#ArialUnicodeMS-35"/>
      <use xlink:href="#ArialUnicodeMS-6b21" transform="translate(55.615234 0)"/>
     </g>
    </g>
    <g id="patch_18">
     <path d="M 368.05 240.820625 
L 388.05 240.820625 
L 388.05 233.820625 
L 368.05 233.820625 
z
" style="fill: #98df8a"/>
    </g>
    <g id="text_8">
     <!-- 6次 -->
     <g transform="translate(396.05 240.820625) scale(0.1 -0.1)">
      <defs>
       <path id="ArialUnicodeMS-36" d="M 838 2363 
Q 1225 2969 1941 2969 
Q 2503 2969 2897 2553 
Q 3291 2138 3291 1491 
Q 3291 838 2898 380 
Q 2506 -78 1856 -78 
Q 1197 -78 733 409 
Q 269 897 269 2144 
Q 269 3369 689 3986 
Q 1109 4603 1906 4603 
Q 2422 4603 2778 4315 
Q 3134 4028 3213 3463 
L 2650 3413 
Q 2497 4141 1875 4141 
Q 1444 4141 1134 3712 
Q 825 3284 825 2363 
L 838 2363 
z
M 1844 384 
Q 2231 384 2472 696 
Q 2713 1009 2713 1453 
Q 2713 1897 2472 2187 
Q 2231 2478 1825 2478 
Q 1453 2478 1184 2204 
Q 916 1931 916 1484 
Q 916 1028 1180 706 
Q 1444 384 1844 384 
z
" transform="scale(0.015625)"/>
      </defs>
      <use xlink:href="#ArialUnicodeMS-36"/>
      <use xlink:href="#ArialUnicodeMS-6b21" transform="translate(55.615234 0)"/>
     </g>
    </g>
    <g id="patch_19">
     <path d="M 368.05 254.970625 
L 388.05 254.970625 
L 388.05 247.970625 
L 368.05 247.970625 
z
" style="fill: #d62728"/>
    </g>
    <g id="text_9">
     <!-- 7次 -->
     <g transform="translate(396.05 254.970625) scale(0.1 -0.1)">
      <defs>
       <path id="ArialUnicodeMS-37" d="M 3272 4084 
Q 2597 3344 2103 2253 
Q 1609 1163 1522 0 
L 947 0 
Q 969 934 1408 2051 
Q 1847 3169 2547 3975 
L 306 3975 
L 306 4519 
L 3272 4519 
L 3272 4084 
z
" transform="scale(0.015625)"/>
      </defs>
      <use xlink:href="#ArialUnicodeMS-37"/>
      <use xlink:href="#ArialUnicodeMS-6b21" transform="translate(55.615234 0)"/>
     </g>
    </g>
    <g id="patch_20">
     <path d="M 368.05 269.120625 
L 388.05 269.120625 
L 388.05 262.120625 
L 368.05 262.120625 
z
" style="fill: #ff9896"/>
    </g>
    <g id="text_10">
     <!-- 8次 -->
     <g transform="translate(396.05 269.120625) scale(0.1 -0.1)">
      <defs>
       <path id="ArialUnicodeMS-38" d="M 2425 2478 
Q 3284 2203 3284 1306 
Q 3284 716 2862 319 
Q 2441 -78 1778 -78 
Q 1109 -78 689 322 
Q 269 722 269 1325 
Q 269 1759 505 2084 
Q 741 2409 1141 2478 
L 1141 2491 
Q 453 2703 453 3419 
Q 453 3925 815 4264 
Q 1178 4603 1766 4603 
Q 2363 4603 2730 4253 
Q 3097 3903 3097 3406 
Q 3097 2731 2425 2491 
L 2425 2478 
z
M 1778 2700 
Q 2094 2700 2308 2901 
Q 2522 3103 2522 3406 
Q 2522 3716 2305 3928 
Q 2088 4141 1772 4141 
Q 1450 4141 1240 3931 
Q 1031 3722 1031 3438 
Q 1031 3097 1247 2898 
Q 1463 2700 1778 2700 
z
M 1778 384 
Q 2175 384 2440 640 
Q 2706 897 2706 1306 
Q 2706 1716 2432 1978 
Q 2159 2241 1766 2241 
Q 1356 2241 1100 1970 
Q 844 1700 844 1319 
Q 844 922 1108 653 
Q 1372 384 1778 384 
z
" transform="scale(0.015625)"/>
      </defs>
      <use xlink:href="#ArialUnicodeMS-38"/>
      <use xlink:href="#ArialUnicodeMS-6b21" transform="translate(55.615234 0)"/>
     </g>
    </g>
    <g id="patch_21">
     <path d="M 368.05 283.270625 
L 388.05 283.270625 
L 388.05 276.270625 
L 368.05 276.270625 
z
" style="fill: #9467bd"/>
    </g>
    <g id="text_11">
     <!-- 9次 -->
     <g transform="translate(396.05 283.270625) scale(0.1 -0.1)">
      <defs>
       <path id="ArialUnicodeMS-39" d="M 2713 2156 
Q 2547 1888 2258 1722 
Q 1969 1556 1631 1556 
Q 1066 1556 670 1970 
Q 275 2384 275 3053 
Q 275 3734 678 4168 
Q 1081 4603 1716 4603 
Q 2353 4603 2818 4106 
Q 3284 3609 3284 2388 
Q 3284 1147 2859 534 
Q 2434 -78 1644 -78 
Q 1128 -78 781 205 
Q 434 488 359 1063 
L 897 1106 
Q 1025 384 1656 384 
Q 2175 384 2450 857 
Q 2725 1331 2725 2156 
L 2713 2156 
z
M 1766 2047 
Q 2178 2047 2420 2339 
Q 2663 2631 2663 3078 
Q 2663 3531 2414 3836 
Q 2166 4141 1778 4141 
Q 1388 4141 1119 3817 
Q 850 3494 850 3034 
Q 850 2600 1114 2323 
Q 1378 2047 1766 2047 
z
" transform="scale(0.015625)"/>
      </defs>
      <use xlink:href="#ArialUnicodeMS-39"/>
      <use xlink:href="#ArialUnicodeMS-6b21" transform="translate(55.615234 0)"/>
     </g>
    </g>
    <g id="patch_22">
     <path d="M 368.05 297.420625 
L 388.05 297.420625 
L 388.05 290.420625 
L 368.05 290.420625 
z
" style="fill: #c5b0d5"/>
    </g>
    <g id="text_12">
     <!-- 13次 -->
     <g transform="translate(396.05 297.420625) scale(0.1 -0.1)">
      <use xlink:href="#ArialUnicodeMS-31"/>
      <use xlink:href="#ArialUnicodeMS-33" transform="translate(55.615234 0)"/>
      <use xlink:href="#ArialUnicodeMS-6b21" transform="translate(111.230469 0)"/>
     </g>
    </g>
   </g>
  </g>
 </g>
</svg>
