<?xml version="1.0" encoding="utf-8" standalone="no"?>
<!DOCTYPE svg PUBLIC "-//W3C//DTD SVG 1.1//EN"
  "http://www.w3.org/Graphics/SVG/1.1/DTD/svg11.dtd">
<svg xmlns:xlink="http://www.w3.org/1999/xlink" width="720pt" height="360pt" viewBox="0 0 720 360" xmlns="http://www.w3.org/2000/svg" version="1.1">
 <metadata>
  <rdf:RDF xmlns:dc="http://purl.org/dc/elements/1.1/" xmlns:cc="http://creativecommons.org/ns#" xmlns:rdf="http://www.w3.org/1999/02/22-rdf-syntax-ns#">
   <cc:Work>
    <dc:type rdf:resource="http://purl.org/dc/dcmitype/StillImage"/>
    <dc:date>2025-05-27T13:03:11.554377</dc:date>
    <dc:format>image/svg+xml</dc:format>
    <dc:creator>
     <cc:Agent>
      <dc:title>Matplotlib v3.10.3, https://matplotlib.org/</dc:title>
     </cc:Agent>
    </dc:creator>
   </cc:Work>
  </rdf:RDF>
 </metadata>
 <defs>
  <style type="text/css">*{stroke-linejoin: round; stroke-linecap: butt}</style>
 </defs>
 <g id="figure_1">
  <g id="patch_1">
   <path d="M 0 360 
L 720 360 
L 720 0 
L 0 0 
z
" style="fill: #ffffff"/>
  </g>
  <g id="axes_1">
   <g id="patch_2">
    <path d="M 43.61375 319.48 
L 705.956473 319.48 
L 705.956473 26.919375 
L 43.61375 26.919375 
z
" style="fill: #ffffff"/>
   </g>
   <g id="matplotlib.axis_1">
    <g id="xtick_1">
     <g id="line2d_1">
      <path d="M 73.720237 319.48 
L 73.720237 26.919375 
" clip-path="url(#pf5837dccf2)" style="fill: none; stroke: #b0b0b0; stroke-width: 0.8; stroke-linecap: square"/>
     </g>
     <g id="line2d_2">
      <defs>
       <path id="m4272d9e987" d="M 0 0 
L 0 3.5 
" style="stroke: #000000; stroke-width: 0.8"/>
      </defs>
      <g>
       <use xlink:href="#m4272d9e987" x="73.720237" y="319.48" style="stroke: #000000; stroke-width: 0.8"/>
      </g>
     </g>
     <g id="text_1">
      <!-- 1995 -->
      <g transform="translate(62.598362 333.637812) scale(0.1 -0.1)">
       <defs>
        <path id="ArialUnicodeMS-31" d="M 2400 0 
L 1838 0 
L 1838 3584 
Q 1416 3184 709 2906 
L 709 3450 
Q 1681 3916 2034 4603 
L 2400 4603 
L 2400 0 
z
" transform="scale(0.015625)"/>
        <path id="ArialUnicodeMS-39" d="M 2713 2156 
Q 2547 1888 2258 1722 
Q 1969 1556 1631 1556 
Q 1066 1556 670 1970 
Q 275 2384 275 3053 
Q 275 3734 678 4168 
Q 1081 4603 1716 4603 
Q 2353 4603 2818 4106 
Q 3284 3609 3284 2388 
Q 3284 1147 2859 534 
Q 2434 -78 1644 -78 
Q 1128 -78 781 205 
Q 434 488 359 1063 
L 897 1106 
Q 1025 384 1656 384 
Q 2175 384 2450 857 
Q 2725 1331 2725 2156 
L 2713 2156 
z
M 1766 2047 
Q 2178 2047 2420 2339 
Q 2663 2631 2663 3078 
Q 2663 3531 2414 3836 
Q 2166 4141 1778 4141 
Q 1388 4141 1119 3817 
Q 850 3494 850 3034 
Q 850 2600 1114 2323 
Q 1378 2047 1766 2047 
z
" transform="scale(0.015625)"/>
        <path id="ArialUnicodeMS-35" d="M 1013 2753 
Q 1431 3041 1881 3041 
Q 2453 3041 2878 2636 
Q 3303 2231 3303 1556 
Q 3303 875 2872 398 
Q 2441 -78 1741 -78 
Q 1169 -78 750 245 
Q 331 569 269 1203 
L 856 1247 
Q 928 813 1162 598 
Q 1397 384 1741 384 
Q 2169 384 2434 707 
Q 2700 1031 2700 1503 
Q 2700 1984 2428 2262 
Q 2156 2541 1728 2541 
Q 1188 2541 897 2100 
L 366 2163 
L 813 4519 
L 3084 4519 
L 3084 3975 
L 1259 3975 
L 1013 2753 
z
" transform="scale(0.015625)"/>
       </defs>
       <use xlink:href="#ArialUnicodeMS-31"/>
       <use xlink:href="#ArialUnicodeMS-39" transform="translate(55.615234 0)"/>
       <use xlink:href="#ArialUnicodeMS-39" transform="translate(111.230469 0)"/>
       <use xlink:href="#ArialUnicodeMS-35" transform="translate(166.845703 0)"/>
      </g>
     </g>
    </g>
    <g id="xtick_2">
     <g id="line2d_3">
      <path d="M 177.535711 319.48 
L 177.535711 26.919375 
" clip-path="url(#pf5837dccf2)" style="fill: none; stroke: #b0b0b0; stroke-width: 0.8; stroke-linecap: square"/>
     </g>
     <g id="line2d_4">
      <g>
       <use xlink:href="#m4272d9e987" x="177.535711" y="319.48" style="stroke: #000000; stroke-width: 0.8"/>
      </g>
     </g>
     <g id="text_2">
      <!-- 2000 -->
      <g transform="translate(166.413836 333.637812) scale(0.1 -0.1)">
       <defs>
        <path id="ArialUnicodeMS-32" d="M 3231 0 
L 197 0 
Q 197 388 467 784 
Q 738 1181 1478 1778 
Q 1931 2141 2287 2539 
Q 2644 2938 2644 3341 
Q 2644 3688 2398 3914 
Q 2153 4141 1778 4141 
Q 1400 4141 1144 3908 
Q 888 3675 884 3213 
L 306 3278 
Q 359 3922 764 4262 
Q 1169 4603 1791 4603 
Q 2466 4603 2842 4229 
Q 3219 3856 3219 3328 
Q 3219 2888 2901 2436 
Q 2584 1984 1638 1228 
Q 1141 831 978 544 
L 3231 544 
L 3231 0 
z
" transform="scale(0.015625)"/>
        <path id="ArialUnicodeMS-30" d="M 1778 4603 
Q 3272 4603 3272 2259 
Q 3272 1075 2886 498 
Q 2500 -78 1778 -78 
Q 288 -78 288 2259 
Q 288 3444 673 4023 
Q 1059 4603 1778 4603 
z
M 1778 384 
Q 2231 384 2462 823 
Q 2694 1263 2694 2259 
Q 2694 2953 2592 3351 
Q 2491 3750 2286 3945 
Q 2081 4141 1772 4141 
Q 1319 4141 1091 3694 
Q 863 3247 863 2259 
Q 863 1575 966 1175 
Q 1069 775 1272 579 
Q 1475 384 1778 384 
z
" transform="scale(0.015625)"/>
       </defs>
       <use xlink:href="#ArialUnicodeMS-32"/>
       <use xlink:href="#ArialUnicodeMS-30" transform="translate(55.615234 0)"/>
       <use xlink:href="#ArialUnicodeMS-30" transform="translate(111.230469 0)"/>
       <use xlink:href="#ArialUnicodeMS-30" transform="translate(166.845703 0)"/>
      </g>
     </g>
    </g>
    <g id="xtick_3">
     <g id="line2d_5">
      <path d="M 281.351185 319.48 
L 281.351185 26.919375 
" clip-path="url(#pf5837dccf2)" style="fill: none; stroke: #b0b0b0; stroke-width: 0.8; stroke-linecap: square"/>
     </g>
     <g id="line2d_6">
      <g>
       <use xlink:href="#m4272d9e987" x="281.351185" y="319.48" style="stroke: #000000; stroke-width: 0.8"/>
      </g>
     </g>
     <g id="text_3">
      <!-- 2005 -->
      <g transform="translate(270.22931 333.637812) scale(0.1 -0.1)">
       <use xlink:href="#ArialUnicodeMS-32"/>
       <use xlink:href="#ArialUnicodeMS-30" transform="translate(55.615234 0)"/>
       <use xlink:href="#ArialUnicodeMS-30" transform="translate(111.230469 0)"/>
       <use xlink:href="#ArialUnicodeMS-35" transform="translate(166.845703 0)"/>
      </g>
     </g>
    </g>
    <g id="xtick_4">
     <g id="line2d_7">
      <path d="M 385.166659 319.48 
L 385.166659 26.919375 
" clip-path="url(#pf5837dccf2)" style="fill: none; stroke: #b0b0b0; stroke-width: 0.8; stroke-linecap: square"/>
     </g>
     <g id="line2d_8">
      <g>
       <use xlink:href="#m4272d9e987" x="385.166659" y="319.48" style="stroke: #000000; stroke-width: 0.8"/>
      </g>
     </g>
     <g id="text_4">
      <!-- 2010 -->
      <g transform="translate(374.044784 333.637812) scale(0.1 -0.1)">
       <use xlink:href="#ArialUnicodeMS-32"/>
       <use xlink:href="#ArialUnicodeMS-30" transform="translate(55.615234 0)"/>
       <use xlink:href="#ArialUnicodeMS-31" transform="translate(111.230469 0)"/>
       <use xlink:href="#ArialUnicodeMS-30" transform="translate(166.845703 0)"/>
      </g>
     </g>
    </g>
    <g id="xtick_5">
     <g id="line2d_9">
      <path d="M 488.982133 319.48 
L 488.982133 26.919375 
" clip-path="url(#pf5837dccf2)" style="fill: none; stroke: #b0b0b0; stroke-width: 0.8; stroke-linecap: square"/>
     </g>
     <g id="line2d_10">
      <g>
       <use xlink:href="#m4272d9e987" x="488.982133" y="319.48" style="stroke: #000000; stroke-width: 0.8"/>
      </g>
     </g>
     <g id="text_5">
      <!-- 2015 -->
      <g transform="translate(477.860258 333.637812) scale(0.1 -0.1)">
       <use xlink:href="#ArialUnicodeMS-32"/>
       <use xlink:href="#ArialUnicodeMS-30" transform="translate(55.615234 0)"/>
       <use xlink:href="#ArialUnicodeMS-31" transform="translate(111.230469 0)"/>
       <use xlink:href="#ArialUnicodeMS-35" transform="translate(166.845703 0)"/>
      </g>
     </g>
    </g>
    <g id="xtick_6">
     <g id="line2d_11">
      <path d="M 592.797607 319.48 
L 592.797607 26.919375 
" clip-path="url(#pf5837dccf2)" style="fill: none; stroke: #b0b0b0; stroke-width: 0.8; stroke-linecap: square"/>
     </g>
     <g id="line2d_12">
      <g>
       <use xlink:href="#m4272d9e987" x="592.797607" y="319.48" style="stroke: #000000; stroke-width: 0.8"/>
      </g>
     </g>
     <g id="text_6">
      <!-- 2020 -->
      <g transform="translate(581.675732 333.637812) scale(0.1 -0.1)">
       <use xlink:href="#ArialUnicodeMS-32"/>
       <use xlink:href="#ArialUnicodeMS-30" transform="translate(55.615234 0)"/>
       <use xlink:href="#ArialUnicodeMS-32" transform="translate(111.230469 0)"/>
       <use xlink:href="#ArialUnicodeMS-30" transform="translate(166.845703 0)"/>
      </g>
     </g>
    </g>
    <g id="xtick_7">
     <g id="line2d_13">
      <path d="M 696.613081 319.48 
L 696.613081 26.919375 
" clip-path="url(#pf5837dccf2)" style="fill: none; stroke: #b0b0b0; stroke-width: 0.8; stroke-linecap: square"/>
     </g>
     <g id="line2d_14">
      <g>
       <use xlink:href="#m4272d9e987" x="696.613081" y="319.48" style="stroke: #000000; stroke-width: 0.8"/>
      </g>
     </g>
     <g id="text_7">
      <!-- 2025 -->
      <g transform="translate(685.491206 333.637812) scale(0.1 -0.1)">
       <use xlink:href="#ArialUnicodeMS-32"/>
       <use xlink:href="#ArialUnicodeMS-30" transform="translate(55.615234 0)"/>
       <use xlink:href="#ArialUnicodeMS-32" transform="translate(111.230469 0)"/>
       <use xlink:href="#ArialUnicodeMS-35" transform="translate(166.845703 0)"/>
      </g>
     </g>
    </g>
    <g id="text_8">
     <!-- 年份 -->
     <g transform="translate(364.785112 346.787812) scale(0.1 -0.1)">
      <defs>
       <path id="ArialUnicodeMS-5e74" d="M 5869 1409 
L 3659 1409 
L 3659 -434 
L 3156 -434 
L 3156 1409 
L 659 1409 
L 659 1875 
L 1459 1875 
L 1459 3384 
L 3156 3384 
L 3156 4219 
L 1838 4219 
Q 1425 3363 953 2931 
L 550 3256 
Q 1381 3994 1734 5381 
L 2144 5184 
Q 2122 4997 2022 4684 
L 5606 4684 
L 5606 4219 
L 3659 4219 
L 3659 3384 
L 5294 3384 
L 5294 2919 
L 3659 2919 
L 3659 1875 
L 5869 1875 
L 5869 1409 
z
M 3156 1875 
L 3156 2919 
L 1947 2919 
L 1947 1875 
L 3156 1875 
z
" transform="scale(0.015625)"/>
       <path id="ArialUnicodeMS-4efd" d="M 6194 2875 
L 5778 2553 
Q 5528 2697 5294 2969 
Q 5269 1894 5181 1111 
Q 5094 328 4944 25 
Q 4794 -278 4372 -278 
Q 4047 -278 3609 -166 
L 3456 372 
Q 4003 178 4359 178 
Q 4475 178 4525 333 
Q 4575 488 4667 1075 
Q 4759 1663 4781 2559 
L 3916 2559 
Q 3822 219 2234 -447 
L 1888 -78 
Q 3416 516 3444 2559 
L 2625 2559 
L 2625 2975 
Q 2409 2722 2150 2484 
L 1813 2759 
L 1813 -475 
L 1325 -475 
L 1325 2816 
L 1319 2828 
Q 1319 2813 1131 2617 
Q 944 2422 738 2253 
L 319 2534 
Q 1466 3466 2009 5300 
L 2450 5094 
Q 2328 4681 2069 4116 
L 1813 3572 
L 1813 2834 
Q 2794 3716 3103 4897 
L 3475 4678 
Q 3244 3744 2669 3028 
L 5241 3028 
Q 4750 3606 4459 4494 
L 3506 4494 
L 3500 4953 
L 4825 4953 
Q 5241 3419 6194 2875 
z
" transform="scale(0.015625)"/>
      </defs>
      <use xlink:href="#ArialUnicodeMS-5e74"/>
      <use xlink:href="#ArialUnicodeMS-4efd" transform="translate(100 0)"/>
     </g>
    </g>
   </g>
   <g id="matplotlib.axis_2">
    <g id="ytick_1">
     <g id="line2d_15">
      <path d="M 43.61375 314.286717 
L 705.956473 314.286717 
" clip-path="url(#pf5837dccf2)" style="fill: none; stroke: #b0b0b0; stroke-width: 0.8; stroke-linecap: square"/>
     </g>
     <g id="line2d_16">
      <defs>
       <path id="mfd91eb2676" d="M 0 0 
L -3.5 0 
" style="stroke: #000000; stroke-width: 0.8"/>
      </defs>
      <g>
       <use xlink:href="#mfd91eb2676" x="43.61375" y="314.286717" style="stroke: #000000; stroke-width: 0.8"/>
      </g>
     </g>
     <g id="text_9">
      <!-- 8 -->
      <g transform="translate(31.052813 317.865623) scale(0.1 -0.1)">
       <defs>
        <path id="ArialUnicodeMS-38" d="M 2425 2478 
Q 3284 2203 3284 1306 
Q 3284 716 2862 319 
Q 2441 -78 1778 -78 
Q 1109 -78 689 322 
Q 269 722 269 1325 
Q 269 1759 505 2084 
Q 741 2409 1141 2478 
L 1141 2491 
Q 453 2703 453 3419 
Q 453 3925 815 4264 
Q 1178 4603 1766 4603 
Q 2363 4603 2730 4253 
Q 3097 3903 3097 3406 
Q 3097 2731 2425 2491 
L 2425 2478 
z
M 1778 2700 
Q 2094 2700 2308 2901 
Q 2522 3103 2522 3406 
Q 2522 3716 2305 3928 
Q 2088 4141 1772 4141 
Q 1450 4141 1240 3931 
Q 1031 3722 1031 3438 
Q 1031 3097 1247 2898 
Q 1463 2700 1778 2700 
z
M 1778 384 
Q 2175 384 2440 640 
Q 2706 897 2706 1306 
Q 2706 1716 2432 1978 
Q 2159 2241 1766 2241 
Q 1356 2241 1100 1970 
Q 844 1700 844 1319 
Q 844 922 1108 653 
Q 1372 384 1778 384 
z
" transform="scale(0.015625)"/>
       </defs>
       <use xlink:href="#ArialUnicodeMS-38"/>
      </g>
     </g>
    </g>
    <g id="ytick_2">
     <g id="line2d_17">
      <path d="M 43.61375 280.232401 
L 705.956473 280.232401 
" clip-path="url(#pf5837dccf2)" style="fill: none; stroke: #b0b0b0; stroke-width: 0.8; stroke-linecap: square"/>
     </g>
     <g id="line2d_18">
      <g>
       <use xlink:href="#mfd91eb2676" x="43.61375" y="280.232401" style="stroke: #000000; stroke-width: 0.8"/>
      </g>
     </g>
     <g id="text_10">
      <!-- 9 -->
      <g transform="translate(31.052813 283.811308) scale(0.1 -0.1)">
       <use xlink:href="#ArialUnicodeMS-39"/>
      </g>
     </g>
    </g>
    <g id="ytick_3">
     <g id="line2d_19">
      <path d="M 43.61375 246.178086 
L 705.956473 246.178086 
" clip-path="url(#pf5837dccf2)" style="fill: none; stroke: #b0b0b0; stroke-width: 0.8; stroke-linecap: square"/>
     </g>
     <g id="line2d_20">
      <g>
       <use xlink:href="#mfd91eb2676" x="43.61375" y="246.178086" style="stroke: #000000; stroke-width: 0.8"/>
      </g>
     </g>
     <g id="text_11">
      <!-- 10 -->
      <g transform="translate(25.491875 249.756992) scale(0.1 -0.1)">
       <use xlink:href="#ArialUnicodeMS-31"/>
       <use xlink:href="#ArialUnicodeMS-30" transform="translate(55.615234 0)"/>
      </g>
     </g>
    </g>
    <g id="ytick_4">
     <g id="line2d_21">
      <path d="M 43.61375 212.12377 
L 705.956473 212.12377 
" clip-path="url(#pf5837dccf2)" style="fill: none; stroke: #b0b0b0; stroke-width: 0.8; stroke-linecap: square"/>
     </g>
     <g id="line2d_22">
      <g>
       <use xlink:href="#mfd91eb2676" x="43.61375" y="212.12377" style="stroke: #000000; stroke-width: 0.8"/>
      </g>
     </g>
     <g id="text_12">
      <!-- 11 -->
      <g transform="translate(25.491875 215.702676) scale(0.1 -0.1)">
       <use xlink:href="#ArialUnicodeMS-31"/>
       <use xlink:href="#ArialUnicodeMS-31" transform="translate(55.615234 0)"/>
      </g>
     </g>
    </g>
    <g id="ytick_5">
     <g id="line2d_23">
      <path d="M 43.61375 178.069455 
L 705.956473 178.069455 
" clip-path="url(#pf5837dccf2)" style="fill: none; stroke: #b0b0b0; stroke-width: 0.8; stroke-linecap: square"/>
     </g>
     <g id="line2d_24">
      <g>
       <use xlink:href="#mfd91eb2676" x="43.61375" y="178.069455" style="stroke: #000000; stroke-width: 0.8"/>
      </g>
     </g>
     <g id="text_13">
      <!-- 12 -->
      <g transform="translate(25.491875 181.648361) scale(0.1 -0.1)">
       <use xlink:href="#ArialUnicodeMS-31"/>
       <use xlink:href="#ArialUnicodeMS-32" transform="translate(55.615234 0)"/>
      </g>
     </g>
    </g>
    <g id="ytick_6">
     <g id="line2d_25">
      <path d="M 43.61375 144.015139 
L 705.956473 144.015139 
" clip-path="url(#pf5837dccf2)" style="fill: none; stroke: #b0b0b0; stroke-width: 0.8; stroke-linecap: square"/>
     </g>
     <g id="line2d_26">
      <g>
       <use xlink:href="#mfd91eb2676" x="43.61375" y="144.015139" style="stroke: #000000; stroke-width: 0.8"/>
      </g>
     </g>
     <g id="text_14">
      <!-- 13 -->
      <g transform="translate(25.491875 147.594045) scale(0.1 -0.1)">
       <defs>
        <path id="ArialUnicodeMS-33" d="M 2425 2478 
Q 2850 2397 3067 2067 
Q 3284 1738 3284 1350 
Q 3284 725 2829 323 
Q 2375 -78 1741 -78 
Q 1134 -78 740 275 
Q 347 628 281 1209 
L 844 1288 
Q 928 834 1151 609 
Q 1375 384 1741 384 
Q 2134 384 2407 661 
Q 2681 938 2681 1338 
Q 2681 1722 2432 1975 
Q 2184 2228 1784 2228 
Q 1622 2228 1388 2169 
L 1453 2663 
Q 1678 2663 1809 2684 
Q 1941 2706 2103 2790 
Q 2266 2875 2372 3033 
Q 2478 3191 2478 3425 
Q 2478 3766 2251 3953 
Q 2025 4141 1728 4141 
Q 1388 4141 1173 3925 
Q 959 3709 903 3309 
L 341 3413 
Q 450 4009 823 4306 
Q 1197 4603 1716 4603 
Q 2288 4603 2670 4258 
Q 3053 3913 3053 3413 
Q 3053 2772 2425 2491 
L 2425 2478 
z
" transform="scale(0.015625)"/>
       </defs>
       <use xlink:href="#ArialUnicodeMS-31"/>
       <use xlink:href="#ArialUnicodeMS-33" transform="translate(55.615234 0)"/>
      </g>
     </g>
    </g>
    <g id="ytick_7">
     <g id="line2d_27">
      <path d="M 43.61375 109.960823 
L 705.956473 109.960823 
" clip-path="url(#pf5837dccf2)" style="fill: none; stroke: #b0b0b0; stroke-width: 0.8; stroke-linecap: square"/>
     </g>
     <g id="line2d_28">
      <g>
       <use xlink:href="#mfd91eb2676" x="43.61375" y="109.960823" style="stroke: #000000; stroke-width: 0.8"/>
      </g>
     </g>
     <g id="text_15">
      <!-- 14 -->
      <g transform="translate(25.491875 113.53973) scale(0.1 -0.1)">
       <defs>
        <path id="ArialUnicodeMS-34" d="M 3263 1094 
L 2644 1094 
L 2644 0 
L 2081 0 
L 2081 1094 
L 97 1094 
L 97 1613 
L 2181 4581 
L 2644 4581 
L 2644 1613 
L 3263 1613 
L 3263 1094 
z
M 2081 1613 
L 2081 3681 
L 2069 3681 
L 647 1613 
L 2081 1613 
z
" transform="scale(0.015625)"/>
       </defs>
       <use xlink:href="#ArialUnicodeMS-31"/>
       <use xlink:href="#ArialUnicodeMS-34" transform="translate(55.615234 0)"/>
      </g>
     </g>
    </g>
    <g id="ytick_8">
     <g id="line2d_29">
      <path d="M 43.61375 75.906508 
L 705.956473 75.906508 
" clip-path="url(#pf5837dccf2)" style="fill: none; stroke: #b0b0b0; stroke-width: 0.8; stroke-linecap: square"/>
     </g>
     <g id="line2d_30">
      <g>
       <use xlink:href="#mfd91eb2676" x="43.61375" y="75.906508" style="stroke: #000000; stroke-width: 0.8"/>
      </g>
     </g>
     <g id="text_16">
      <!-- 15 -->
      <g transform="translate(25.491875 79.485414) scale(0.1 -0.1)">
       <use xlink:href="#ArialUnicodeMS-31"/>
       <use xlink:href="#ArialUnicodeMS-35" transform="translate(55.615234 0)"/>
      </g>
     </g>
    </g>
    <g id="ytick_9">
     <g id="line2d_31">
      <path d="M 43.61375 41.852192 
L 705.956473 41.852192 
" clip-path="url(#pf5837dccf2)" style="fill: none; stroke: #b0b0b0; stroke-width: 0.8; stroke-linecap: square"/>
     </g>
     <g id="line2d_32">
      <g>
       <use xlink:href="#mfd91eb2676" x="43.61375" y="41.852192" style="stroke: #000000; stroke-width: 0.8"/>
      </g>
     </g>
     <g id="text_17">
      <!-- 16 -->
      <g transform="translate(25.491875 45.431099) scale(0.1 -0.1)">
       <defs>
        <path id="ArialUnicodeMS-36" d="M 838 2363 
Q 1225 2969 1941 2969 
Q 2503 2969 2897 2553 
Q 3291 2138 3291 1491 
Q 3291 838 2898 380 
Q 2506 -78 1856 -78 
Q 1197 -78 733 409 
Q 269 897 269 2144 
Q 269 3369 689 3986 
Q 1109 4603 1906 4603 
Q 2422 4603 2778 4315 
Q 3134 4028 3213 3463 
L 2650 3413 
Q 2497 4141 1875 4141 
Q 1444 4141 1134 3712 
Q 825 3284 825 2363 
L 838 2363 
z
M 1844 384 
Q 2231 384 2472 696 
Q 2713 1009 2713 1453 
Q 2713 1897 2472 2187 
Q 2231 2478 1825 2478 
Q 1453 2478 1184 2204 
Q 916 1931 916 1484 
Q 916 1028 1180 706 
Q 1444 384 1844 384 
z
" transform="scale(0.015625)"/>
       </defs>
       <use xlink:href="#ArialUnicodeMS-31"/>
       <use xlink:href="#ArialUnicodeMS-36" transform="translate(55.615234 0)"/>
      </g>
     </g>
    </g>
    <g id="text_18">
     <!-- 平均价格（美元） -->
     <g transform="translate(19.391875 213.199687) rotate(-90) scale(0.1 -0.1)">
      <defs>
       <path id="ArialUnicodeMS-5e73" d="M 5888 1875 
L 3419 1875 
L 3419 -447 
L 2931 -447 
L 2931 1875 
L 453 1875 
L 453 2344 
L 2931 2344 
L 2931 4569 
L 856 4569 
L 856 5038 
L 5453 5038 
L 5453 4569 
L 3419 4569 
L 3419 2344 
L 5888 2344 
L 5888 1875 
z
M 5241 4197 
Q 4981 3381 4134 2522 
L 3700 2803 
Q 4584 3606 4819 4422 
L 5241 4197 
z
M 2528 2753 
L 2081 2509 
Q 1700 3606 953 4153 
L 1428 4384 
Q 2109 3784 2528 2753 
z
" transform="scale(0.015625)"/>
       <path id="ArialUnicodeMS-5747" d="M 5797 4459 
Q 5772 1716 5730 978 
Q 5688 241 5458 -81 
Q 5228 -403 4744 -403 
Q 4606 -403 4006 -306 
L 3847 250 
Q 4413 128 4788 128 
Q 5022 128 5133 340 
Q 5244 553 5283 1968 
Q 5322 3384 5306 3994 
L 3347 3994 
Q 3056 3181 2559 2650 
L 2156 2944 
Q 2253 3025 2344 3128 
L 1728 3128 
L 1728 1441 
L 2541 1766 
L 2541 1259 
L 641 538 
L 319 978 
L 1241 1288 
L 1241 3128 
L 488 3128 
L 488 3597 
L 1241 3597 
L 1241 5100 
L 1728 5100 
L 1728 3597 
L 2413 3597 
L 2413 3231 
Q 3006 4097 3194 5319 
L 3675 5166 
Q 3572 4644 3494 4459 
L 5797 4459 
z
M 4813 2566 
L 2888 2566 
L 2888 3041 
L 4813 3041 
L 4813 2566 
z
M 4959 1900 
L 4959 1409 
Q 4266 1156 2706 709 
L 2431 1153 
Q 4391 1697 4959 1900 
z
" transform="scale(0.015625)"/>
       <path id="ArialUnicodeMS-4ef7" d="M 6284 2975 
L 5900 2572 
Q 4847 3084 3928 4519 
Q 3178 3188 2041 2584 
L 1697 2981 
Q 3113 3628 3859 5422 
L 4281 5184 
L 4206 4997 
Q 5038 3547 6284 2975 
z
M 2241 5172 
Q 2156 4775 1913 4147 
L 1672 3531 
L 1672 -428 
L 1184 -428 
L 1184 2663 
Q 1113 2534 659 2041 
L 213 2322 
Q 1372 3522 1784 5344 
L 2241 5172 
z
M 4984 -409 
L 4500 -409 
L 4500 3116 
L 4984 3116 
L 4984 -409 
z
M 3397 1791 
Q 3397 1034 3097 531 
Q 2797 28 2059 -475 
L 1697 -72 
Q 2209 191 2561 647 
Q 2913 1103 2913 1528 
L 2913 3116 
L 3397 3116 
L 3397 1791 
z
" transform="scale(0.015625)"/>
       <path id="ArialUnicodeMS-683c" d="M 6194 2175 
L 5906 1772 
Q 4913 2122 4178 2719 
Q 3678 2294 2472 1747 
L 2169 2150 
Q 3034 2441 3847 3066 
Q 3747 3188 3397 3756 
Q 3081 3256 2822 2988 
L 2406 3263 
Q 3166 4016 3475 5344 
L 3944 5203 
Q 3931 5103 3803 4684 
L 5484 4684 
Q 5234 3734 4525 3034 
Q 5213 2463 6194 2175 
z
M 4819 4219 
L 3694 4219 
Q 3897 3769 4213 3378 
Q 4550 3747 4819 4219 
z
M 2784 2547 
L 2388 2266 
Q 2122 2697 1900 2834 
L 1900 -416 
L 1416 -416 
L 1416 2047 
Q 1069 1388 678 941 
L 281 1247 
Q 1191 2294 1363 3572 
L 513 3572 
L 513 4038 
L 1394 4038 
L 1394 5288 
L 1900 5288 
L 1900 4038 
L 2547 4038 
L 2547 3572 
L 1900 3572 
L 1900 3238 
L 1966 3316 
Q 2469 3016 2784 2547 
z
M 5350 -397 
L 4863 -397 
L 4863 -38 
L 3488 -38 
L 3488 -416 
L 3003 -416 
L 3003 1978 
L 5350 1978 
L 5350 -397 
z
M 4863 428 
L 4863 1509 
L 3488 1509 
L 3488 428 
L 4863 428 
z
" transform="scale(0.015625)"/>
       <path id="ArialUnicodeMS-ff08" d="M 3964 -1344 
L 3561 -1344 
Q 3042 -681 2745 103 
Q 2448 888 2448 1656 
Q 2448 2528 2764 3275 
Q 3080 4022 3561 4659 
L 3964 4659 
Q 3408 3747 3219 3059 
Q 3030 2372 3030 1663 
Q 3030 153 3964 -1344 
z
" transform="scale(0.015625)"/>
       <path id="ArialUnicodeMS-7f8e" d="M 5972 2209 
L 475 2209 
L 475 2675 
L 2950 2675 
L 2950 3219 
L 1281 3219 
L 1281 3688 
L 2950 3688 
L 2950 4153 
L 844 4153 
L 844 4622 
L 2188 4622 
Q 1956 4941 1619 5141 
L 2053 5381 
Q 2441 5166 2784 4622 
L 3616 4622 
Q 4103 5041 4347 5409 
L 4769 5094 
Q 4534 4769 4306 4634 
L 4306 4622 
L 5581 4622 
L 5581 4153 
L 3475 4153 
L 3475 3688 
L 5159 3688 
L 5159 3219 
L 3475 3219 
L 3475 2675 
L 5972 2675 
L 5972 2209 
z
M 6113 56 
L 5813 -391 
Q 3891 -44 3244 1222 
L 3219 1222 
Q 3034 638 2270 191 
Q 1506 -256 550 -372 
L 288 84 
Q 1106 166 1786 481 
Q 2466 797 2688 1234 
L 769 1234 
L 769 1703 
L 2853 1703 
Q 2906 1909 2906 2175 
L 3406 2088 
Q 3394 1859 3353 1703 
L 5650 1703 
L 5650 1234 
L 3763 1234 
Q 4378 356 6113 56 
z
" transform="scale(0.015625)"/>
       <path id="ArialUnicodeMS-5143" d="M 5141 4422 
L 1394 4422 
L 1394 4909 
L 5141 4909 
L 5141 4422 
z
M 6009 1166 
Q 5822 -122 5203 -122 
L 4306 -122 
Q 3653 -122 3653 691 
L 3653 2847 
L 2834 2847 
Q 2850 1688 2378 917 
Q 1906 147 838 -428 
L 488 56 
Q 1469 550 1892 1181 
Q 2316 1813 2316 2847 
L 850 2847 
L 850 3334 
L 5672 3334 
L 5672 2847 
L 4159 2847 
L 4159 622 
Q 4159 366 4403 366 
L 5159 366 
Q 5241 366 5308 497 
Q 5375 628 5516 1325 
L 6009 1166 
z
" transform="scale(0.015625)"/>
       <path id="ArialUnicodeMS-ff09" d="M 2850 4659 
Q 3369 3997 3666 3212 
Q 3963 2428 3963 1656 
Q 3963 788 3647 41 
Q 3332 -706 2850 -1344 
L 2447 -1344 
Q 3004 -431 3193 255 
Q 3382 941 3382 1650 
Q 3382 3163 2447 4659 
L 2850 4659 
z
" transform="scale(0.015625)"/>
      </defs>
      <use xlink:href="#ArialUnicodeMS-5e73"/>
      <use xlink:href="#ArialUnicodeMS-5747" transform="translate(100 0)"/>
      <use xlink:href="#ArialUnicodeMS-4ef7" transform="translate(200 0)"/>
      <use xlink:href="#ArialUnicodeMS-683c" transform="translate(300 0)"/>
      <use xlink:href="#ArialUnicodeMS-ff08" transform="translate(400 0)"/>
      <use xlink:href="#ArialUnicodeMS-7f8e" transform="translate(500 0)"/>
      <use xlink:href="#ArialUnicodeMS-5143" transform="translate(600 0)"/>
      <use xlink:href="#ArialUnicodeMS-ff09" transform="translate(700 0)"/>
     </g>
    </g>
   </g>
   <g id="line2d_33">
    <path d="M 73.720237 159.135255 
L 94.483332 84.862793 
L 115.246427 84.317924 
L 136.009522 211.749173 
L 156.772617 196.901491 
L 177.535711 40.217585 
L 198.298806 188.660347 
L 219.061901 306.18179 
L 239.824996 237.153692 
L 260.58809 239.809929 
L 281.351185 179.77217 
L 302.11428 289.597338 
L 322.877375 132.947487 
L 343.64047 219.581665 
L 364.403564 75.191367 
L 385.166659 147.011919 
L 405.929754 88.949311 
L 426.692849 201.192335 
L 447.455943 224.144944 
L 468.219038 238.515865 
L 488.982133 199.455565 
L 509.745228 244.611587 
L 530.508322 284.352973 
L 551.271417 231.943382 
L 572.034512 252.614351 
L 592.797607 206.777243 
L 613.560702 305.568812 
L 634.323796 269.641509 
L 655.086891 135.229126 
L 675.849986 164.822326 
" clip-path="url(#pf5837dccf2)" style="fill: none; stroke: #1f77b4; stroke-width: 1.5; stroke-linecap: square"/>
    <defs>
     <path id="m69eaa98663" d="M 0 3 
C 0.795609 3 1.55874 2.683901 2.12132 2.12132 
C 2.683901 1.55874 3 0.795609 3 0 
C 3 -0.795609 2.683901 -1.55874 2.12132 -2.12132 
C 1.55874 -2.683901 0.795609 -3 0 -3 
C -0.795609 -3 -1.55874 -2.683901 -2.12132 -2.12132 
C -2.683901 -1.55874 -3 -0.795609 -3 0 
C -3 0.795609 -2.683901 1.55874 -2.12132 2.12132 
C -1.55874 2.683901 -0.795609 3 0 3 
z
" style="stroke: #1f77b4"/>
    </defs>
    <g clip-path="url(#pf5837dccf2)">
     <use xlink:href="#m69eaa98663" x="73.720237" y="159.135255" style="fill: #1f77b4; stroke: #1f77b4"/>
     <use xlink:href="#m69eaa98663" x="94.483332" y="84.862793" style="fill: #1f77b4; stroke: #1f77b4"/>
     <use xlink:href="#m69eaa98663" x="115.246427" y="84.317924" style="fill: #1f77b4; stroke: #1f77b4"/>
     <use xlink:href="#m69eaa98663" x="136.009522" y="211.749173" style="fill: #1f77b4; stroke: #1f77b4"/>
     <use xlink:href="#m69eaa98663" x="156.772617" y="196.901491" style="fill: #1f77b4; stroke: #1f77b4"/>
     <use xlink:href="#m69eaa98663" x="177.535711" y="40.217585" style="fill: #1f77b4; stroke: #1f77b4"/>
     <use xlink:href="#m69eaa98663" x="198.298806" y="188.660347" style="fill: #1f77b4; stroke: #1f77b4"/>
     <use xlink:href="#m69eaa98663" x="219.061901" y="306.18179" style="fill: #1f77b4; stroke: #1f77b4"/>
     <use xlink:href="#m69eaa98663" x="239.824996" y="237.153692" style="fill: #1f77b4; stroke: #1f77b4"/>
     <use xlink:href="#m69eaa98663" x="260.58809" y="239.809929" style="fill: #1f77b4; stroke: #1f77b4"/>
     <use xlink:href="#m69eaa98663" x="281.351185" y="179.77217" style="fill: #1f77b4; stroke: #1f77b4"/>
     <use xlink:href="#m69eaa98663" x="302.11428" y="289.597338" style="fill: #1f77b4; stroke: #1f77b4"/>
     <use xlink:href="#m69eaa98663" x="322.877375" y="132.947487" style="fill: #1f77b4; stroke: #1f77b4"/>
     <use xlink:href="#m69eaa98663" x="343.64047" y="219.581665" style="fill: #1f77b4; stroke: #1f77b4"/>
     <use xlink:href="#m69eaa98663" x="364.403564" y="75.191367" style="fill: #1f77b4; stroke: #1f77b4"/>
     <use xlink:href="#m69eaa98663" x="385.166659" y="147.011919" style="fill: #1f77b4; stroke: #1f77b4"/>
     <use xlink:href="#m69eaa98663" x="405.929754" y="88.949311" style="fill: #1f77b4; stroke: #1f77b4"/>
     <use xlink:href="#m69eaa98663" x="426.692849" y="201.192335" style="fill: #1f77b4; stroke: #1f77b4"/>
     <use xlink:href="#m69eaa98663" x="447.455943" y="224.144944" style="fill: #1f77b4; stroke: #1f77b4"/>
     <use xlink:href="#m69eaa98663" x="468.219038" y="238.515865" style="fill: #1f77b4; stroke: #1f77b4"/>
     <use xlink:href="#m69eaa98663" x="488.982133" y="199.455565" style="fill: #1f77b4; stroke: #1f77b4"/>
     <use xlink:href="#m69eaa98663" x="509.745228" y="244.611587" style="fill: #1f77b4; stroke: #1f77b4"/>
     <use xlink:href="#m69eaa98663" x="530.508322" y="284.352973" style="fill: #1f77b4; stroke: #1f77b4"/>
     <use xlink:href="#m69eaa98663" x="551.271417" y="231.943382" style="fill: #1f77b4; stroke: #1f77b4"/>
     <use xlink:href="#m69eaa98663" x="572.034512" y="252.614351" style="fill: #1f77b4; stroke: #1f77b4"/>
     <use xlink:href="#m69eaa98663" x="592.797607" y="206.777243" style="fill: #1f77b4; stroke: #1f77b4"/>
     <use xlink:href="#m69eaa98663" x="613.560702" y="305.568812" style="fill: #1f77b4; stroke: #1f77b4"/>
     <use xlink:href="#m69eaa98663" x="634.323796" y="269.641509" style="fill: #1f77b4; stroke: #1f77b4"/>
     <use xlink:href="#m69eaa98663" x="655.086891" y="135.229126" style="fill: #1f77b4; stroke: #1f77b4"/>
     <use xlink:href="#m69eaa98663" x="675.849986" y="164.822326" style="fill: #1f77b4; stroke: #1f77b4"/>
    </g>
   </g>
   <g id="patch_3">
    <path d="M 43.61375 319.48 
L 43.61375 26.919375 
" style="fill: none; stroke: #000000; stroke-width: 0.8; stroke-linejoin: miter; stroke-linecap: square"/>
   </g>
   <g id="patch_4">
    <path d="M 705.956473 319.48 
L 705.956473 26.919375 
" style="fill: none; stroke: #000000; stroke-width: 0.8; stroke-linejoin: miter; stroke-linecap: square"/>
   </g>
   <g id="patch_5">
    <path d="M 43.61375 319.48 
L 705.956473 319.48 
" style="fill: none; stroke: #000000; stroke-width: 0.8; stroke-linejoin: miter; stroke-linecap: square"/>
   </g>
   <g id="patch_6">
    <path d="M 43.61375 26.919375 
L 705.956473 26.919375 
" style="fill: none; stroke: #000000; stroke-width: 0.8; stroke-linejoin: miter; stroke-linecap: square"/>
   </g>
   <g id="text_19">
    <!-- 平均畅销书价格（1995–2024） -->
    <g transform="translate(291.092612 20.919375) scale(0.12 -0.12)">
     <defs>
      <path id="ArialUnicodeMS-7545" d="M 2706 1403 
L 2241 1403 
L 2253 1684 
L 1888 1684 
L 1888 -359 
L 1403 -359 
L 1403 1684 
L 1031 1684 
L 1031 1403 
L 575 1403 
L 575 4319 
L 1403 4319 
L 1403 5313 
L 1888 5313 
L 1888 4319 
L 2706 4319 
L 2706 1403 
z
M 2253 3284 
L 2253 3853 
L 1888 3853 
L 1888 3284 
L 2253 3284 
z
M 1403 3284 
L 1403 3853 
L 1031 3853 
L 1031 3284 
L 1403 3284 
z
M 2253 2150 
L 2253 2816 
L 1888 2816 
L 1888 2150 
L 2253 2150 
z
M 1403 2150 
L 1403 2816 
L 1031 2816 
L 1031 2150 
L 1403 2150 
z
M 5691 3116 
Q 5669 2406 5555 1348 
Q 5441 291 5319 -21 
Q 5197 -334 4875 -334 
Q 4631 -334 4091 -238 
L 4019 288 
L 4647 109 
Q 4684 97 4722 97 
Q 4828 97 4881 189 
Q 4934 281 5023 943 
Q 5113 1606 5178 2650 
L 4863 2650 
Q 4709 1638 4264 923 
Q 3819 209 2906 -359 
L 2553 6 
Q 4194 959 4397 2650 
L 3975 2650 
Q 3769 1194 2456 341 
L 2113 697 
Q 3372 1469 3513 2650 
L 2869 2650 
L 2869 3103 
Q 3391 3525 4469 4494 
L 2700 4494 
L 2700 4934 
L 5253 4934 
L 5253 4531 
L 3603 3116 
L 5691 3116 
z
" transform="scale(0.015625)"/>
      <path id="ArialUnicodeMS-9500" d="M 5663 231 
Q 5663 0 5491 -162 
Q 5319 -325 5063 -325 
L 4494 -325 
L 4331 184 
Q 4784 153 4928 153 
Q 5178 153 5178 359 
L 5178 922 
L 3444 922 
L 3444 -441 
L 2956 -441 
L 2956 3425 
L 4056 3425 
L 4056 5319 
L 4544 5319 
L 4544 3425 
L 5663 3425 
L 5663 231 
z
M 5178 2419 
L 5178 2956 
L 3444 2956 
L 3444 2419 
L 5178 2419 
z
M 5178 1388 
L 5178 1953 
L 3444 1953 
L 3444 1388 
L 5178 1388 
z
M 2791 4063 
L 1516 4063 
Q 1413 3750 1269 3488 
L 2706 3488 
L 2706 3022 
L 1919 3022 
L 1919 2363 
L 2784 2363 
L 2784 1894 
L 1919 1894 
L 1919 525 
L 2784 953 
L 2784 428 
L 1600 -178 
L 1338 244 
Q 1428 344 1428 447 
L 1428 1894 
L 494 1894 
L 494 2363 
L 1428 2363 
L 1428 3022 
L 1006 3022 
Q 850 2781 641 2559 
L 250 2859 
Q 1084 3791 1350 5313 
L 1806 5166 
Q 1763 4909 1656 4531 
L 2791 4531 
L 2791 4063 
z
M 5906 4825 
Q 5628 4081 5075 3584 
L 4678 3891 
Q 5219 4325 5544 5106 
L 5906 4825 
z
M 3866 3816 
L 3425 3572 
Q 3259 4200 2638 4825 
L 3066 5044 
Q 3641 4484 3866 3816 
z
" transform="scale(0.015625)"/>
      <path id="ArialUnicodeMS-4e66" d="M 5722 2553 
L 5663 1497 
Q 5628 747 5561 609 
Q 5494 472 5364 389 
Q 5234 306 4975 306 
Q 4806 306 4494 341 
L 4372 806 
L 4997 756 
Q 5059 750 5084 792 
Q 5109 834 5154 1137 
Q 5200 1441 5228 2088 
L 3175 2088 
L 3175 -453 
L 2688 -453 
L 2688 2088 
L 384 2088 
L 384 2553 
L 2688 2553 
L 2688 3669 
L 997 3669 
L 997 4134 
L 2688 4134 
L 2688 5241 
L 3175 5241 
L 3175 4134 
L 4763 4134 
Q 4756 3425 4634 2553 
L 5722 2553 
z
M 4219 3669 
L 3175 3669 
L 3175 2553 
L 4122 2553 
Q 4181 3016 4219 3669 
z
M 5509 4091 
L 5113 3809 
Q 4825 4334 4256 4722 
L 4622 5013 
Q 5188 4619 5509 4091 
z
" transform="scale(0.015625)"/>
      <path id="ArialUnicodeMS-2013" d="M 3238 1428 
L -38 1428 
L -38 1888 
L 3238 1888 
L 3238 1428 
z
" transform="scale(0.015625)"/>
     </defs>
     <use xlink:href="#ArialUnicodeMS-5e73"/>
     <use xlink:href="#ArialUnicodeMS-5747" transform="translate(100 0)"/>
     <use xlink:href="#ArialUnicodeMS-7545" transform="translate(200 0)"/>
     <use xlink:href="#ArialUnicodeMS-9500" transform="translate(300 0)"/>
     <use xlink:href="#ArialUnicodeMS-4e66" transform="translate(400 0)"/>
     <use xlink:href="#ArialUnicodeMS-4ef7" transform="translate(500 0)"/>
     <use xlink:href="#ArialUnicodeMS-683c" transform="translate(600 0)"/>
     <use xlink:href="#ArialUnicodeMS-ff08" transform="translate(700 0)"/>
     <use xlink:href="#ArialUnicodeMS-31" transform="translate(800 0)"/>
     <use xlink:href="#ArialUnicodeMS-39" transform="translate(855.615234 0)"/>
     <use xlink:href="#ArialUnicodeMS-39" transform="translate(911.230469 0)"/>
     <use xlink:href="#ArialUnicodeMS-35" transform="translate(966.845703 0)"/>
     <use xlink:href="#ArialUnicodeMS-2013" transform="translate(1022.460938 0)"/>
     <use xlink:href="#ArialUnicodeMS-32" transform="translate(1072.460938 0)"/>
     <use xlink:href="#ArialUnicodeMS-30" transform="translate(1128.076172 0)"/>
     <use xlink:href="#ArialUnicodeMS-32" transform="translate(1183.691406 0)"/>
     <use xlink:href="#ArialUnicodeMS-34" transform="translate(1239.306641 0)"/>
     <use xlink:href="#ArialUnicodeMS-ff09" transform="translate(1294.921875 0)"/>
    </g>
   </g>
  </g>
 </g>
 <defs>
  <clipPath id="pf5837dccf2">
   <rect x="43.61375" y="26.919375" width="662.342723" height="292.560625"/>
  </clipPath>
 </defs>
</svg>
