<?xml version="1.0" encoding="utf-8" standalone="no"?>
<!DOCTYPE svg PUBLIC "-//W3C//DTD SVG 1.1//EN"
  "http://www.w3.org/Graphics/SVG/1.1/DTD/svg11.dtd">
<svg xmlns:xlink="http://www.w3.org/1999/xlink" width="720pt" height="360pt" viewBox="0 0 720 360" xmlns="http://www.w3.org/2000/svg" version="1.1">
 <metadata>
  <rdf:RDF xmlns:dc="http://purl.org/dc/elements/1.1/" xmlns:cc="http://creativecommons.org/ns#" xmlns:rdf="http://www.w3.org/1999/02/22-rdf-syntax-ns#">
   <cc:Work>
    <dc:type rdf:resource="http://purl.org/dc/dcmitype/StillImage"/>
    <dc:date>2025-05-27T13:03:11.595076</dc:date>
    <dc:format>image/svg+xml</dc:format>
    <dc:creator>
     <cc:Agent>
      <dc:title>Matplotlib v3.10.3, https://matplotlib.org/</dc:title>
     </cc:Agent>
    </dc:creator>
   </cc:Work>
  </rdf:RDF>
 </metadata>
 <defs>
  <style type="text/css">*{stroke-linejoin: round; stroke-linecap: butt}</style>
 </defs>
 <g id="figure_1">
  <g id="patch_1">
   <path d="M 0 360 
L 720 360 
L 720 0 
L 0 0 
z
" style="fill: #ffffff"/>
  </g>
  <g id="axes_1">
   <g id="patch_2">
    <path d="M 46.33625 319.48 
L 705.956473 319.48 
L 705.956473 26.739375 
L 46.33625 26.739375 
z
" style="fill: #ffffff"/>
   </g>
   <g id="matplotlib.axis_1">
    <g id="xtick_1">
     <g id="line2d_1">
      <path d="M 76.318987 319.48 
L 76.318987 26.739375 
" clip-path="url(#p85200450ca)" style="fill: none; stroke: #b0b0b0; stroke-width: 0.8; stroke-linecap: square"/>
     </g>
     <g id="line2d_2">
      <defs>
       <path id="m010e992be6" d="M 0 0 
L 0 3.5 
" style="stroke: #000000; stroke-width: 0.8"/>
      </defs>
      <g>
       <use xlink:href="#m010e992be6" x="76.318987" y="319.48" style="stroke: #000000; stroke-width: 0.8"/>
      </g>
     </g>
     <g id="text_1">
      <!-- 1995 -->
      <g transform="translate(65.197112 333.637812) scale(0.1 -0.1)">
       <defs>
        <path id="ArialUnicodeMS-31" d="M 2400 0 
L 1838 0 
L 1838 3584 
Q 1416 3184 709 2906 
L 709 3450 
Q 1681 3916 2034 4603 
L 2400 4603 
L 2400 0 
z
" transform="scale(0.015625)"/>
        <path id="ArialUnicodeMS-39" d="M 2713 2156 
Q 2547 1888 2258 1722 
Q 1969 1556 1631 1556 
Q 1066 1556 670 1970 
Q 275 2384 275 3053 
Q 275 3734 678 4168 
Q 1081 4603 1716 4603 
Q 2353 4603 2818 4106 
Q 3284 3609 3284 2388 
Q 3284 1147 2859 534 
Q 2434 -78 1644 -78 
Q 1128 -78 781 205 
Q 434 488 359 1063 
L 897 1106 
Q 1025 384 1656 384 
Q 2175 384 2450 857 
Q 2725 1331 2725 2156 
L 2713 2156 
z
M 1766 2047 
Q 2178 2047 2420 2339 
Q 2663 2631 2663 3078 
Q 2663 3531 2414 3836 
Q 2166 4141 1778 4141 
Q 1388 4141 1119 3817 
Q 850 3494 850 3034 
Q 850 2600 1114 2323 
Q 1378 2047 1766 2047 
z
" transform="scale(0.015625)"/>
        <path id="ArialUnicodeMS-35" d="M 1013 2753 
Q 1431 3041 1881 3041 
Q 2453 3041 2878 2636 
Q 3303 2231 3303 1556 
Q 3303 875 2872 398 
Q 2441 -78 1741 -78 
Q 1169 -78 750 245 
Q 331 569 269 1203 
L 856 1247 
Q 928 813 1162 598 
Q 1397 384 1741 384 
Q 2169 384 2434 707 
Q 2700 1031 2700 1503 
Q 2700 1984 2428 2262 
Q 2156 2541 1728 2541 
Q 1188 2541 897 2100 
L 366 2163 
L 813 4519 
L 3084 4519 
L 3084 3975 
L 1259 3975 
L 1013 2753 
z
" transform="scale(0.015625)"/>
       </defs>
       <use xlink:href="#ArialUnicodeMS-31"/>
       <use xlink:href="#ArialUnicodeMS-39" transform="translate(55.615234 0)"/>
       <use xlink:href="#ArialUnicodeMS-39" transform="translate(111.230469 0)"/>
       <use xlink:href="#ArialUnicodeMS-35" transform="translate(166.845703 0)"/>
      </g>
     </g>
    </g>
    <g id="xtick_2">
     <g id="line2d_3">
      <path d="M 179.707737 319.48 
L 179.707737 26.739375 
" clip-path="url(#p85200450ca)" style="fill: none; stroke: #b0b0b0; stroke-width: 0.8; stroke-linecap: square"/>
     </g>
     <g id="line2d_4">
      <g>
       <use xlink:href="#m010e992be6" x="179.707737" y="319.48" style="stroke: #000000; stroke-width: 0.8"/>
      </g>
     </g>
     <g id="text_2">
      <!-- 2000 -->
      <g transform="translate(168.585862 333.637812) scale(0.1 -0.1)">
       <defs>
        <path id="ArialUnicodeMS-32" d="M 3231 0 
L 197 0 
Q 197 388 467 784 
Q 738 1181 1478 1778 
Q 1931 2141 2287 2539 
Q 2644 2938 2644 3341 
Q 2644 3688 2398 3914 
Q 2153 4141 1778 4141 
Q 1400 4141 1144 3908 
Q 888 3675 884 3213 
L 306 3278 
Q 359 3922 764 4262 
Q 1169 4603 1791 4603 
Q 2466 4603 2842 4229 
Q 3219 3856 3219 3328 
Q 3219 2888 2901 2436 
Q 2584 1984 1638 1228 
Q 1141 831 978 544 
L 3231 544 
L 3231 0 
z
" transform="scale(0.015625)"/>
        <path id="ArialUnicodeMS-30" d="M 1778 4603 
Q 3272 4603 3272 2259 
Q 3272 1075 2886 498 
Q 2500 -78 1778 -78 
Q 288 -78 288 2259 
Q 288 3444 673 4023 
Q 1059 4603 1778 4603 
z
M 1778 384 
Q 2231 384 2462 823 
Q 2694 1263 2694 2259 
Q 2694 2953 2592 3351 
Q 2491 3750 2286 3945 
Q 2081 4141 1772 4141 
Q 1319 4141 1091 3694 
Q 863 3247 863 2259 
Q 863 1575 966 1175 
Q 1069 775 1272 579 
Q 1475 384 1778 384 
z
" transform="scale(0.015625)"/>
       </defs>
       <use xlink:href="#ArialUnicodeMS-32"/>
       <use xlink:href="#ArialUnicodeMS-30" transform="translate(55.615234 0)"/>
       <use xlink:href="#ArialUnicodeMS-30" transform="translate(111.230469 0)"/>
       <use xlink:href="#ArialUnicodeMS-30" transform="translate(166.845703 0)"/>
      </g>
     </g>
    </g>
    <g id="xtick_3">
     <g id="line2d_5">
      <path d="M 283.096487 319.48 
L 283.096487 26.739375 
" clip-path="url(#p85200450ca)" style="fill: none; stroke: #b0b0b0; stroke-width: 0.8; stroke-linecap: square"/>
     </g>
     <g id="line2d_6">
      <g>
       <use xlink:href="#m010e992be6" x="283.096487" y="319.48" style="stroke: #000000; stroke-width: 0.8"/>
      </g>
     </g>
     <g id="text_3">
      <!-- 2005 -->
      <g transform="translate(271.974612 333.637812) scale(0.1 -0.1)">
       <use xlink:href="#ArialUnicodeMS-32"/>
       <use xlink:href="#ArialUnicodeMS-30" transform="translate(55.615234 0)"/>
       <use xlink:href="#ArialUnicodeMS-30" transform="translate(111.230469 0)"/>
       <use xlink:href="#ArialUnicodeMS-35" transform="translate(166.845703 0)"/>
      </g>
     </g>
    </g>
    <g id="xtick_4">
     <g id="line2d_7">
      <path d="M 386.485237 319.48 
L 386.485237 26.739375 
" clip-path="url(#p85200450ca)" style="fill: none; stroke: #b0b0b0; stroke-width: 0.8; stroke-linecap: square"/>
     </g>
     <g id="line2d_8">
      <g>
       <use xlink:href="#m010e992be6" x="386.485237" y="319.48" style="stroke: #000000; stroke-width: 0.8"/>
      </g>
     </g>
     <g id="text_4">
      <!-- 2010 -->
      <g transform="translate(375.363362 333.637812) scale(0.1 -0.1)">
       <use xlink:href="#ArialUnicodeMS-32"/>
       <use xlink:href="#ArialUnicodeMS-30" transform="translate(55.615234 0)"/>
       <use xlink:href="#ArialUnicodeMS-31" transform="translate(111.230469 0)"/>
       <use xlink:href="#ArialUnicodeMS-30" transform="translate(166.845703 0)"/>
      </g>
     </g>
    </g>
    <g id="xtick_5">
     <g id="line2d_9">
      <path d="M 489.873986 319.48 
L 489.873986 26.739375 
" clip-path="url(#p85200450ca)" style="fill: none; stroke: #b0b0b0; stroke-width: 0.8; stroke-linecap: square"/>
     </g>
     <g id="line2d_10">
      <g>
       <use xlink:href="#m010e992be6" x="489.873986" y="319.48" style="stroke: #000000; stroke-width: 0.8"/>
      </g>
     </g>
     <g id="text_5">
      <!-- 2015 -->
      <g transform="translate(478.752111 333.637812) scale(0.1 -0.1)">
       <use xlink:href="#ArialUnicodeMS-32"/>
       <use xlink:href="#ArialUnicodeMS-30" transform="translate(55.615234 0)"/>
       <use xlink:href="#ArialUnicodeMS-31" transform="translate(111.230469 0)"/>
       <use xlink:href="#ArialUnicodeMS-35" transform="translate(166.845703 0)"/>
      </g>
     </g>
    </g>
    <g id="xtick_6">
     <g id="line2d_11">
      <path d="M 593.262736 319.48 
L 593.262736 26.739375 
" clip-path="url(#p85200450ca)" style="fill: none; stroke: #b0b0b0; stroke-width: 0.8; stroke-linecap: square"/>
     </g>
     <g id="line2d_12">
      <g>
       <use xlink:href="#m010e992be6" x="593.262736" y="319.48" style="stroke: #000000; stroke-width: 0.8"/>
      </g>
     </g>
     <g id="text_6">
      <!-- 2020 -->
      <g transform="translate(582.140861 333.637812) scale(0.1 -0.1)">
       <use xlink:href="#ArialUnicodeMS-32"/>
       <use xlink:href="#ArialUnicodeMS-30" transform="translate(55.615234 0)"/>
       <use xlink:href="#ArialUnicodeMS-32" transform="translate(111.230469 0)"/>
       <use xlink:href="#ArialUnicodeMS-30" transform="translate(166.845703 0)"/>
      </g>
     </g>
    </g>
    <g id="xtick_7">
     <g id="line2d_13">
      <path d="M 696.651486 319.48 
L 696.651486 26.739375 
" clip-path="url(#p85200450ca)" style="fill: none; stroke: #b0b0b0; stroke-width: 0.8; stroke-linecap: square"/>
     </g>
     <g id="line2d_14">
      <g>
       <use xlink:href="#m010e992be6" x="696.651486" y="319.48" style="stroke: #000000; stroke-width: 0.8"/>
      </g>
     </g>
     <g id="text_7">
      <!-- 2025 -->
      <g transform="translate(685.529611 333.637812) scale(0.1 -0.1)">
       <use xlink:href="#ArialUnicodeMS-32"/>
       <use xlink:href="#ArialUnicodeMS-30" transform="translate(55.615234 0)"/>
       <use xlink:href="#ArialUnicodeMS-32" transform="translate(111.230469 0)"/>
       <use xlink:href="#ArialUnicodeMS-35" transform="translate(166.845703 0)"/>
      </g>
     </g>
    </g>
    <g id="text_8">
     <!-- 年份 -->
     <g transform="translate(366.146362 346.787812) scale(0.1 -0.1)">
      <defs>
       <path id="ArialUnicodeMS-5e74" d="M 5869 1409 
L 3659 1409 
L 3659 -434 
L 3156 -434 
L 3156 1409 
L 659 1409 
L 659 1875 
L 1459 1875 
L 1459 3384 
L 3156 3384 
L 3156 4219 
L 1838 4219 
Q 1425 3363 953 2931 
L 550 3256 
Q 1381 3994 1734 5381 
L 2144 5184 
Q 2122 4997 2022 4684 
L 5606 4684 
L 5606 4219 
L 3659 4219 
L 3659 3384 
L 5294 3384 
L 5294 2919 
L 3659 2919 
L 3659 1875 
L 5869 1875 
L 5869 1409 
z
M 3156 1875 
L 3156 2919 
L 1947 2919 
L 1947 1875 
L 3156 1875 
z
" transform="scale(0.015625)"/>
       <path id="ArialUnicodeMS-4efd" d="M 6194 2875 
L 5778 2553 
Q 5528 2697 5294 2969 
Q 5269 1894 5181 1111 
Q 5094 328 4944 25 
Q 4794 -278 4372 -278 
Q 4047 -278 3609 -166 
L 3456 372 
Q 4003 178 4359 178 
Q 4475 178 4525 333 
Q 4575 488 4667 1075 
Q 4759 1663 4781 2559 
L 3916 2559 
Q 3822 219 2234 -447 
L 1888 -78 
Q 3416 516 3444 2559 
L 2625 2559 
L 2625 2975 
Q 2409 2722 2150 2484 
L 1813 2759 
L 1813 -475 
L 1325 -475 
L 1325 2816 
L 1319 2828 
Q 1319 2813 1131 2617 
Q 944 2422 738 2253 
L 319 2534 
Q 1466 3466 2009 5300 
L 2450 5094 
Q 2328 4681 2069 4116 
L 1813 3572 
L 1813 2834 
Q 2794 3716 3103 4897 
L 3475 4678 
Q 3244 3744 2669 3028 
L 5241 3028 
Q 4750 3606 4459 4494 
L 3506 4494 
L 3500 4953 
L 4825 4953 
Q 5241 3419 6194 2875 
z
" transform="scale(0.015625)"/>
      </defs>
      <use xlink:href="#ArialUnicodeMS-5e74"/>
      <use xlink:href="#ArialUnicodeMS-4efd" transform="translate(100 0)"/>
     </g>
    </g>
   </g>
   <g id="matplotlib.axis_2">
    <g id="ytick_1">
     <g id="line2d_15">
      <path d="M 46.33625 319.48 
L 705.956473 319.48 
" clip-path="url(#p85200450ca)" style="fill: none; stroke: #b0b0b0; stroke-width: 0.8; stroke-linecap: square"/>
     </g>
     <g id="line2d_16">
      <defs>
       <path id="m98d8bffcfc" d="M 0 0 
L -3.5 0 
" style="stroke: #000000; stroke-width: 0.8"/>
      </defs>
      <g>
       <use xlink:href="#m98d8bffcfc" x="46.33625" y="319.48" style="stroke: #000000; stroke-width: 0.8"/>
      </g>
     </g>
     <g id="text_9">
      <!-- 4.0 -->
      <g transform="translate(25.43625 323.058906) scale(0.1 -0.1)">
       <defs>
        <path id="ArialUnicodeMS-34" d="M 3263 1094 
L 2644 1094 
L 2644 0 
L 2081 0 
L 2081 1094 
L 97 1094 
L 97 1613 
L 2181 4581 
L 2644 4581 
L 2644 1613 
L 3263 1613 
L 3263 1094 
z
M 2081 1613 
L 2081 3681 
L 2069 3681 
L 647 1613 
L 2081 1613 
z
" transform="scale(0.015625)"/>
        <path id="ArialUnicodeMS-2e" d="M 1209 0 
L 569 0 
L 569 641 
L 1209 641 
L 1209 0 
z
" transform="scale(0.015625)"/>
       </defs>
       <use xlink:href="#ArialUnicodeMS-34"/>
       <use xlink:href="#ArialUnicodeMS-2e" transform="translate(55.615234 0)"/>
       <use xlink:href="#ArialUnicodeMS-30" transform="translate(83.398438 0)"/>
      </g>
     </g>
    </g>
    <g id="ytick_2">
     <g id="line2d_17">
      <path d="M 46.33625 266.254432 
L 705.956473 266.254432 
" clip-path="url(#p85200450ca)" style="fill: none; stroke: #b0b0b0; stroke-width: 0.8; stroke-linecap: square"/>
     </g>
     <g id="line2d_18">
      <g>
       <use xlink:href="#m98d8bffcfc" x="46.33625" y="266.254432" style="stroke: #000000; stroke-width: 0.8"/>
      </g>
     </g>
     <g id="text_10">
      <!-- 4.2 -->
      <g transform="translate(25.43625 269.833338) scale(0.1 -0.1)">
       <use xlink:href="#ArialUnicodeMS-34"/>
       <use xlink:href="#ArialUnicodeMS-2e" transform="translate(55.615234 0)"/>
       <use xlink:href="#ArialUnicodeMS-32" transform="translate(83.398438 0)"/>
      </g>
     </g>
    </g>
    <g id="ytick_3">
     <g id="line2d_19">
      <path d="M 46.33625 213.028864 
L 705.956473 213.028864 
" clip-path="url(#p85200450ca)" style="fill: none; stroke: #b0b0b0; stroke-width: 0.8; stroke-linecap: square"/>
     </g>
     <g id="line2d_20">
      <g>
       <use xlink:href="#m98d8bffcfc" x="46.33625" y="213.028864" style="stroke: #000000; stroke-width: 0.8"/>
      </g>
     </g>
     <g id="text_11">
      <!-- 4.4 -->
      <g transform="translate(25.43625 216.60777) scale(0.1 -0.1)">
       <use xlink:href="#ArialUnicodeMS-34"/>
       <use xlink:href="#ArialUnicodeMS-2e" transform="translate(55.615234 0)"/>
       <use xlink:href="#ArialUnicodeMS-34" transform="translate(83.398438 0)"/>
      </g>
     </g>
    </g>
    <g id="ytick_4">
     <g id="line2d_21">
      <path d="M 46.33625 159.803295 
L 705.956473 159.803295 
" clip-path="url(#p85200450ca)" style="fill: none; stroke: #b0b0b0; stroke-width: 0.8; stroke-linecap: square"/>
     </g>
     <g id="line2d_22">
      <g>
       <use xlink:href="#m98d8bffcfc" x="46.33625" y="159.803295" style="stroke: #000000; stroke-width: 0.8"/>
      </g>
     </g>
     <g id="text_12">
      <!-- 4.6 -->
      <g transform="translate(25.43625 163.382202) scale(0.1 -0.1)">
       <defs>
        <path id="ArialUnicodeMS-36" d="M 838 2363 
Q 1225 2969 1941 2969 
Q 2503 2969 2897 2553 
Q 3291 2138 3291 1491 
Q 3291 838 2898 380 
Q 2506 -78 1856 -78 
Q 1197 -78 733 409 
Q 269 897 269 2144 
Q 269 3369 689 3986 
Q 1109 4603 1906 4603 
Q 2422 4603 2778 4315 
Q 3134 4028 3213 3463 
L 2650 3413 
Q 2497 4141 1875 4141 
Q 1444 4141 1134 3712 
Q 825 3284 825 2363 
L 838 2363 
z
M 1844 384 
Q 2231 384 2472 696 
Q 2713 1009 2713 1453 
Q 2713 1897 2472 2187 
Q 2231 2478 1825 2478 
Q 1453 2478 1184 2204 
Q 916 1931 916 1484 
Q 916 1028 1180 706 
Q 1444 384 1844 384 
z
" transform="scale(0.015625)"/>
       </defs>
       <use xlink:href="#ArialUnicodeMS-34"/>
       <use xlink:href="#ArialUnicodeMS-2e" transform="translate(55.615234 0)"/>
       <use xlink:href="#ArialUnicodeMS-36" transform="translate(83.398438 0)"/>
      </g>
     </g>
    </g>
    <g id="ytick_5">
     <g id="line2d_23">
      <path d="M 46.33625 106.577727 
L 705.956473 106.577727 
" clip-path="url(#p85200450ca)" style="fill: none; stroke: #b0b0b0; stroke-width: 0.8; stroke-linecap: square"/>
     </g>
     <g id="line2d_24">
      <g>
       <use xlink:href="#m98d8bffcfc" x="46.33625" y="106.577727" style="stroke: #000000; stroke-width: 0.8"/>
      </g>
     </g>
     <g id="text_13">
      <!-- 4.8 -->
      <g transform="translate(25.43625 110.156634) scale(0.1 -0.1)">
       <defs>
        <path id="ArialUnicodeMS-38" d="M 2425 2478 
Q 3284 2203 3284 1306 
Q 3284 716 2862 319 
Q 2441 -78 1778 -78 
Q 1109 -78 689 322 
Q 269 722 269 1325 
Q 269 1759 505 2084 
Q 741 2409 1141 2478 
L 1141 2491 
Q 453 2703 453 3419 
Q 453 3925 815 4264 
Q 1178 4603 1766 4603 
Q 2363 4603 2730 4253 
Q 3097 3903 3097 3406 
Q 3097 2731 2425 2491 
L 2425 2478 
z
M 1778 2700 
Q 2094 2700 2308 2901 
Q 2522 3103 2522 3406 
Q 2522 3716 2305 3928 
Q 2088 4141 1772 4141 
Q 1450 4141 1240 3931 
Q 1031 3722 1031 3438 
Q 1031 3097 1247 2898 
Q 1463 2700 1778 2700 
z
M 1778 384 
Q 2175 384 2440 640 
Q 2706 897 2706 1306 
Q 2706 1716 2432 1978 
Q 2159 2241 1766 2241 
Q 1356 2241 1100 1970 
Q 844 1700 844 1319 
Q 844 922 1108 653 
Q 1372 384 1778 384 
z
" transform="scale(0.015625)"/>
       </defs>
       <use xlink:href="#ArialUnicodeMS-34"/>
       <use xlink:href="#ArialUnicodeMS-2e" transform="translate(55.615234 0)"/>
       <use xlink:href="#ArialUnicodeMS-38" transform="translate(83.398438 0)"/>
      </g>
     </g>
    </g>
    <g id="ytick_6">
     <g id="line2d_25">
      <path d="M 46.33625 53.352159 
L 705.956473 53.352159 
" clip-path="url(#p85200450ca)" style="fill: none; stroke: #b0b0b0; stroke-width: 0.8; stroke-linecap: square"/>
     </g>
     <g id="line2d_26">
      <g>
       <use xlink:href="#m98d8bffcfc" x="46.33625" y="53.352159" style="stroke: #000000; stroke-width: 0.8"/>
      </g>
     </g>
     <g id="text_14">
      <!-- 5.0 -->
      <g transform="translate(25.43625 56.931065) scale(0.1 -0.1)">
       <use xlink:href="#ArialUnicodeMS-35"/>
       <use xlink:href="#ArialUnicodeMS-2e" transform="translate(55.615234 0)"/>
       <use xlink:href="#ArialUnicodeMS-30" transform="translate(83.398438 0)"/>
      </g>
     </g>
    </g>
    <g id="text_15">
     <!-- 平均评分（5分制） -->
     <g transform="translate(19.33625 215.890156) rotate(-90) scale(0.1 -0.1)">
      <defs>
       <path id="ArialUnicodeMS-5e73" d="M 5888 1875 
L 3419 1875 
L 3419 -447 
L 2931 -447 
L 2931 1875 
L 453 1875 
L 453 2344 
L 2931 2344 
L 2931 4569 
L 856 4569 
L 856 5038 
L 5453 5038 
L 5453 4569 
L 3419 4569 
L 3419 2344 
L 5888 2344 
L 5888 1875 
z
M 5241 4197 
Q 4981 3381 4134 2522 
L 3700 2803 
Q 4584 3606 4819 4422 
L 5241 4197 
z
M 2528 2753 
L 2081 2509 
Q 1700 3606 953 4153 
L 1428 4384 
Q 2109 3784 2528 2753 
z
" transform="scale(0.015625)"/>
       <path id="ArialUnicodeMS-5747" d="M 5797 4459 
Q 5772 1716 5730 978 
Q 5688 241 5458 -81 
Q 5228 -403 4744 -403 
Q 4606 -403 4006 -306 
L 3847 250 
Q 4413 128 4788 128 
Q 5022 128 5133 340 
Q 5244 553 5283 1968 
Q 5322 3384 5306 3994 
L 3347 3994 
Q 3056 3181 2559 2650 
L 2156 2944 
Q 2253 3025 2344 3128 
L 1728 3128 
L 1728 1441 
L 2541 1766 
L 2541 1259 
L 641 538 
L 319 978 
L 1241 1288 
L 1241 3128 
L 488 3128 
L 488 3597 
L 1241 3597 
L 1241 5100 
L 1728 5100 
L 1728 3597 
L 2413 3597 
L 2413 3231 
Q 3006 4097 3194 5319 
L 3675 5166 
Q 3572 4644 3494 4459 
L 5797 4459 
z
M 4813 2566 
L 2888 2566 
L 2888 3041 
L 4813 3041 
L 4813 2566 
z
M 4959 1900 
L 4959 1409 
Q 4266 1156 2706 709 
L 2431 1153 
Q 4391 1697 4959 1900 
z
" transform="scale(0.015625)"/>
       <path id="ArialUnicodeMS-8bc4" d="M 2034 4397 
L 1631 4091 
Q 1334 4688 825 5056 
L 1166 5350 
Q 1703 4981 2034 4397 
z
M 6028 1856 
L 4447 1856 
L 4447 -428 
L 3963 -428 
L 3963 1856 
L 2369 1856 
L 2369 2322 
L 3963 2322 
L 3963 4563 
L 2566 4563 
L 2566 5031 
L 5797 5031 
L 5797 4563 
L 4447 4563 
L 4447 2322 
L 6028 2322 
L 6028 1856 
z
M 5684 4197 
Q 5584 3163 5147 2463 
L 4728 2694 
Q 5197 3441 5259 4359 
L 5684 4197 
z
M 3675 2700 
L 3225 2509 
Q 3031 3553 2631 4116 
L 3047 4325 
Q 3509 3625 3675 2700 
z
M 2759 341 
L 1619 -288 
L 1331 122 
Q 1375 175 1375 384 
L 1375 3103 
L 500 3103 
L 500 3572 
L 1863 3572 
L 1863 384 
L 2759 872 
L 2759 341 
z
" transform="scale(0.015625)"/>
       <path id="ArialUnicodeMS-5206" d="M 5991 3003 
L 5684 2553 
Q 4856 3041 4451 3534 
Q 4047 4028 3781 4831 
L 4319 4984 
Q 4375 4356 4829 3825 
Q 5284 3294 5991 3003 
z
M 2613 4697 
Q 2169 3484 800 2547 
L 416 2919 
Q 1731 3741 2188 4934 
L 2613 4697 
z
M 4872 2931 
Q 4844 1956 4730 1092 
Q 4616 228 4430 7 
Q 4244 -213 3847 -213 
Q 3469 -213 2894 -78 
L 2747 481 
Q 3503 269 3834 269 
Q 4013 269 4128 639 
Q 4244 1009 4341 2463 
L 3138 2463 
Q 2869 263 831 -441 
L 525 -31 
Q 2372 478 2631 2463 
L 1556 2463 
L 1556 2931 
L 4872 2931 
z
" transform="scale(0.015625)"/>
       <path id="ArialUnicodeMS-ff08" d="M 3964 -1344 
L 3561 -1344 
Q 3042 -681 2745 103 
Q 2448 888 2448 1656 
Q 2448 2528 2764 3275 
Q 3080 4022 3561 4659 
L 3964 4659 
Q 3408 3747 3219 3059 
Q 3030 2372 3030 1663 
Q 3030 153 3964 -1344 
z
" transform="scale(0.015625)"/>
       <path id="ArialUnicodeMS-5236" d="M 4184 2766 
L 2638 2766 
L 2638 2203 
L 3988 2203 
L 3988 775 
Q 3959 578 3812 459 
Q 3666 341 3477 333 
Q 3288 325 3003 325 
L 2841 806 
L 3366 781 
Q 3500 819 3500 891 
L 3500 1734 
L 2638 1734 
L 2638 -434 
L 2150 -434 
L 2150 1734 
L 1344 1734 
L 1344 263 
L 856 263 
L 856 2203 
L 2150 2203 
L 2150 2766 
L 494 2766 
L 494 3231 
L 2150 3231 
L 2150 3897 
L 1428 3897 
Q 1163 3428 1044 3309 
L 603 3531 
Q 1059 4038 1319 5050 
L 1741 4884 
Q 1722 4716 1606 4341 
L 2150 4341 
L 2150 5350 
L 2638 5350 
L 2638 4341 
L 3841 4341 
L 3841 3897 
L 2638 3897 
L 2638 3231 
L 4184 3231 
L 4184 2766 
z
M 5850 213 
Q 5850 -81 5719 -234 
Q 5588 -388 5228 -397 
L 4653 -409 
L 4488 84 
Q 4997 38 5106 38 
Q 5363 38 5363 231 
L 5363 5306 
L 5850 5306 
L 5850 213 
z
M 4863 909 
L 4378 909 
L 4378 4513 
L 4863 4513 
L 4863 909 
z
" transform="scale(0.015625)"/>
       <path id="ArialUnicodeMS-ff09" d="M 2850 4659 
Q 3369 3997 3666 3212 
Q 3963 2428 3963 1656 
Q 3963 788 3647 41 
Q 3332 -706 2850 -1344 
L 2447 -1344 
Q 3004 -431 3193 255 
Q 3382 941 3382 1650 
Q 3382 3163 2447 4659 
L 2850 4659 
z
" transform="scale(0.015625)"/>
      </defs>
      <use xlink:href="#ArialUnicodeMS-5e73"/>
      <use xlink:href="#ArialUnicodeMS-5747" transform="translate(100 0)"/>
      <use xlink:href="#ArialUnicodeMS-8bc4" transform="translate(200 0)"/>
      <use xlink:href="#ArialUnicodeMS-5206" transform="translate(300 0)"/>
      <use xlink:href="#ArialUnicodeMS-ff08" transform="translate(400 0)"/>
      <use xlink:href="#ArialUnicodeMS-35" transform="translate(500 0)"/>
      <use xlink:href="#ArialUnicodeMS-5206" transform="translate(555.615234 0)"/>
      <use xlink:href="#ArialUnicodeMS-5236" transform="translate(655.615234 0)"/>
      <use xlink:href="#ArialUnicodeMS-ff09" transform="translate(755.615234 0)"/>
     </g>
    </g>
   </g>
   <g id="line2d_27">
    <path d="M 76.318987 292.867216 
L 96.996737 199.722472 
L 117.674487 223.673977 
L 138.352237 175.770966 
L 159.029987 159.803295 
L 179.707737 149.158182 
L 200.385487 162.464574 
L 221.063237 244.964205 
L 241.740987 178.432244 
L 262.418737 189.077358 
L 283.096487 207.706307 
L 303.774237 218.35142 
L 324.451987 183.754801 
L 345.129737 175.770966 
L 365.807487 165.125852 
L 386.485237 178.432244 
L 407.162987 151.81946 
L 427.840737 183.754801 
L 448.518486 175.770966 
L 469.196236 154.480739 
L 489.873986 205.045028 
L 510.551736 157.142017 
L 531.229486 154.480739 
L 551.907236 159.803295 
L 572.584986 111.900284 
L 593.262736 141.174347 
L 613.940486 106.577727 
L 634.618236 135.85179 
L 655.295986 149.158182 
L 675.973736 151.81946 
" clip-path="url(#p85200450ca)" style="fill: none; stroke: #008000; stroke-width: 1.5; stroke-linecap: square"/>
    <defs>
     <path id="m529c61b0d6" d="M 0 3 
C 0.795609 3 1.55874 2.683901 2.12132 2.12132 
C 2.683901 1.55874 3 0.795609 3 0 
C 3 -0.795609 2.683901 -1.55874 2.12132 -2.12132 
C 1.55874 -2.683901 0.795609 -3 0 -3 
C -0.795609 -3 -1.55874 -2.683901 -2.12132 -2.12132 
C -2.683901 -1.55874 -3 -0.795609 -3 0 
C -3 0.795609 -2.683901 1.55874 -2.12132 2.12132 
C -1.55874 2.683901 -0.795609 3 0 3 
z
" style="stroke: #008000"/>
    </defs>
    <g clip-path="url(#p85200450ca)">
     <use xlink:href="#m529c61b0d6" x="76.318987" y="292.867216" style="fill: #008000; stroke: #008000"/>
     <use xlink:href="#m529c61b0d6" x="96.996737" y="199.722472" style="fill: #008000; stroke: #008000"/>
     <use xlink:href="#m529c61b0d6" x="117.674487" y="223.673977" style="fill: #008000; stroke: #008000"/>
     <use xlink:href="#m529c61b0d6" x="138.352237" y="175.770966" style="fill: #008000; stroke: #008000"/>
     <use xlink:href="#m529c61b0d6" x="159.029987" y="159.803295" style="fill: #008000; stroke: #008000"/>
     <use xlink:href="#m529c61b0d6" x="179.707737" y="149.158182" style="fill: #008000; stroke: #008000"/>
     <use xlink:href="#m529c61b0d6" x="200.385487" y="162.464574" style="fill: #008000; stroke: #008000"/>
     <use xlink:href="#m529c61b0d6" x="221.063237" y="244.964205" style="fill: #008000; stroke: #008000"/>
     <use xlink:href="#m529c61b0d6" x="241.740987" y="178.432244" style="fill: #008000; stroke: #008000"/>
     <use xlink:href="#m529c61b0d6" x="262.418737" y="189.077358" style="fill: #008000; stroke: #008000"/>
     <use xlink:href="#m529c61b0d6" x="283.096487" y="207.706307" style="fill: #008000; stroke: #008000"/>
     <use xlink:href="#m529c61b0d6" x="303.774237" y="218.35142" style="fill: #008000; stroke: #008000"/>
     <use xlink:href="#m529c61b0d6" x="324.451987" y="183.754801" style="fill: #008000; stroke: #008000"/>
     <use xlink:href="#m529c61b0d6" x="345.129737" y="175.770966" style="fill: #008000; stroke: #008000"/>
     <use xlink:href="#m529c61b0d6" x="365.807487" y="165.125852" style="fill: #008000; stroke: #008000"/>
     <use xlink:href="#m529c61b0d6" x="386.485237" y="178.432244" style="fill: #008000; stroke: #008000"/>
     <use xlink:href="#m529c61b0d6" x="407.162987" y="151.81946" style="fill: #008000; stroke: #008000"/>
     <use xlink:href="#m529c61b0d6" x="427.840737" y="183.754801" style="fill: #008000; stroke: #008000"/>
     <use xlink:href="#m529c61b0d6" x="448.518486" y="175.770966" style="fill: #008000; stroke: #008000"/>
     <use xlink:href="#m529c61b0d6" x="469.196236" y="154.480739" style="fill: #008000; stroke: #008000"/>
     <use xlink:href="#m529c61b0d6" x="489.873986" y="205.045028" style="fill: #008000; stroke: #008000"/>
     <use xlink:href="#m529c61b0d6" x="510.551736" y="157.142017" style="fill: #008000; stroke: #008000"/>
     <use xlink:href="#m529c61b0d6" x="531.229486" y="154.480739" style="fill: #008000; stroke: #008000"/>
     <use xlink:href="#m529c61b0d6" x="551.907236" y="159.803295" style="fill: #008000; stroke: #008000"/>
     <use xlink:href="#m529c61b0d6" x="572.584986" y="111.900284" style="fill: #008000; stroke: #008000"/>
     <use xlink:href="#m529c61b0d6" x="593.262736" y="141.174347" style="fill: #008000; stroke: #008000"/>
     <use xlink:href="#m529c61b0d6" x="613.940486" y="106.577727" style="fill: #008000; stroke: #008000"/>
     <use xlink:href="#m529c61b0d6" x="634.618236" y="135.85179" style="fill: #008000; stroke: #008000"/>
     <use xlink:href="#m529c61b0d6" x="655.295986" y="149.158182" style="fill: #008000; stroke: #008000"/>
     <use xlink:href="#m529c61b0d6" x="675.973736" y="151.81946" style="fill: #008000; stroke: #008000"/>
    </g>
   </g>
   <g id="patch_3">
    <path d="M 46.33625 319.48 
L 46.33625 26.739375 
" style="fill: none; stroke: #000000; stroke-width: 0.8; stroke-linejoin: miter; stroke-linecap: square"/>
   </g>
   <g id="patch_4">
    <path d="M 705.956473 319.48 
L 705.956473 26.739375 
" style="fill: none; stroke: #000000; stroke-width: 0.8; stroke-linejoin: miter; stroke-linecap: square"/>
   </g>
   <g id="patch_5">
    <path d="M 46.33625 319.48 
L 705.956473 319.48 
" style="fill: none; stroke: #000000; stroke-width: 0.8; stroke-linejoin: miter; stroke-linecap: square"/>
   </g>
   <g id="patch_6">
    <path d="M 46.33625 26.739375 
L 705.956473 26.739375 
" style="fill: none; stroke: #000000; stroke-width: 0.8; stroke-linejoin: miter; stroke-linecap: square"/>
   </g>
   <g id="text_16">
    <!-- 畅销书平均评分变化趋势（2000–2024） -->
    <g transform="translate(268.453862 20.739375) scale(0.12 -0.12)">
     <defs>
      <path id="ArialUnicodeMS-7545" d="M 2706 1403 
L 2241 1403 
L 2253 1684 
L 1888 1684 
L 1888 -359 
L 1403 -359 
L 1403 1684 
L 1031 1684 
L 1031 1403 
L 575 1403 
L 575 4319 
L 1403 4319 
L 1403 5313 
L 1888 5313 
L 1888 4319 
L 2706 4319 
L 2706 1403 
z
M 2253 3284 
L 2253 3853 
L 1888 3853 
L 1888 3284 
L 2253 3284 
z
M 1403 3284 
L 1403 3853 
L 1031 3853 
L 1031 3284 
L 1403 3284 
z
M 2253 2150 
L 2253 2816 
L 1888 2816 
L 1888 2150 
L 2253 2150 
z
M 1403 2150 
L 1403 2816 
L 1031 2816 
L 1031 2150 
L 1403 2150 
z
M 5691 3116 
Q 5669 2406 5555 1348 
Q 5441 291 5319 -21 
Q 5197 -334 4875 -334 
Q 4631 -334 4091 -238 
L 4019 288 
L 4647 109 
Q 4684 97 4722 97 
Q 4828 97 4881 189 
Q 4934 281 5023 943 
Q 5113 1606 5178 2650 
L 4863 2650 
Q 4709 1638 4264 923 
Q 3819 209 2906 -359 
L 2553 6 
Q 4194 959 4397 2650 
L 3975 2650 
Q 3769 1194 2456 341 
L 2113 697 
Q 3372 1469 3513 2650 
L 2869 2650 
L 2869 3103 
Q 3391 3525 4469 4494 
L 2700 4494 
L 2700 4934 
L 5253 4934 
L 5253 4531 
L 3603 3116 
L 5691 3116 
z
" transform="scale(0.015625)"/>
      <path id="ArialUnicodeMS-9500" d="M 5663 231 
Q 5663 0 5491 -162 
Q 5319 -325 5063 -325 
L 4494 -325 
L 4331 184 
Q 4784 153 4928 153 
Q 5178 153 5178 359 
L 5178 922 
L 3444 922 
L 3444 -441 
L 2956 -441 
L 2956 3425 
L 4056 3425 
L 4056 5319 
L 4544 5319 
L 4544 3425 
L 5663 3425 
L 5663 231 
z
M 5178 2419 
L 5178 2956 
L 3444 2956 
L 3444 2419 
L 5178 2419 
z
M 5178 1388 
L 5178 1953 
L 3444 1953 
L 3444 1388 
L 5178 1388 
z
M 2791 4063 
L 1516 4063 
Q 1413 3750 1269 3488 
L 2706 3488 
L 2706 3022 
L 1919 3022 
L 1919 2363 
L 2784 2363 
L 2784 1894 
L 1919 1894 
L 1919 525 
L 2784 953 
L 2784 428 
L 1600 -178 
L 1338 244 
Q 1428 344 1428 447 
L 1428 1894 
L 494 1894 
L 494 2363 
L 1428 2363 
L 1428 3022 
L 1006 3022 
Q 850 2781 641 2559 
L 250 2859 
Q 1084 3791 1350 5313 
L 1806 5166 
Q 1763 4909 1656 4531 
L 2791 4531 
L 2791 4063 
z
M 5906 4825 
Q 5628 4081 5075 3584 
L 4678 3891 
Q 5219 4325 5544 5106 
L 5906 4825 
z
M 3866 3816 
L 3425 3572 
Q 3259 4200 2638 4825 
L 3066 5044 
Q 3641 4484 3866 3816 
z
" transform="scale(0.015625)"/>
      <path id="ArialUnicodeMS-4e66" d="M 5722 2553 
L 5663 1497 
Q 5628 747 5561 609 
Q 5494 472 5364 389 
Q 5234 306 4975 306 
Q 4806 306 4494 341 
L 4372 806 
L 4997 756 
Q 5059 750 5084 792 
Q 5109 834 5154 1137 
Q 5200 1441 5228 2088 
L 3175 2088 
L 3175 -453 
L 2688 -453 
L 2688 2088 
L 384 2088 
L 384 2553 
L 2688 2553 
L 2688 3669 
L 997 3669 
L 997 4134 
L 2688 4134 
L 2688 5241 
L 3175 5241 
L 3175 4134 
L 4763 4134 
Q 4756 3425 4634 2553 
L 5722 2553 
z
M 4219 3669 
L 3175 3669 
L 3175 2553 
L 4122 2553 
Q 4181 3016 4219 3669 
z
M 5509 4091 
L 5113 3809 
Q 4825 4334 4256 4722 
L 4622 5013 
Q 5188 4619 5509 4091 
z
" transform="scale(0.015625)"/>
      <path id="ArialUnicodeMS-53d8" d="M 5813 4050 
L 3938 4050 
L 3938 2350 
L 3469 2350 
L 3481 4050 
L 2719 4050 
L 2719 2350 
L 2266 2350 
L 2266 4050 
L 372 4050 
L 372 4494 
L 3009 4494 
Q 2856 4744 2400 5031 
L 2694 5331 
Q 3203 5041 3513 4634 
L 3341 4513 
L 3341 4494 
L 5813 4494 
L 5813 4050 
z
M 1947 3519 
Q 1559 2866 775 2059 
L 416 2425 
Q 1016 2938 1594 3809 
L 1947 3519 
z
M 5838 2484 
L 5409 2209 
Q 5081 2878 4306 3488 
L 4653 3756 
Q 5550 3047 5838 2484 
z
M 5978 78 
L 5691 -366 
Q 5153 -297 4609 -142 
Q 4066 13 3188 481 
Q 2103 -150 519 -378 
Q 438 -222 244 63 
Q 1741 225 2753 775 
Q 2309 1069 1819 1784 
L 1350 1784 
L 1350 2253 
L 4603 2253 
L 4603 1791 
Q 4038 1091 3597 775 
Q 4497 263 5978 78 
z
M 3975 1784 
L 2413 1784 
Q 2641 1425 3188 1044 
Q 3763 1481 3975 1784 
z
" transform="scale(0.015625)"/>
      <path id="ArialUnicodeMS-5316" d="M 2431 5147 
Q 2322 4731 2081 4159 
L 1844 3603 
L 1844 -366 
L 1350 -366 
L 1350 2834 
Q 1006 2356 653 2075 
L 306 2444 
Q 1350 3319 2003 5350 
L 2431 5147 
z
M 6081 1325 
Q 5994 419 5786 114 
Q 5578 -191 5203 -191 
L 3872 -191 
Q 3534 -191 3339 -12 
Q 3144 166 3144 469 
L 3144 5178 
L 3628 5178 
L 3628 2853 
Q 4478 3413 5288 4488 
L 5709 4197 
Q 4800 2984 3628 2272 
L 3628 550 
Q 3628 288 3981 288 
L 5113 288 
Q 5553 288 5581 1503 
L 6081 1325 
z
" transform="scale(0.015625)"/>
      <path id="ArialUnicodeMS-8d8b" d="M 5588 422 
L 5100 422 
L 5100 684 
L 2881 684 
L 2881 1147 
L 5100 1147 
L 5100 1766 
L 3181 1766 
L 3181 2247 
L 5100 2247 
L 5100 2809 
L 3059 2809 
L 3059 3272 
L 4341 3272 
Q 4541 3550 4763 4013 
L 3788 4013 
Q 3544 3606 3150 3347 
L 2797 3706 
Q 3575 4272 3775 5275 
L 4206 5069 
Q 4178 4922 4112 4720 
Q 4047 4519 4038 4475 
L 5344 4475 
L 5344 4103 
Q 5009 3466 4897 3272 
L 5588 3272 
L 5588 422 
z
M 6003 281 
L 5831 -197 
L 4856 -225 
L 3097 -225 
Q 2422 -225 1978 -36 
Q 1534 153 1113 622 
Q 928 47 575 -459 
L 166 -122 
Q 581 450 681 917 
Q 781 1384 813 2363 
L 1269 2284 
Q 1269 1788 1209 1191 
Q 1459 869 1581 763 
L 1581 2675 
L 391 2675 
L 391 3156 
L 1394 3156 
L 1394 3891 
L 519 3891 
L 519 4372 
L 1394 4372 
L 1394 5247 
L 1881 5247 
L 1881 4372 
L 2784 4372 
L 2784 3891 
L 1881 3891 
L 1881 3156 
L 2906 3156 
L 2906 2675 
L 2069 2675 
L 2069 1931 
L 2906 1931 
L 2906 1472 
L 2069 1472 
L 2069 447 
Q 2497 238 3059 238 
L 4750 238 
L 6003 281 
z
" transform="scale(0.015625)"/>
      <path id="ArialUnicodeMS-52bf" d="M 6088 2772 
Q 5925 2363 5792 2206 
Q 5659 2050 5516 2050 
Q 5228 2050 5017 2598 
Q 4806 3147 4806 4134 
L 4213 4134 
Q 4172 3519 4025 3219 
Q 4241 3056 4563 2753 
L 4231 2431 
Q 3809 2825 3794 2828 
Q 3459 2425 2619 2100 
L 2322 2497 
Q 3125 2731 3391 3109 
Q 3103 3331 2834 3425 
L 3091 3788 
Q 3234 3734 3406 3628 
Q 3578 3522 3628 3500 
Q 3725 3688 3750 4134 
L 2869 4134 
L 2869 4603 
L 3750 4603 
L 3750 5331 
L 4213 5331 
L 4213 4603 
L 5269 4603 
Q 5284 3666 5318 3314 
Q 5353 2963 5538 2619 
Q 5616 2834 5672 3084 
L 6088 2772 
z
M 2694 3450 
L 2034 3278 
L 2034 2566 
Q 2034 2369 1921 2228 
Q 1809 2088 1625 2088 
L 1069 2088 
L 916 2559 
L 1428 2534 
Q 1463 2534 1506 2570 
Q 1550 2606 1550 2644 
L 1550 3163 
L 647 2950 
L 372 3397 
Q 981 3500 1550 3641 
L 1550 4238 
L 609 4238 
L 609 4703 
L 1550 4703 
L 1550 5331 
L 2034 5331 
L 2034 4703 
L 2656 4703 
L 2656 4238 
L 2034 4238 
L 2034 3731 
L 2694 3897 
L 2694 3450 
z
M 5434 1825 
Q 5434 1313 5343 689 
Q 5253 66 5083 -139 
Q 4913 -344 4634 -344 
Q 4488 -344 3928 -263 
L 3769 250 
L 4231 134 
Q 4403 128 4519 128 
Q 4666 128 4692 137 
Q 4719 147 4776 278 
Q 4834 409 4863 672 
L 4941 1356 
L 3450 1356 
Q 3038 -91 781 -366 
L 569 116 
Q 2350 209 2950 1356 
L 728 1356 
L 728 1825 
L 3041 1825 
L 3078 2181 
L 3553 2100 
L 3506 1825 
L 5434 1825 
z
" transform="scale(0.015625)"/>
      <path id="ArialUnicodeMS-2013" d="M 3238 1428 
L -38 1428 
L -38 1888 
L 3238 1888 
L 3238 1428 
z
" transform="scale(0.015625)"/>
     </defs>
     <use xlink:href="#ArialUnicodeMS-7545"/>
     <use xlink:href="#ArialUnicodeMS-9500" transform="translate(100 0)"/>
     <use xlink:href="#ArialUnicodeMS-4e66" transform="translate(200 0)"/>
     <use xlink:href="#ArialUnicodeMS-5e73" transform="translate(300 0)"/>
     <use xlink:href="#ArialUnicodeMS-5747" transform="translate(400 0)"/>
     <use xlink:href="#ArialUnicodeMS-8bc4" transform="translate(500 0)"/>
     <use xlink:href="#ArialUnicodeMS-5206" transform="translate(600 0)"/>
     <use xlink:href="#ArialUnicodeMS-53d8" transform="translate(700 0)"/>
     <use xlink:href="#ArialUnicodeMS-5316" transform="translate(800 0)"/>
     <use xlink:href="#ArialUnicodeMS-8d8b" transform="translate(900 0)"/>
     <use xlink:href="#ArialUnicodeMS-52bf" transform="translate(1000 0)"/>
     <use xlink:href="#ArialUnicodeMS-ff08" transform="translate(1100 0)"/>
     <use xlink:href="#ArialUnicodeMS-32" transform="translate(1200 0)"/>
     <use xlink:href="#ArialUnicodeMS-30" transform="translate(1255.615234 0)"/>
     <use xlink:href="#ArialUnicodeMS-30" transform="translate(1311.230469 0)"/>
     <use xlink:href="#ArialUnicodeMS-30" transform="translate(1366.845703 0)"/>
     <use xlink:href="#ArialUnicodeMS-2013" transform="translate(1422.460938 0)"/>
     <use xlink:href="#ArialUnicodeMS-32" transform="translate(1472.460938 0)"/>
     <use xlink:href="#ArialUnicodeMS-30" transform="translate(1528.076172 0)"/>
     <use xlink:href="#ArialUnicodeMS-32" transform="translate(1583.691406 0)"/>
     <use xlink:href="#ArialUnicodeMS-34" transform="translate(1639.306641 0)"/>
     <use xlink:href="#ArialUnicodeMS-ff09" transform="translate(1694.921875 0)"/>
    </g>
   </g>
  </g>
 </g>
 <defs>
  <clipPath id="p85200450ca">
   <rect x="46.33625" y="26.739375" width="659.620223" height="292.740625"/>
  </clipPath>
 </defs>
</svg>
