<?xml version="1.0" encoding="utf-8" standalone="no"?>
<!DOCTYPE svg PUBLIC "-//W3C//DTD SVG 1.1//EN"
  "http://www.w3.org/Graphics/SVG/1.1/DTD/svg11.dtd">
<svg xmlns:xlink="http://www.w3.org/1999/xlink" width="432pt" height="432pt" viewBox="0 0 432 432" xmlns="http://www.w3.org/2000/svg" version="1.1">
 <metadata>
  <rdf:RDF xmlns:dc="http://purl.org/dc/elements/1.1/" xmlns:cc="http://creativecommons.org/ns#" xmlns:rdf="http://www.w3.org/1999/02/22-rdf-syntax-ns#">
   <cc:Work>
    <dc:type rdf:resource="http://purl.org/dc/dcmitype/StillImage"/>
    <dc:date>2025-05-27T13:03:11.809201</dc:date>
    <dc:format>image/svg+xml</dc:format>
    <dc:creator>
     <cc:Agent>
      <dc:title>Matplotlib v3.10.3, https://matplotlib.org/</dc:title>
     </cc:Agent>
    </dc:creator>
   </cc:Work>
  </rdf:RDF>
 </metadata>
 <defs>
  <style type="text/css">*{stroke-linejoin: round; stroke-linecap: butt}</style>
 </defs>
 <g id="figure_1">
  <g id="patch_1">
   <path d="M 0 432 
L 432 432 
L 432 0 
L 0 0 
z
" style="fill: #ffffff"/>
  </g>
  <g id="axes_1">
   <g id="patch_2">
    <path d="M 210.328264 58.477071 
C 180.516242 58.477071 151.25524 66.564373 125.674591 81.874077 
C 100.093942 97.183781 79.139268 119.149943 65.051575 145.423381 
C 50.963883 171.696819 44.263943 201.306302 45.668284 231.085228 
C 47.072625 260.864155 56.529334 289.711708 73.027057 314.542772 
C 89.52478 339.373836 112.453659 359.270499 139.361553 372.104902 
C 166.269447 384.939304 196.16167 390.237006 225.841384 387.431442 
C 255.521099 384.625879 283.891155 373.82076 307.917503 356.171646 
C 331.943851 338.522532 350.738326 314.681844 362.290943 287.199238 
L 210.328264 223.320048 
z
" style="fill: #1f77b4"/>
   </g>
   <g id="patch_3">
    <path d="M 362.290947 287.199219 
C 371.580889 265.0993 375.938997 241.236532 375.060527 217.279532 
C 374.182057 193.322532 368.087966 169.843039 357.204402 148.48285 
C 346.320838 127.122661 330.907526 108.391554 312.042243 93.599296 
C 293.17696 78.807037 271.309947 68.306654 247.970236 62.832389 
L 210.328264 223.320048 
z
" style="fill: #ff7f0e"/>
   </g>
   <g id="patch_4">
    <path d="M 247.970236 62.832389 
C 241.806264 61.386649 235.564117 60.297218 229.274824 59.569519 
C 222.985532 58.84182 216.659537 58.477071 210.328286 58.477071 
L 210.328264 223.320048 
z
" style="fill: #2ca02c"/>
   </g>
   <g id="matplotlib.axis_1"/>
   <g id="matplotlib.axis_2"/>
   <g id="text_1">
    <!-- Hardcover -->
    <g transform="translate(13.17195 326.247878) scale(0.1 -0.1)">
     <defs>
      <path id="ArialUnicodeMS-48" d="M 4109 0 
L 3500 0 
L 3500 2156 
L 1119 2156 
L 1119 0 
L 513 0 
L 513 4581 
L 1119 4581 
L 1119 2700 
L 3500 2700 
L 3500 4581 
L 4109 4581 
L 4109 0 
z
" transform="scale(0.015625)"/>
      <path id="ArialUnicodeMS-61" d="M 3303 0 
L 2713 0 
Q 2631 156 2597 409 
Q 2031 -78 1375 -78 
Q 850 -78 547 184 
Q 244 447 244 878 
Q 244 1291 536 1558 
Q 828 1825 1550 1913 
L 2075 1991 
Q 2369 2038 2559 2106 
Q 2559 2359 2543 2464 
Q 2528 2569 2451 2681 
Q 2375 2794 2206 2862 
Q 2038 2931 1753 2931 
Q 1391 2931 1180 2797 
Q 969 2663 891 2297 
L 341 2369 
Q 431 2878 806 3134 
Q 1181 3391 1838 3391 
Q 2434 3391 2714 3214 
Q 2994 3038 3058 2788 
Q 3122 2538 3122 2144 
L 3122 1388 
Q 3122 697 3148 461 
Q 3175 225 3303 0 
z
M 2559 1459 
L 2559 1663 
Q 2119 1516 1481 1430 
Q 844 1344 844 891 
Q 844 663 1016 514 
Q 1188 366 1509 366 
Q 1925 366 2242 614 
Q 2559 863 2559 1459 
z
" transform="scale(0.015625)"/>
      <path id="ArialUnicodeMS-72" d="M 2216 3213 
L 2022 2694 
Q 1813 2816 1613 2816 
Q 1297 2816 1134 2533 
Q 972 2250 972 1741 
L 972 0 
L 409 0 
L 409 3316 
L 922 3316 
L 922 2816 
L 934 2816 
Q 1203 3391 1638 3391 
Q 1925 3391 2216 3213 
z
" transform="scale(0.015625)"/>
      <path id="ArialUnicodeMS-64" d="M 3109 0 
L 2584 0 
L 2584 422 
L 2572 422 
Q 2269 -78 1656 -78 
Q 1047 -78 639 405 
Q 231 888 231 1656 
Q 231 2459 615 2925 
Q 1000 3391 1631 3391 
Q 2225 3391 2534 2938 
L 2547 2938 
L 2547 4581 
L 3109 4581 
L 3109 0 
z
M 1716 384 
Q 2084 384 2340 687 
Q 2597 991 2597 1606 
Q 2597 2213 2362 2572 
Q 2128 2931 1691 2931 
Q 1253 2931 1029 2579 
Q 806 2228 806 1656 
Q 806 1244 926 958 
Q 1047 672 1262 528 
Q 1478 384 1716 384 
z
" transform="scale(0.015625)"/>
      <path id="ArialUnicodeMS-63" d="M 3144 1147 
Q 3034 513 2643 217 
Q 2253 -78 1759 -78 
Q 1038 -78 644 395 
Q 250 869 250 1650 
Q 250 2297 476 2686 
Q 703 3075 1043 3233 
Q 1384 3391 1759 3391 
Q 2272 3391 2636 3125 
Q 3000 2859 3084 2344 
L 2541 2259 
Q 2456 2594 2267 2762 
Q 2078 2931 1784 2931 
Q 1313 2931 1069 2597 
Q 825 2263 825 1663 
Q 825 1050 1064 717 
Q 1303 384 1753 384 
Q 2116 384 2323 592 
Q 2531 800 2584 1216 
L 3144 1147 
z
" transform="scale(0.015625)"/>
      <path id="ArialUnicodeMS-6f" d="M 1778 3391 
Q 2450 3391 2892 2953 
Q 3334 2516 3334 1709 
Q 3334 731 2856 326 
Q 2378 -78 1778 -78 
Q 1150 -78 687 337 
Q 225 753 225 1656 
Q 225 2531 672 2961 
Q 1119 3391 1778 3391 
z
M 1778 384 
Q 2259 384 2509 740 
Q 2759 1097 2759 1678 
Q 2759 2300 2476 2615 
Q 2194 2931 1778 2931 
Q 1350 2931 1075 2611 
Q 800 2291 800 1656 
Q 800 1025 1079 704 
Q 1359 384 1778 384 
z
" transform="scale(0.015625)"/>
      <path id="ArialUnicodeMS-76" d="M 3122 3316 
L 1869 0 
L 1344 0 
L 84 3316 
L 678 3316 
L 1363 1397 
Q 1556 853 1594 659 
L 1606 659 
Q 1656 859 1778 1197 
L 2547 3316 
L 3122 3316 
z
" transform="scale(0.015625)"/>
      <path id="ArialUnicodeMS-65" d="M 3309 1516 
L 825 1516 
Q 859 966 1139 675 
Q 1419 384 1838 384 
Q 2159 384 2378 554 
Q 2597 725 2713 1069 
L 3291 997 
Q 3150 478 2775 200 
Q 2400 -78 1838 -78 
Q 1091 -78 670 380 
Q 250 838 250 1631 
Q 250 2416 658 2903 
Q 1066 3391 1806 3391 
Q 2169 3391 2505 3231 
Q 2841 3072 3075 2689 
Q 3309 2306 3309 1516 
z
M 2731 1978 
Q 2697 2484 2417 2707 
Q 2138 2931 1806 2931 
Q 1409 2931 1153 2665 
Q 897 2400 856 1978 
L 2731 1978 
z
" transform="scale(0.015625)"/>
     </defs>
     <use xlink:href="#ArialUnicodeMS-48"/>
     <use xlink:href="#ArialUnicodeMS-61" transform="translate(72.216797 0)"/>
     <use xlink:href="#ArialUnicodeMS-72" transform="translate(127.832031 0)"/>
     <use xlink:href="#ArialUnicodeMS-64" transform="translate(161.132812 0)"/>
     <use xlink:href="#ArialUnicodeMS-63" transform="translate(216.748047 0)"/>
     <use xlink:href="#ArialUnicodeMS-6f" transform="translate(266.748047 0)"/>
     <use xlink:href="#ArialUnicodeMS-76" transform="translate(322.363281 0)"/>
     <use xlink:href="#ArialUnicodeMS-65" transform="translate(372.363281 0)"/>
     <use xlink:href="#ArialUnicodeMS-72" transform="translate(427.978516 0)"/>
    </g>
   </g>
   <g id="text_2">
    <!-- 68.7% -->
    <g transform="translate(113.770985 280.636506) scale(0.1 -0.1)">
     <defs>
      <path id="ArialUnicodeMS-36" d="M 838 2363 
Q 1225 2969 1941 2969 
Q 2503 2969 2897 2553 
Q 3291 2138 3291 1491 
Q 3291 838 2898 380 
Q 2506 -78 1856 -78 
Q 1197 -78 733 409 
Q 269 897 269 2144 
Q 269 3369 689 3986 
Q 1109 4603 1906 4603 
Q 2422 4603 2778 4315 
Q 3134 4028 3213 3463 
L 2650 3413 
Q 2497 4141 1875 4141 
Q 1444 4141 1134 3712 
Q 825 3284 825 2363 
L 838 2363 
z
M 1844 384 
Q 2231 384 2472 696 
Q 2713 1009 2713 1453 
Q 2713 1897 2472 2187 
Q 2231 2478 1825 2478 
Q 1453 2478 1184 2204 
Q 916 1931 916 1484 
Q 916 1028 1180 706 
Q 1444 384 1844 384 
z
" transform="scale(0.015625)"/>
      <path id="ArialUnicodeMS-38" d="M 2425 2478 
Q 3284 2203 3284 1306 
Q 3284 716 2862 319 
Q 2441 -78 1778 -78 
Q 1109 -78 689 322 
Q 269 722 269 1325 
Q 269 1759 505 2084 
Q 741 2409 1141 2478 
L 1141 2491 
Q 453 2703 453 3419 
Q 453 3925 815 4264 
Q 1178 4603 1766 4603 
Q 2363 4603 2730 4253 
Q 3097 3903 3097 3406 
Q 3097 2731 2425 2491 
L 2425 2478 
z
M 1778 2700 
Q 2094 2700 2308 2901 
Q 2522 3103 2522 3406 
Q 2522 3716 2305 3928 
Q 2088 4141 1772 4141 
Q 1450 4141 1240 3931 
Q 1031 3722 1031 3438 
Q 1031 3097 1247 2898 
Q 1463 2700 1778 2700 
z
M 1778 384 
Q 2175 384 2440 640 
Q 2706 897 2706 1306 
Q 2706 1716 2432 1978 
Q 2159 2241 1766 2241 
Q 1356 2241 1100 1970 
Q 844 1700 844 1319 
Q 844 922 1108 653 
Q 1372 384 1778 384 
z
" transform="scale(0.015625)"/>
      <path id="ArialUnicodeMS-2e" d="M 1209 0 
L 569 0 
L 569 641 
L 1209 641 
L 1209 0 
z
" transform="scale(0.015625)"/>
      <path id="ArialUnicodeMS-37" d="M 3272 4084 
Q 2597 3344 2103 2253 
Q 1609 1163 1522 0 
L 947 0 
Q 969 934 1408 2051 
Q 1847 3169 2547 3975 
L 306 3975 
L 306 4519 
L 3272 4519 
L 3272 4084 
z
" transform="scale(0.015625)"/>
      <path id="ArialUnicodeMS-25" d="M 4325 4659 
L 1838 -159 
L 1369 -159 
L 3872 4659 
L 4325 4659 
z
M 1428 4653 
Q 1856 4653 2137 4343 
Q 2419 4034 2419 3438 
Q 2419 2850 2131 2539 
Q 1844 2228 1434 2228 
Q 1009 2228 739 2540 
Q 469 2853 469 3475 
Q 469 3984 722 4318 
Q 975 4653 1428 4653 
z
M 1441 2619 
Q 1931 2619 1931 3463 
Q 1931 4269 1441 4269 
Q 953 4269 953 3419 
Q 953 2619 1441 2619 
z
M 4250 2253 
Q 4681 2253 4961 1943 
Q 5241 1634 5241 1038 
Q 5241 600 5087 328 
Q 4934 56 4709 -58 
Q 4484 -172 4256 -172 
Q 3831 -172 3561 140 
Q 3291 453 3291 1075 
Q 3291 1584 3544 1918 
Q 3797 2253 4250 2253 
z
M 4263 219 
Q 4756 219 4756 1063 
Q 4756 1869 4263 1869 
Q 3775 1869 3775 1019 
Q 3775 219 4263 219 
z
" transform="scale(0.015625)"/>
     </defs>
     <use xlink:href="#ArialUnicodeMS-36"/>
     <use xlink:href="#ArialUnicodeMS-38" transform="translate(55.615234 0)"/>
     <use xlink:href="#ArialUnicodeMS-2e" transform="translate(111.230469 0)"/>
     <use xlink:href="#ArialUnicodeMS-37" transform="translate(139.013672 0)"/>
     <use xlink:href="#ArialUnicodeMS-25" transform="translate(194.628906 0)"/>
    </g>
   </g>
   <g id="text_3">
    <!-- Paperback -->
    <g transform="translate(371.892017 143.581941) scale(0.1 -0.1)">
     <defs>
      <path id="ArialUnicodeMS-50" d="M 494 4581 
L 2222 4581 
Q 2631 4581 2926 4540 
Q 3222 4500 3475 4329 
Q 3728 4159 3858 3867 
Q 3988 3575 3988 3256 
Q 3988 2622 3580 2239 
Q 3172 1856 2272 1856 
L 1100 1856 
L 1100 0 
L 494 0 
L 494 4581 
z
M 1100 2400 
L 2278 2400 
Q 3359 2400 3359 3238 
Q 3359 3513 3218 3723 
Q 3078 3934 2873 3986 
Q 2669 4038 2266 4038 
L 1100 4038 
L 1100 2400 
z
" transform="scale(0.015625)"/>
      <path id="ArialUnicodeMS-70" d="M 959 2888 
Q 1275 3391 1906 3391 
Q 2559 3391 2937 2917 
Q 3316 2444 3316 1684 
Q 3316 875 2897 398 
Q 2478 -78 1869 -78 
Q 1334 -78 1013 347 
L 997 347 
L 997 -1275 
L 434 -1275 
L 434 3316 
L 947 3316 
L 947 2888 
L 959 2888 
z
M 1831 384 
Q 2225 384 2483 711 
Q 2741 1038 2741 1684 
Q 2741 2294 2492 2622 
Q 2244 2950 1856 2950 
Q 1456 2950 1198 2584 
Q 941 2219 941 1638 
Q 941 1022 1187 703 
Q 1434 384 1831 384 
z
" transform="scale(0.015625)"/>
      <path id="ArialUnicodeMS-62" d="M 1006 2944 
Q 1319 3391 1900 3391 
Q 2541 3391 2925 2925 
Q 3309 2459 3309 1709 
Q 3309 844 2879 383 
Q 2450 -78 1875 -78 
Q 1291 -78 966 416 
L 953 416 
L 953 0 
L 428 0 
L 428 4581 
L 991 4581 
L 991 2944 
L 1006 2944 
z
M 1831 384 
Q 2222 384 2476 720 
Q 2731 1056 2731 1663 
Q 2731 2247 2497 2589 
Q 2263 2931 1850 2931 
Q 1444 2931 1195 2578 
Q 947 2225 947 1684 
Q 947 1156 1050 932 
Q 1153 709 1361 546 
Q 1569 384 1831 384 
z
" transform="scale(0.015625)"/>
      <path id="ArialUnicodeMS-6b" d="M 3175 0 
L 2484 0 
L 1381 1697 
L 984 1319 
L 984 0 
L 422 0 
L 422 4581 
L 984 4581 
L 984 1972 
L 2316 3316 
L 3047 3316 
L 1778 2088 
L 3175 0 
z
" transform="scale(0.015625)"/>
     </defs>
     <use xlink:href="#ArialUnicodeMS-50"/>
     <use xlink:href="#ArialUnicodeMS-61" transform="translate(66.699219 0)"/>
     <use xlink:href="#ArialUnicodeMS-70" transform="translate(122.314453 0)"/>
     <use xlink:href="#ArialUnicodeMS-65" transform="translate(177.929688 0)"/>
     <use xlink:href="#ArialUnicodeMS-72" transform="translate(233.544922 0)"/>
     <use xlink:href="#ArialUnicodeMS-62" transform="translate(266.845703 0)"/>
     <use xlink:href="#ArialUnicodeMS-61" transform="translate(322.460938 0)"/>
     <use xlink:href="#ArialUnicodeMS-63" transform="translate(378.076172 0)"/>
     <use xlink:href="#ArialUnicodeMS-6b" transform="translate(428.076172 0)"/>
    </g>
   </g>
   <g id="text_4">
    <!-- 27.7% -->
    <g transform="translate(284.277385 181.000541) scale(0.1 -0.1)">
     <defs>
      <path id="ArialUnicodeMS-32" d="M 3231 0 
L 197 0 
Q 197 388 467 784 
Q 738 1181 1478 1778 
Q 1931 2141 2287 2539 
Q 2644 2938 2644 3341 
Q 2644 3688 2398 3914 
Q 2153 4141 1778 4141 
Q 1400 4141 1144 3908 
Q 888 3675 884 3213 
L 306 3278 
Q 359 3922 764 4262 
Q 1169 4603 1791 4603 
Q 2466 4603 2842 4229 
Q 3219 3856 3219 3328 
Q 3219 2888 2901 2436 
Q 2584 1984 1638 1228 
Q 1141 831 978 544 
L 3231 544 
L 3231 0 
z
" transform="scale(0.015625)"/>
     </defs>
     <use xlink:href="#ArialUnicodeMS-32"/>
     <use xlink:href="#ArialUnicodeMS-37" transform="translate(55.615234 0)"/>
     <use xlink:href="#ArialUnicodeMS-2e" transform="translate(111.230469 0)"/>
     <use xlink:href="#ArialUnicodeMS-37" transform="translate(139.013672 0)"/>
     <use xlink:href="#ArialUnicodeMS-25" transform="translate(194.628906 0)"/>
    </g>
   </g>
   <g id="text_5">
    <!-- Other -->
    <g transform="translate(231.16948 45.777282) scale(0.1 -0.1)">
     <defs>
      <path id="ArialUnicodeMS-4f" d="M 2497 4659 
Q 3459 4659 4071 4006 
Q 4684 3353 4684 2284 
Q 4684 1219 4068 570 
Q 3453 -78 2497 -78 
Q 1506 -78 903 594 
Q 300 1266 300 2234 
Q 300 3363 911 4011 
Q 1522 4659 2497 4659 
z
M 2491 441 
Q 3188 441 3620 928 
Q 4053 1416 4056 2284 
Q 4056 3178 3614 3659 
Q 3172 4141 2503 4141 
Q 1816 4141 1372 3669 
Q 928 3197 928 2222 
Q 928 1425 1362 933 
Q 1797 441 2491 441 
z
" transform="scale(0.015625)"/>
      <path id="ArialUnicodeMS-74" d="M 1722 6 
Q 1472 -44 1300 -44 
Q 931 -44 762 86 
Q 594 216 556 416 
Q 519 616 519 972 
L 519 2881 
L 109 2881 
L 109 3316 
L 519 3316 
L 519 4141 
L 1081 4481 
L 1081 3316 
L 1644 3316 
L 1644 2881 
L 1081 2881 
L 1081 941 
Q 1081 691 1132 586 
Q 1184 481 1394 481 
Q 1516 481 1644 506 
L 1722 6 
z
" transform="scale(0.015625)"/>
      <path id="ArialUnicodeMS-68" d="M 3138 0 
L 2572 0 
L 2572 2094 
Q 2572 2500 2397 2703 
Q 2222 2906 1875 2906 
Q 1531 2906 1261 2667 
Q 991 2428 991 1813 
L 991 0 
L 428 0 
L 428 4581 
L 991 4581 
L 991 2938 
Q 1391 3391 1991 3391 
Q 2313 3391 2606 3259 
Q 2900 3128 3019 2856 
Q 3138 2584 3138 2100 
L 3138 0 
z
" transform="scale(0.015625)"/>
     </defs>
     <use xlink:href="#ArialUnicodeMS-4f"/>
     <use xlink:href="#ArialUnicodeMS-74" transform="translate(77.783203 0)"/>
     <use xlink:href="#ArialUnicodeMS-68" transform="translate(105.566406 0)"/>
     <use xlink:href="#ArialUnicodeMS-65" transform="translate(161.181641 0)"/>
     <use xlink:href="#ArialUnicodeMS-72" transform="translate(216.796875 0)"/>
    </g>
   </g>
   <g id="text_6">
    <!-- 3.7% -->
    <g transform="translate(210.300106 127.652545) scale(0.1 -0.1)">
     <defs>
      <path id="ArialUnicodeMS-33" d="M 2425 2478 
Q 2850 2397 3067 2067 
Q 3284 1738 3284 1350 
Q 3284 725 2829 323 
Q 2375 -78 1741 -78 
Q 1134 -78 740 275 
Q 347 628 281 1209 
L 844 1288 
Q 928 834 1151 609 
Q 1375 384 1741 384 
Q 2134 384 2407 661 
Q 2681 938 2681 1338 
Q 2681 1722 2432 1975 
Q 2184 2228 1784 2228 
Q 1622 2228 1388 2169 
L 1453 2663 
Q 1678 2663 1809 2684 
Q 1941 2706 2103 2790 
Q 2266 2875 2372 3033 
Q 2478 3191 2478 3425 
Q 2478 3766 2251 3953 
Q 2025 4141 1728 4141 
Q 1388 4141 1173 3925 
Q 959 3709 903 3309 
L 341 3413 
Q 450 4009 823 4306 
Q 1197 4603 1716 4603 
Q 2288 4603 2670 4258 
Q 3053 3913 3053 3413 
Q 3053 2772 2425 2491 
L 2425 2478 
z
" transform="scale(0.015625)"/>
     </defs>
     <use xlink:href="#ArialUnicodeMS-33"/>
     <use xlink:href="#ArialUnicodeMS-2e" transform="translate(55.615234 0)"/>
     <use xlink:href="#ArialUnicodeMS-37" transform="translate(83.398438 0)"/>
     <use xlink:href="#ArialUnicodeMS-25" transform="translate(139.013672 0)"/>
    </g>
   </g>
   <g id="text_7">
    <!-- 畅销书装帧形式分布 -->
    <g transform="translate(156.328269 19.44) scale(0.12 -0.12)">
     <defs>
      <path id="ArialUnicodeMS-7545" d="M 2706 1403 
L 2241 1403 
L 2253 1684 
L 1888 1684 
L 1888 -359 
L 1403 -359 
L 1403 1684 
L 1031 1684 
L 1031 1403 
L 575 1403 
L 575 4319 
L 1403 4319 
L 1403 5313 
L 1888 5313 
L 1888 4319 
L 2706 4319 
L 2706 1403 
z
M 2253 3284 
L 2253 3853 
L 1888 3853 
L 1888 3284 
L 2253 3284 
z
M 1403 3284 
L 1403 3853 
L 1031 3853 
L 1031 3284 
L 1403 3284 
z
M 2253 2150 
L 2253 2816 
L 1888 2816 
L 1888 2150 
L 2253 2150 
z
M 1403 2150 
L 1403 2816 
L 1031 2816 
L 1031 2150 
L 1403 2150 
z
M 5691 3116 
Q 5669 2406 5555 1348 
Q 5441 291 5319 -21 
Q 5197 -334 4875 -334 
Q 4631 -334 4091 -238 
L 4019 288 
L 4647 109 
Q 4684 97 4722 97 
Q 4828 97 4881 189 
Q 4934 281 5023 943 
Q 5113 1606 5178 2650 
L 4863 2650 
Q 4709 1638 4264 923 
Q 3819 209 2906 -359 
L 2553 6 
Q 4194 959 4397 2650 
L 3975 2650 
Q 3769 1194 2456 341 
L 2113 697 
Q 3372 1469 3513 2650 
L 2869 2650 
L 2869 3103 
Q 3391 3525 4469 4494 
L 2700 4494 
L 2700 4934 
L 5253 4934 
L 5253 4531 
L 3603 3116 
L 5691 3116 
z
" transform="scale(0.015625)"/>
      <path id="ArialUnicodeMS-9500" d="M 5663 231 
Q 5663 0 5491 -162 
Q 5319 -325 5063 -325 
L 4494 -325 
L 4331 184 
Q 4784 153 4928 153 
Q 5178 153 5178 359 
L 5178 922 
L 3444 922 
L 3444 -441 
L 2956 -441 
L 2956 3425 
L 4056 3425 
L 4056 5319 
L 4544 5319 
L 4544 3425 
L 5663 3425 
L 5663 231 
z
M 5178 2419 
L 5178 2956 
L 3444 2956 
L 3444 2419 
L 5178 2419 
z
M 5178 1388 
L 5178 1953 
L 3444 1953 
L 3444 1388 
L 5178 1388 
z
M 2791 4063 
L 1516 4063 
Q 1413 3750 1269 3488 
L 2706 3488 
L 2706 3022 
L 1919 3022 
L 1919 2363 
L 2784 2363 
L 2784 1894 
L 1919 1894 
L 1919 525 
L 2784 953 
L 2784 428 
L 1600 -178 
L 1338 244 
Q 1428 344 1428 447 
L 1428 1894 
L 494 1894 
L 494 2363 
L 1428 2363 
L 1428 3022 
L 1006 3022 
Q 850 2781 641 2559 
L 250 2859 
Q 1084 3791 1350 5313 
L 1806 5166 
Q 1763 4909 1656 4531 
L 2791 4531 
L 2791 4063 
z
M 5906 4825 
Q 5628 4081 5075 3584 
L 4678 3891 
Q 5219 4325 5544 5106 
L 5906 4825 
z
M 3866 3816 
L 3425 3572 
Q 3259 4200 2638 4825 
L 3066 5044 
Q 3641 4484 3866 3816 
z
" transform="scale(0.015625)"/>
      <path id="ArialUnicodeMS-4e66" d="M 5722 2553 
L 5663 1497 
Q 5628 747 5561 609 
Q 5494 472 5364 389 
Q 5234 306 4975 306 
Q 4806 306 4494 341 
L 4372 806 
L 4997 756 
Q 5059 750 5084 792 
Q 5109 834 5154 1137 
Q 5200 1441 5228 2088 
L 3175 2088 
L 3175 -453 
L 2688 -453 
L 2688 2088 
L 384 2088 
L 384 2553 
L 2688 2553 
L 2688 3669 
L 997 3669 
L 997 4134 
L 2688 4134 
L 2688 5241 
L 3175 5241 
L 3175 4134 
L 4763 4134 
Q 4756 3425 4634 2553 
L 5722 2553 
z
M 4219 3669 
L 3175 3669 
L 3175 2553 
L 4122 2553 
Q 4181 3016 4219 3669 
z
M 5509 4091 
L 5113 3809 
Q 4825 4334 4256 4722 
L 4622 5013 
Q 5188 4619 5509 4091 
z
" transform="scale(0.015625)"/>
      <path id="ArialUnicodeMS-88c5" d="M 2419 2572 
L 1931 2572 
L 1931 3463 
L 738 2688 
L 409 3097 
L 1931 4006 
L 1931 5313 
L 2419 5313 
L 2419 2572 
z
M 5913 4044 
L 4488 4044 
L 4488 3303 
L 5672 3303 
L 5672 2834 
L 2888 2834 
L 2894 3303 
L 4000 3303 
L 4000 4044 
L 2619 4044 
L 2619 4513 
L 4000 4513 
L 4000 5306 
L 4488 5306 
L 4488 4513 
L 5913 4513 
L 5913 4044 
z
M 1638 4275 
L 1281 3928 
Q 1006 4453 481 4850 
L 831 5166 
Q 1322 4816 1638 4275 
z
M 6138 269 
L 5819 -184 
Q 3844 231 3384 1813 
L 3084 1813 
Q 2684 1269 2419 1100 
L 2419 238 
L 3738 531 
L 3738 50 
L 1625 -434 
L 1369 31 
L 1931 147 
L 1931 750 
Q 1581 500 556 213 
L 288 653 
Q 1778 950 2478 1813 
L 469 1813 
L 469 2291 
L 2950 2291 
L 2950 2713 
L 3450 2713 
L 3450 2291 
L 5953 2291 
L 5953 1813 
L 3866 1813 
Q 3975 1494 4281 1125 
Q 4663 1250 5025 1709 
L 5363 1381 
Q 4969 941 4594 825 
Q 5200 419 6138 269 
z
" transform="scale(0.015625)"/>
      <path id="ArialUnicodeMS-5e27" d="M 5906 4172 
L 4391 4172 
L 4391 3675 
L 5663 3675 
L 5663 1038 
Q 5559 1025 5178 1025 
L 5178 3206 
L 3541 3206 
L 3541 903 
L 3053 903 
L 3053 3675 
L 3903 3675 
L 3903 5281 
L 4391 5281 
L 4391 4641 
L 5906 4641 
L 5906 4172 
z
M 2669 1403 
Q 2669 1266 2550 1155 
Q 2431 1044 2297 1044 
L 2009 1044 
L 1900 1538 
L 2075 1516 
Q 2181 1516 2181 1613 
L 2181 3706 
L 1831 3706 
L 1831 -428 
L 1344 -428 
L 1344 3706 
L 1056 3706 
L 1056 934 
Q 1009 928 569 928 
L 569 4172 
L 1344 4172 
L 1344 5281 
L 1831 5281 
L 1831 4172 
L 2669 4172 
L 2669 1403 
z
M 4616 1778 
Q 4616 1106 4175 511 
Q 3734 -84 2925 -422 
L 2638 19 
Q 2938 125 3195 289 
Q 3453 453 3647 658 
Q 3841 863 3958 1147 
Q 4075 1431 4117 1728 
Q 4159 2025 4153 2389 
Q 4147 2753 4153 2969 
L 4616 2919 
L 4616 1778 
z
M 6016 63 
L 5697 -347 
Q 5313 219 4481 672 
L 4781 1069 
Q 5666 603 6016 63 
z
" transform="scale(0.015625)"/>
      <path id="ArialUnicodeMS-5f62" d="M 5831 5025 
Q 5200 3966 3981 3384 
L 3616 3744 
Q 4884 4369 5459 5300 
L 5831 5025 
z
M 3981 2375 
L 3213 2375 
L 3213 -428 
L 2725 -428 
L 2725 2375 
L 1888 2375 
Q 1869 1184 1578 581 
Q 1288 -22 775 -428 
L 378 -84 
Q 1472 753 1394 2375 
L 563 2375 
L 563 2841 
L 1403 2841 
L 1403 4538 
L 738 4538 
L 738 5006 
L 3866 5006 
L 3866 4538 
L 3213 4538 
L 3213 2841 
L 3981 2841 
L 3981 2375 
z
M 2725 2841 
L 2725 4538 
L 1888 4538 
L 1888 2841 
L 2725 2841 
z
M 5913 3303 
Q 5325 2278 3988 1638 
L 3616 1997 
Q 4969 2616 5544 3578 
L 5913 3303 
z
M 6113 1563 
Q 5394 341 3872 -422 
L 3500 -63 
Q 5031 634 5734 1838 
L 6113 1563 
z
" transform="scale(0.015625)"/>
      <path id="ArialUnicodeMS-5f0f" d="M 6041 903 
Q 5941 256 5798 -70 
Q 5656 -397 5394 -397 
Q 4959 -397 4350 570 
Q 3741 1538 3513 3634 
L 475 3634 
L 475 4103 
L 3469 4103 
Q 3441 4381 3391 5319 
L 3897 5338 
Q 3934 4459 3975 4103 
L 5819 4103 
L 5819 3634 
L 4025 3634 
Q 4091 2678 4333 1870 
Q 4575 1063 4892 614 
Q 5209 166 5325 166 
Q 5472 166 5550 1113 
L 6041 903 
z
M 5509 4513 
L 5166 4147 
Q 4781 4616 4038 4800 
L 4422 5166 
Q 5066 5025 5509 4513 
z
M 3675 800 
L 756 63 
L 575 519 
L 1881 838 
L 1881 2369 
L 863 2369 
L 863 2834 
L 3359 2834 
L 3359 2369 
L 2369 2369 
L 2369 972 
L 3641 1269 
L 3675 800 
z
" transform="scale(0.015625)"/>
      <path id="ArialUnicodeMS-5206" d="M 5991 3003 
L 5684 2553 
Q 4856 3041 4451 3534 
Q 4047 4028 3781 4831 
L 4319 4984 
Q 4375 4356 4829 3825 
Q 5284 3294 5991 3003 
z
M 2613 4697 
Q 2169 3484 800 2547 
L 416 2919 
Q 1731 3741 2188 4934 
L 2613 4697 
z
M 4872 2931 
Q 4844 1956 4730 1092 
Q 4616 228 4430 7 
Q 4244 -213 3847 -213 
Q 3469 -213 2894 -78 
L 2747 481 
Q 3503 269 3834 269 
Q 4013 269 4128 639 
Q 4244 1009 4341 2463 
L 3138 2463 
Q 2869 263 831 -441 
L 525 -31 
Q 2372 478 2631 2463 
L 1556 2463 
L 1556 2931 
L 4872 2931 
z
" transform="scale(0.015625)"/>
      <path id="ArialUnicodeMS-5e03" d="M 5888 3944 
L 2597 3944 
Q 2300 3216 2053 2841 
L 3272 2841 
L 3272 3653 
L 3756 3653 
L 3756 2841 
L 5338 2841 
L 5338 941 
Q 5338 325 4878 325 
L 4294 325 
L 4141 819 
Q 4481 775 4628 775 
Q 4850 775 4850 941 
L 4850 2375 
L 3756 2375 
L 3756 -428 
L 3272 -428 
L 3272 2375 
L 2322 2375 
L 2322 153 
L 1838 153 
L 1825 2534 
Q 1516 2056 794 1288 
L 372 1581 
Q 1731 2919 2094 3944 
L 659 3944 
L 659 4409 
L 2266 4409 
Q 2378 4706 2553 5344 
L 3009 5203 
Q 2794 4444 2778 4409 
L 5888 4409 
L 5888 3944 
z
" transform="scale(0.015625)"/>
     </defs>
     <use xlink:href="#ArialUnicodeMS-7545"/>
     <use xlink:href="#ArialUnicodeMS-9500" transform="translate(100 0)"/>
     <use xlink:href="#ArialUnicodeMS-4e66" transform="translate(200 0)"/>
     <use xlink:href="#ArialUnicodeMS-88c5" transform="translate(300 0)"/>
     <use xlink:href="#ArialUnicodeMS-5e27" transform="translate(400 0)"/>
     <use xlink:href="#ArialUnicodeMS-5f62" transform="translate(500 0)"/>
     <use xlink:href="#ArialUnicodeMS-5f0f" transform="translate(600 0)"/>
     <use xlink:href="#ArialUnicodeMS-5206" transform="translate(700 0)"/>
     <use xlink:href="#ArialUnicodeMS-5e03" transform="translate(800 0)"/>
    </g>
   </g>
  </g>
 </g>
</svg>
