<?xml version="1.0" encoding="utf-8" standalone="no"?>
<!DOCTYPE svg PUBLIC "-//W3C//DTD SVG 1.1//EN"
  "http://www.w3.org/Graphics/SVG/1.1/DTD/svg11.dtd">
<svg xmlns:xlink="http://www.w3.org/1999/xlink" width="720pt" height="432pt" viewBox="0 0 720 432" xmlns="http://www.w3.org/2000/svg" version="1.1">
 <metadata>
  <rdf:RDF xmlns:dc="http://purl.org/dc/elements/1.1/" xmlns:cc="http://creativecommons.org/ns#" xmlns:rdf="http://www.w3.org/1999/02/22-rdf-syntax-ns#">
   <cc:Work>
    <dc:type rdf:resource="http://purl.org/dc/dcmitype/StillImage"/>
    <dc:date>2025-06-01T13:50:59.984639</dc:date>
    <dc:format>image/svg+xml</dc:format>
    <dc:creator>
     <cc:Agent>
      <dc:title>Matplotlib v3.10.3, https://matplotlib.org/</dc:title>
     </cc:Agent>
    </dc:creator>
   </cc:Work>
  </rdf:RDF>
 </metadata>
 <defs>
  <style type="text/css">*{stroke-linejoin: round; stroke-linecap: butt}</style>
 </defs>
 <g id="figure_1">
  <g id="patch_1">
   <path d="M 0 432 
L 720 432 
L 720 0 
L 0 0 
z
" style="fill: #ffffff"/>
  </g>
  <g id="axes_1">
   <g id="patch_2">
    <path d="M 610.67 391.429375 
L 709.2 391.429375 
L 709.2 25.44 
L 610.67 25.44 
z
" style="fill: #ffffff"/>
   </g>
   <g id="patch_3">
    <path d="M 610.67 383.111435 
L 638.821429 383.111435 
L 638.821429 366.475554 
L 610.67 366.475554 
z
" clip-path="url(#p3e05c114ae)" style="fill: #1f77b4"/>
   </g>
   <g id="patch_4">
    <path d="M 610.67 349.839673 
L 638.821429 349.839673 
L 638.821429 333.203793 
L 610.67 333.203793 
z
" clip-path="url(#p3e05c114ae)" style="fill: #1f77b4"/>
   </g>
   <g id="patch_5">
    <path d="M 610.67 316.567912 
L 638.821429 316.567912 
L 638.821429 299.932031 
L 610.67 299.932031 
z
" clip-path="url(#p3e05c114ae)" style="fill: #1f77b4"/>
   </g>
   <g id="patch_6">
    <path d="M 610.67 283.296151 
L 638.821429 283.296151 
L 638.821429 266.66027 
L 610.67 266.66027 
z
" clip-path="url(#p3e05c114ae)" style="fill: #1f77b4"/>
   </g>
   <g id="patch_7">
    <path d="M 610.67 250.024389 
L 638.821429 250.024389 
L 638.821429 233.388509 
L 610.67 233.388509 
z
" clip-path="url(#p3e05c114ae)" style="fill: #1f77b4"/>
   </g>
   <g id="patch_8">
    <path d="M 610.67 216.752628 
L 638.821429 216.752628 
L 638.821429 200.116747 
L 610.67 200.116747 
z
" clip-path="url(#p3e05c114ae)" style="fill: #1f77b4"/>
   </g>
   <g id="patch_9">
    <path d="M 610.67 183.480866 
L 638.821429 183.480866 
L 638.821429 166.844986 
L 610.67 166.844986 
z
" clip-path="url(#p3e05c114ae)" style="fill: #1f77b4"/>
   </g>
   <g id="patch_10">
    <path d="M 610.67 150.209105 
L 648.205238 150.209105 
L 648.205238 133.573224 
L 610.67 133.573224 
z
" clip-path="url(#p3e05c114ae)" style="fill: #1f77b4"/>
   </g>
   <g id="patch_11">
    <path d="M 610.67 116.937344 
L 657.589048 116.937344 
L 657.589048 100.301463 
L 610.67 100.301463 
z
" clip-path="url(#p3e05c114ae)" style="fill: #1f77b4"/>
   </g>
   <g id="patch_12">
    <path d="M 610.67 83.665582 
L 666.972857 83.665582 
L 666.972857 67.029702 
L 610.67 67.029702 
z
" clip-path="url(#p3e05c114ae)" style="fill: #1f77b4"/>
   </g>
   <g id="patch_13">
    <path d="M 610.67 50.393821 
L 704.508095 50.393821 
L 704.508095 33.75794 
L 610.67 33.75794 
z
" clip-path="url(#p3e05c114ae)" style="fill: #1f77b4"/>
   </g>
   <g id="matplotlib.axis_1">
    <g id="xtick_1">
     <g id="line2d_1">
      <defs>
       <path id="mc65a83fea5" d="M 0 0 
L 0 3.5 
" style="stroke: #000000; stroke-width: 0.8"/>
      </defs>
      <g>
       <use xlink:href="#mc65a83fea5" x="610.67" y="391.429375" style="stroke: #000000; stroke-width: 0.8"/>
      </g>
     </g>
     <g id="text_1">
      <!-- 0 -->
      <g transform="translate(607.889531 405.587188) scale(0.1 -0.1)">
       <defs>
        <path id="ArialUnicodeMS-30" d="M 1778 4603 
Q 3272 4603 3272 2259 
Q 3272 1075 2886 498 
Q 2500 -78 1778 -78 
Q 288 -78 288 2259 
Q 288 3444 673 4023 
Q 1059 4603 1778 4603 
z
M 1778 384 
Q 2231 384 2462 823 
Q 2694 1263 2694 2259 
Q 2694 2953 2592 3351 
Q 2491 3750 2286 3945 
Q 2081 4141 1772 4141 
Q 1319 4141 1091 3694 
Q 863 3247 863 2259 
Q 863 1575 966 1175 
Q 1069 775 1272 579 
Q 1475 384 1778 384 
z
" transform="scale(0.015625)"/>
       </defs>
       <use xlink:href="#ArialUnicodeMS-30"/>
      </g>
     </g>
    </g>
    <g id="xtick_2">
     <g id="line2d_2">
      <g>
       <use xlink:href="#mc65a83fea5" x="657.589048" y="391.429375" style="stroke: #000000; stroke-width: 0.8"/>
      </g>
     </g>
     <g id="text_2">
      <!-- 5 -->
      <g transform="translate(654.808579 405.587188) scale(0.1 -0.1)">
       <defs>
        <path id="ArialUnicodeMS-35" d="M 1013 2753 
Q 1431 3041 1881 3041 
Q 2453 3041 2878 2636 
Q 3303 2231 3303 1556 
Q 3303 875 2872 398 
Q 2441 -78 1741 -78 
Q 1169 -78 750 245 
Q 331 569 269 1203 
L 856 1247 
Q 928 813 1162 598 
Q 1397 384 1741 384 
Q 2169 384 2434 707 
Q 2700 1031 2700 1503 
Q 2700 1984 2428 2262 
Q 2156 2541 1728 2541 
Q 1188 2541 897 2100 
L 366 2163 
L 813 4519 
L 3084 4519 
L 3084 3975 
L 1259 3975 
L 1013 2753 
z
" transform="scale(0.015625)"/>
       </defs>
       <use xlink:href="#ArialUnicodeMS-35"/>
      </g>
     </g>
    </g>
    <g id="xtick_3">
     <g id="line2d_3">
      <g>
       <use xlink:href="#mc65a83fea5" x="704.508095" y="391.429375" style="stroke: #000000; stroke-width: 0.8"/>
      </g>
     </g>
     <g id="text_3">
      <!-- 10 -->
      <g transform="translate(698.947158 405.587188) scale(0.1 -0.1)">
       <defs>
        <path id="ArialUnicodeMS-31" d="M 2400 0 
L 1838 0 
L 1838 3584 
Q 1416 3184 709 2906 
L 709 3450 
Q 1681 3916 2034 4603 
L 2400 4603 
L 2400 0 
z
" transform="scale(0.015625)"/>
       </defs>
       <use xlink:href="#ArialUnicodeMS-31"/>
       <use xlink:href="#ArialUnicodeMS-30" transform="translate(55.615234 0)"/>
      </g>
     </g>
    </g>
    <g id="text_4">
     <!-- 上榜次数 -->
     <g transform="translate(639.935 418.737188) scale(0.1 -0.1)">
      <defs>
       <path id="ArialUnicodeMS-4e0a" d="M 5931 63 
L 588 63 
L 588 531 
L 2688 531 
L 2688 5209 
L 3175 5209 
L 3175 3353 
L 5369 3353 
L 5369 2888 
L 3175 2888 
L 3175 531 
L 5931 531 
L 5931 63 
z
" transform="scale(0.015625)"/>
       <path id="ArialUnicodeMS-699c" d="M 5941 2516 
L 5478 2516 
L 5478 2994 
L 3003 2994 
L 3003 2497 
L 2516 2497 
L 2516 3463 
L 3566 3463 
Q 3478 3678 3003 4019 
L 3341 4225 
L 2656 4225 
L 2656 4697 
L 3909 4697 
L 3909 5331 
L 4397 5331 
L 4397 4697 
L 5831 4697 
L 5831 4225 
L 5025 4225 
L 5319 4091 
Q 5138 3656 4959 3463 
L 5941 3463 
L 5941 2516 
z
M 4831 4225 
L 3481 4225 
Q 3838 3994 4084 3500 
L 3969 3469 
L 4409 3463 
Q 4709 3772 4831 4225 
z
M 5863 1784 
L 3897 1784 
Q 3859 1403 3853 1388 
L 5556 1388 
Q 5459 513 5411 256 
Q 5363 0 5178 -131 
Q 4994 -263 4728 -263 
Q 4444 -263 3944 -178 
L 3859 300 
Q 4538 197 4728 197 
Q 4856 197 4915 261 
Q 4975 325 5012 573 
Q 5050 822 5050 941 
L 3775 941 
Q 3566 91 2394 -428 
L 2059 0 
Q 2494 106 2928 476 
Q 3363 847 3413 1784 
L 2572 1784 
L 2572 2075 
L 2188 1869 
Q 2100 2359 1869 2572 
L 1869 -447 
L 1381 -447 
L 1381 2022 
Q 1269 1678 716 1031 
L 347 1388 
Q 1172 2197 1375 3572 
L 563 3572 
L 563 4038 
L 1381 4038 
L 1381 5259 
L 1869 5259 
L 1869 4038 
L 2497 4038 
L 2497 3572 
L 1869 3572 
L 1869 2975 
L 2041 3066 
Q 2369 2825 2572 2203 
L 2572 2253 
L 3950 2253 
L 3950 2713 
L 4434 2713 
L 4434 2253 
L 5863 2253 
L 5863 1784 
z
" transform="scale(0.015625)"/>
       <path id="ArialUnicodeMS-6b21" d="M 5759 4372 
Q 5653 3369 5281 2706 
L 4813 2881 
Q 5088 3478 5153 3903 
L 3169 3903 
Q 2906 3159 2381 2472 
L 1925 2731 
Q 2813 3800 3003 5259 
L 3494 5184 
Q 3444 4863 3316 4372 
L 5759 4372 
z
M 1941 3847 
L 1528 3541 
Q 1138 4263 409 4697 
L 788 4984 
Q 1597 4534 1941 3847 
z
M 6100 25 
L 5797 -397 
Q 4350 116 3803 1516 
Q 3500 447 1797 -422 
L 1459 -72 
Q 2197 300 2676 751 
Q 3156 1203 3348 1704 
Q 3541 2206 3572 3272 
L 4050 3163 
L 3988 2256 
Q 3988 2041 4461 1228 
Q 4934 416 6100 25 
z
M 1894 2431 
Q 1541 669 716 -231 
L 313 84 
Q 1200 1106 1459 2650 
L 1894 2431 
z
" transform="scale(0.015625)"/>
       <path id="ArialUnicodeMS-6570" d="M 6138 19 
L 5806 -378 
Q 5031 194 4697 716 
Q 4344 144 3328 -441 
L 2981 -50 
Q 3966 434 4403 1153 
Q 4038 1834 3866 2753 
Q 3678 2356 3353 1919 
L 2950 2203 
Q 3838 3172 3963 5253 
L 4409 5125 
Q 4341 4384 4269 4006 
L 5984 4006 
L 5984 3547 
L 5619 3541 
L 5594 3341 
Q 5441 2113 4978 1191 
Q 5281 672 6138 19 
z
M 5166 3541 
L 4172 3541 
Q 4297 2419 4691 1650 
Q 5038 2513 5166 3541 
z
M 3438 3653 
L 2209 3653 
L 2209 2338 
L 1919 2338 
Q 1900 2269 1753 1931 
L 3225 1931 
L 3225 1472 
L 2913 1472 
Q 2763 991 2503 666 
Q 2947 353 3103 184 
L 2747 -172 
Q 2463 138 2150 313 
Q 1322 -225 563 -428 
L 269 6 
Q 1106 163 1684 563 
Q 1291 756 703 884 
L 1038 1472 
L 403 1472 
L 403 1931 
L 1259 1931 
Q 1328 2056 1466 2553 
L 1747 2484 
L 1747 3653 
L 1716 3653 
Q 1413 2881 678 2456 
L 378 2803 
Q 938 3091 1241 3653 
L 403 3653 
L 403 4122 
L 1747 4122 
L 1747 5228 
L 2209 5228 
L 2209 4122 
L 3438 4122 
L 3438 3653 
z
M 2406 1472 
L 1538 1472 
Q 1422 1241 1369 1153 
Q 1388 1159 2069 884 
Q 2219 1031 2406 1472 
z
M 1625 4441 
L 1288 4159 
Q 1022 4547 575 4813 
L 878 5075 
Q 1394 4844 1625 4441 
z
M 3384 4844 
Q 3097 4409 2669 4172 
L 2322 4481 
Q 2806 4759 3047 5069 
L 3384 4844 
z
M 3303 2888 
L 2944 2578 
Q 2706 3025 2291 3297 
L 2584 3566 
Q 2988 3359 3303 2888 
z
" transform="scale(0.015625)"/>
      </defs>
      <use xlink:href="#ArialUnicodeMS-4e0a"/>
      <use xlink:href="#ArialUnicodeMS-699c" transform="translate(100 0)"/>
      <use xlink:href="#ArialUnicodeMS-6b21" transform="translate(200 0)"/>
      <use xlink:href="#ArialUnicodeMS-6570" transform="translate(300 0)"/>
     </g>
    </g>
   </g>
   <g id="matplotlib.axis_2">
    <g id="ytick_1">
     <g id="line2d_4">
      <defs>
       <path id="m458f9af535" d="M 0 0 
L -3.5 0 
" style="stroke: #000000; stroke-width: 0.8"/>
      </defs>
      <g>
       <use xlink:href="#m458f9af535" x="610.67" y="374.793494" style="stroke: #000000; stroke-width: 0.8"/>
      </g>
     </g>
     <g id="text_5">
      <!-- Where the Crawdads Sing: Reese's Book Club -->
      <g transform="translate(396.668437 378.433338) scale(0.1 -0.1)">
       <defs>
        <path id="ArialUnicodeMS-57" d="M 5972 4581 
L 4709 0 
L 4128 0 
L 3128 3609 
Q 3050 3888 3028 4031 
L 3016 4031 
L 2888 3488 
L 1913 0 
L 1300 0 
L 78 4581 
L 697 4581 
L 1403 1575 
Q 1544 984 1581 706 
Q 1588 650 1588 641 
L 1600 641 
Q 1725 1234 1797 1491 
L 2669 4581 
L 3406 4581 
L 4056 2266 
Q 4300 1403 4409 641 
L 4422 641 
Q 4488 1013 4641 1638 
L 5363 4581 
L 5972 4581 
z
" transform="scale(0.015625)"/>
        <path id="ArialUnicodeMS-68" d="M 3138 0 
L 2572 0 
L 2572 2094 
Q 2572 2500 2397 2703 
Q 2222 2906 1875 2906 
Q 1531 2906 1261 2667 
Q 991 2428 991 1813 
L 991 0 
L 428 0 
L 428 4581 
L 991 4581 
L 991 2938 
Q 1391 3391 1991 3391 
Q 2313 3391 2606 3259 
Q 2900 3128 3019 2856 
Q 3138 2584 3138 2100 
L 3138 0 
z
" transform="scale(0.015625)"/>
        <path id="ArialUnicodeMS-65" d="M 3309 1516 
L 825 1516 
Q 859 966 1139 675 
Q 1419 384 1838 384 
Q 2159 384 2378 554 
Q 2597 725 2713 1069 
L 3291 997 
Q 3150 478 2775 200 
Q 2400 -78 1838 -78 
Q 1091 -78 670 380 
Q 250 838 250 1631 
Q 250 2416 658 2903 
Q 1066 3391 1806 3391 
Q 2169 3391 2505 3231 
Q 2841 3072 3075 2689 
Q 3309 2306 3309 1516 
z
M 2731 1978 
Q 2697 2484 2417 2707 
Q 2138 2931 1806 2931 
Q 1409 2931 1153 2665 
Q 897 2400 856 1978 
L 2731 1978 
z
" transform="scale(0.015625)"/>
        <path id="ArialUnicodeMS-72" d="M 2216 3213 
L 2022 2694 
Q 1813 2816 1613 2816 
Q 1297 2816 1134 2533 
Q 972 2250 972 1741 
L 972 0 
L 409 0 
L 409 3316 
L 922 3316 
L 922 2816 
L 934 2816 
Q 1203 3391 1638 3391 
Q 1925 3391 2216 3213 
z
" transform="scale(0.015625)"/>
        <path id="ArialUnicodeMS-20" transform="scale(0.015625)"/>
        <path id="ArialUnicodeMS-74" d="M 1722 6 
Q 1472 -44 1300 -44 
Q 931 -44 762 86 
Q 594 216 556 416 
Q 519 616 519 972 
L 519 2881 
L 109 2881 
L 109 3316 
L 519 3316 
L 519 4141 
L 1081 4481 
L 1081 3316 
L 1644 3316 
L 1644 2881 
L 1081 2881 
L 1081 941 
Q 1081 691 1132 586 
Q 1184 481 1394 481 
Q 1516 481 1644 506 
L 1722 6 
z
" transform="scale(0.015625)"/>
        <path id="ArialUnicodeMS-43" d="M 4372 1453 
Q 4172 681 3673 301 
Q 3175 -78 2478 -78 
Q 1353 -78 839 626 
Q 325 1331 325 2322 
Q 325 3419 929 4039 
Q 1534 4659 2484 4659 
Q 3153 4659 3628 4318 
Q 4103 3978 4294 3322 
L 3700 3181 
Q 3550 3659 3244 3900 
Q 2938 4141 2478 4141 
Q 1728 4141 1340 3648 
Q 953 3156 953 2328 
Q 953 1372 1361 906 
Q 1769 441 2425 441 
Q 2963 441 3298 731 
Q 3634 1022 3769 1606 
L 4372 1453 
z
" transform="scale(0.015625)"/>
        <path id="ArialUnicodeMS-61" d="M 3303 0 
L 2713 0 
Q 2631 156 2597 409 
Q 2031 -78 1375 -78 
Q 850 -78 547 184 
Q 244 447 244 878 
Q 244 1291 536 1558 
Q 828 1825 1550 1913 
L 2075 1991 
Q 2369 2038 2559 2106 
Q 2559 2359 2543 2464 
Q 2528 2569 2451 2681 
Q 2375 2794 2206 2862 
Q 2038 2931 1753 2931 
Q 1391 2931 1180 2797 
Q 969 2663 891 2297 
L 341 2369 
Q 431 2878 806 3134 
Q 1181 3391 1838 3391 
Q 2434 3391 2714 3214 
Q 2994 3038 3058 2788 
Q 3122 2538 3122 2144 
L 3122 1388 
Q 3122 697 3148 461 
Q 3175 225 3303 0 
z
M 2559 1459 
L 2559 1663 
Q 2119 1516 1481 1430 
Q 844 1344 844 891 
Q 844 663 1016 514 
Q 1188 366 1509 366 
Q 1925 366 2242 614 
Q 2559 863 2559 1459 
z
" transform="scale(0.015625)"/>
        <path id="ArialUnicodeMS-77" d="M 4588 3316 
L 3547 0 
L 2963 0 
L 2438 1991 
Q 2434 1991 2371 2259 
Q 2309 2528 2309 2553 
L 2297 2553 
L 1638 0 
L 1050 0 
L 31 3316 
L 616 3316 
L 1338 691 
L 1450 1138 
L 2041 3316 
L 2619 3316 
L 3066 1578 
Q 3253 859 3272 763 
L 3284 763 
L 4038 3316 
L 4588 3316 
z
" transform="scale(0.015625)"/>
        <path id="ArialUnicodeMS-64" d="M 3109 0 
L 2584 0 
L 2584 422 
L 2572 422 
Q 2269 -78 1656 -78 
Q 1047 -78 639 405 
Q 231 888 231 1656 
Q 231 2459 615 2925 
Q 1000 3391 1631 3391 
Q 2225 3391 2534 2938 
L 2547 2938 
L 2547 4581 
L 3109 4581 
L 3109 0 
z
M 1716 384 
Q 2084 384 2340 687 
Q 2597 991 2597 1606 
Q 2597 2213 2362 2572 
Q 2128 2931 1691 2931 
Q 1253 2931 1029 2579 
Q 806 2228 806 1656 
Q 806 1244 926 958 
Q 1047 672 1262 528 
Q 1478 384 1716 384 
z
" transform="scale(0.015625)"/>
        <path id="ArialUnicodeMS-73" d="M 2278 2388 
Q 2241 2659 2058 2795 
Q 1875 2931 1550 2931 
Q 1228 2931 1029 2822 
Q 831 2713 831 2503 
Q 831 2306 989 2222 
Q 1147 2138 1613 2016 
Q 2138 1881 2398 1778 
Q 2659 1675 2804 1489 
Q 2950 1303 2950 972 
Q 2950 528 2587 225 
Q 2225 -78 1619 -78 
Q 988 -78 633 189 
Q 278 456 197 991 
L 756 1075 
Q 800 728 1014 556 
Q 1228 384 1613 384 
Q 1981 384 2178 539 
Q 2375 694 2375 916 
Q 2375 1066 2284 1156 
Q 2194 1247 2058 1292 
Q 1922 1338 1447 1453 
Q 741 1622 514 1862 
Q 288 2103 288 2438 
Q 288 2853 619 3122 
Q 950 3391 1509 3391 
Q 2103 3391 2433 3158 
Q 2763 2925 2828 2463 
L 2278 2388 
z
" transform="scale(0.015625)"/>
        <path id="ArialUnicodeMS-53" d="M 3213 3238 
Q 3175 3675 2897 3895 
Q 2619 4116 2100 4116 
Q 1631 4116 1337 3941 
Q 1044 3766 1044 3431 
Q 1044 3134 1270 2989 
Q 1497 2844 2138 2700 
Q 2706 2575 3065 2444 
Q 3425 2313 3681 2036 
Q 3938 1759 3938 1294 
Q 3938 703 3467 312 
Q 2997 -78 2241 -78 
Q 1275 -78 795 353 
Q 316 784 288 1472 
L 863 1522 
Q 903 972 1287 720 
Q 1672 469 2216 469 
Q 2725 469 3039 678 
Q 3353 888 3353 1247 
Q 3353 1622 3025 1794 
Q 2697 1966 1923 2133 
Q 1150 2300 809 2603 
Q 469 2906 469 3391 
Q 469 3941 900 4300 
Q 1331 4659 2075 4659 
Q 2838 4659 3302 4301 
Q 3766 3944 3794 3284 
L 3213 3238 
z
" transform="scale(0.015625)"/>
        <path id="ArialUnicodeMS-69" d="M 991 0 
L 428 0 
L 428 3316 
L 991 3316 
L 991 0 
z
M 991 3944 
L 428 3944 
L 428 4581 
L 991 4581 
L 991 3944 
z
" transform="scale(0.015625)"/>
        <path id="ArialUnicodeMS-6e" d="M 3138 0 
L 2572 0 
L 2572 2016 
Q 2572 2525 2389 2715 
Q 2206 2906 1881 2906 
Q 1631 2906 1407 2784 
Q 1184 2663 1090 2441 
Q 997 2219 997 1813 
L 997 0 
L 434 0 
L 434 3316 
L 941 3316 
L 941 2847 
L 953 2847 
Q 1131 3119 1392 3255 
Q 1653 3391 1997 3391 
Q 2259 3391 2515 3297 
Q 2772 3203 2917 3015 
Q 3063 2828 3100 2615 
Q 3138 2403 3138 2041 
L 3138 0 
z
" transform="scale(0.015625)"/>
        <path id="ArialUnicodeMS-67" d="M 3144 447 
Q 3144 -259 3003 -607 
Q 2863 -956 2503 -1150 
Q 2144 -1344 1644 -1344 
Q 1081 -1344 706 -1094 
Q 331 -844 331 -275 
L 878 -359 
Q 909 -622 1098 -753 
Q 1288 -884 1638 -884 
Q 2075 -884 2278 -706 
Q 2481 -528 2526 -272 
Q 2572 -16 2572 434 
Q 2206 0 1650 0 
Q 1003 0 611 478 
Q 219 956 219 1684 
Q 219 2416 600 2903 
Q 981 3391 1656 3391 
Q 2244 3391 2613 2919 
L 2625 2919 
L 2625 3316 
L 3144 3316 
L 3144 447 
z
M 1703 459 
Q 2063 459 2341 745 
Q 2619 1031 2619 1703 
Q 2619 2297 2353 2614 
Q 2088 2931 1697 2931 
Q 1297 2931 1045 2606 
Q 794 2281 794 1716 
Q 794 1063 1058 761 
Q 1322 459 1703 459 
z
" transform="scale(0.015625)"/>
        <path id="ArialUnicodeMS-3a" d="M 1216 2675 
L 575 2675 
L 575 3316 
L 1216 3316 
L 1216 2675 
z
M 1216 0 
L 575 0 
L 575 641 
L 1216 641 
L 1216 0 
z
" transform="scale(0.015625)"/>
        <path id="ArialUnicodeMS-52" d="M 4550 0 
L 3788 0 
Q 3103 1081 2937 1328 
Q 2772 1575 2589 1751 
Q 2406 1928 2245 1975 
Q 2084 2022 1819 2022 
L 1119 2022 
L 1119 0 
L 513 0 
L 513 4581 
L 2541 4581 
Q 2956 4581 3237 4528 
Q 3519 4475 3731 4304 
Q 3944 4134 4058 3875 
Q 4172 3616 4172 3328 
Q 4172 2809 3844 2493 
Q 3516 2178 2888 2094 
L 2888 2081 
Q 3347 1878 3750 1247 
L 4550 0 
z
M 1119 2566 
L 2419 2566 
Q 2813 2566 3042 2633 
Q 3272 2700 3409 2894 
Q 3547 3088 3547 3328 
Q 3547 3641 3319 3859 
Q 3091 4078 2566 4078 
L 1119 4078 
L 1119 2566 
z
" transform="scale(0.015625)"/>
        <path id="ArialUnicodeMS-27" d="M 441 2956 
L 288 3834 
L 288 4581 
L 928 4581 
L 928 3834 
L 788 2956 
L 441 2956 
z
" transform="scale(0.015625)"/>
        <path id="ArialUnicodeMS-42" d="M 3078 2438 
Q 3509 2306 3723 2011 
Q 3938 1716 3938 1331 
Q 3938 947 3744 625 
Q 3550 303 3194 151 
Q 2838 0 2228 0 
L 475 0 
L 475 4581 
L 2194 4581 
Q 3028 4581 3370 4218 
Q 3713 3856 3713 3413 
Q 3713 3113 3555 2858 
Q 3397 2603 3078 2438 
z
M 1081 2663 
L 2075 2663 
Q 2381 2663 2589 2697 
Q 2797 2731 2956 2878 
Q 3116 3025 3116 3334 
Q 3116 3659 2955 3814 
Q 2794 3969 2570 4003 
Q 2347 4038 1997 4038 
L 1081 4038 
L 1081 2663 
z
M 1081 544 
L 2222 544 
Q 2834 544 3071 753 
Q 3309 963 3309 1331 
Q 3309 1703 3056 1911 
Q 2803 2119 2144 2119 
L 1081 2119 
L 1081 544 
z
" transform="scale(0.015625)"/>
        <path id="ArialUnicodeMS-6f" d="M 1778 3391 
Q 2450 3391 2892 2953 
Q 3334 2516 3334 1709 
Q 3334 731 2856 326 
Q 2378 -78 1778 -78 
Q 1150 -78 687 337 
Q 225 753 225 1656 
Q 225 2531 672 2961 
Q 1119 3391 1778 3391 
z
M 1778 384 
Q 2259 384 2509 740 
Q 2759 1097 2759 1678 
Q 2759 2300 2476 2615 
Q 2194 2931 1778 2931 
Q 1350 2931 1075 2611 
Q 800 2291 800 1656 
Q 800 1025 1079 704 
Q 1359 384 1778 384 
z
" transform="scale(0.015625)"/>
        <path id="ArialUnicodeMS-6b" d="M 3175 0 
L 2484 0 
L 1381 1697 
L 984 1319 
L 984 0 
L 422 0 
L 422 4581 
L 984 4581 
L 984 1972 
L 2316 3316 
L 3047 3316 
L 1778 2088 
L 3175 0 
z
" transform="scale(0.015625)"/>
        <path id="ArialUnicodeMS-6c" d="M 991 0 
L 428 0 
L 428 4581 
L 991 4581 
L 991 0 
z
" transform="scale(0.015625)"/>
        <path id="ArialUnicodeMS-75" d="M 3116 0 
L 2613 0 
L 2613 488 
L 2597 488 
Q 2216 -78 1556 -78 
Q 1209 -78 914 83 
Q 619 244 520 526 
Q 422 809 422 1259 
L 422 3316 
L 984 3316 
L 984 1478 
Q 984 1038 1026 847 
Q 1069 656 1247 532 
Q 1425 409 1672 409 
Q 1991 409 2272 629 
Q 2553 850 2553 1544 
L 2553 3316 
L 3116 3316 
L 3116 0 
z
" transform="scale(0.015625)"/>
        <path id="ArialUnicodeMS-62" d="M 1006 2944 
Q 1319 3391 1900 3391 
Q 2541 3391 2925 2925 
Q 3309 2459 3309 1709 
Q 3309 844 2879 383 
Q 2450 -78 1875 -78 
Q 1291 -78 966 416 
L 953 416 
L 953 0 
L 428 0 
L 428 4581 
L 991 4581 
L 991 2944 
L 1006 2944 
z
M 1831 384 
Q 2222 384 2476 720 
Q 2731 1056 2731 1663 
Q 2731 2247 2497 2589 
Q 2263 2931 1850 2931 
Q 1444 2931 1195 2578 
Q 947 2225 947 1684 
Q 947 1156 1050 932 
Q 1153 709 1361 546 
Q 1569 384 1831 384 
z
" transform="scale(0.015625)"/>
       </defs>
       <use xlink:href="#ArialUnicodeMS-57"/>
       <use xlink:href="#ArialUnicodeMS-68" transform="translate(94.384766 0)"/>
       <use xlink:href="#ArialUnicodeMS-65" transform="translate(150 0)"/>
       <use xlink:href="#ArialUnicodeMS-72" transform="translate(205.615234 0)"/>
       <use xlink:href="#ArialUnicodeMS-65" transform="translate(238.916016 0)"/>
       <use xlink:href="#ArialUnicodeMS-20" transform="translate(294.53125 0)"/>
       <use xlink:href="#ArialUnicodeMS-74" transform="translate(322.314453 0)"/>
       <use xlink:href="#ArialUnicodeMS-68" transform="translate(350.097656 0)"/>
       <use xlink:href="#ArialUnicodeMS-65" transform="translate(405.712891 0)"/>
       <use xlink:href="#ArialUnicodeMS-20" transform="translate(461.328125 0)"/>
       <use xlink:href="#ArialUnicodeMS-43" transform="translate(489.111328 0)"/>
       <use xlink:href="#ArialUnicodeMS-72" transform="translate(561.328125 0)"/>
       <use xlink:href="#ArialUnicodeMS-61" transform="translate(594.628906 0)"/>
       <use xlink:href="#ArialUnicodeMS-77" transform="translate(650.244141 0)"/>
       <use xlink:href="#ArialUnicodeMS-64" transform="translate(722.460938 0)"/>
       <use xlink:href="#ArialUnicodeMS-61" transform="translate(778.076172 0)"/>
       <use xlink:href="#ArialUnicodeMS-64" transform="translate(833.691406 0)"/>
       <use xlink:href="#ArialUnicodeMS-73" transform="translate(889.306641 0)"/>
       <use xlink:href="#ArialUnicodeMS-20" transform="translate(939.306641 0)"/>
       <use xlink:href="#ArialUnicodeMS-53" transform="translate(967.089844 0)"/>
       <use xlink:href="#ArialUnicodeMS-69" transform="translate(1033.789062 0)"/>
       <use xlink:href="#ArialUnicodeMS-6e" transform="translate(1056.005859 0)"/>
       <use xlink:href="#ArialUnicodeMS-67" transform="translate(1111.621094 0)"/>
       <use xlink:href="#ArialUnicodeMS-3a" transform="translate(1167.236328 0)"/>
       <use xlink:href="#ArialUnicodeMS-20" transform="translate(1195.019531 0)"/>
       <use xlink:href="#ArialUnicodeMS-52" transform="translate(1222.802734 0)"/>
       <use xlink:href="#ArialUnicodeMS-65" transform="translate(1295.019531 0)"/>
       <use xlink:href="#ArialUnicodeMS-65" transform="translate(1350.634766 0)"/>
       <use xlink:href="#ArialUnicodeMS-73" transform="translate(1406.25 0)"/>
       <use xlink:href="#ArialUnicodeMS-65" transform="translate(1456.25 0)"/>
       <use xlink:href="#ArialUnicodeMS-27" transform="translate(1511.865234 0)"/>
       <use xlink:href="#ArialUnicodeMS-73" transform="translate(1530.957031 0)"/>
       <use xlink:href="#ArialUnicodeMS-20" transform="translate(1580.957031 0)"/>
       <use xlink:href="#ArialUnicodeMS-42" transform="translate(1608.740234 0)"/>
       <use xlink:href="#ArialUnicodeMS-6f" transform="translate(1675.439453 0)"/>
       <use xlink:href="#ArialUnicodeMS-6f" transform="translate(1731.054688 0)"/>
       <use xlink:href="#ArialUnicodeMS-6b" transform="translate(1786.669922 0)"/>
       <use xlink:href="#ArialUnicodeMS-20" transform="translate(1836.669922 0)"/>
       <use xlink:href="#ArialUnicodeMS-43" transform="translate(1864.453125 0)"/>
       <use xlink:href="#ArialUnicodeMS-6c" transform="translate(1936.669922 0)"/>
       <use xlink:href="#ArialUnicodeMS-75" transform="translate(1958.886719 0)"/>
       <use xlink:href="#ArialUnicodeMS-62" transform="translate(2014.501953 0)"/>
      </g>
     </g>
    </g>
    <g id="ytick_2">
     <g id="line2d_5">
      <g>
       <use xlink:href="#m458f9af535" x="610.67" y="341.521733" style="stroke: #000000; stroke-width: 0.8"/>
      </g>
     </g>
     <g id="text_6">
      <!-- It Ends with Us: A Novel (1) -->
      <g transform="translate(481.41375 345.161577) scale(0.1 -0.1)">
       <defs>
        <path id="ArialUnicodeMS-49" d="M 1197 0 
L 588 0 
L 588 4581 
L 1197 4581 
L 1197 0 
z
" transform="scale(0.015625)"/>
        <path id="ArialUnicodeMS-45" d="M 3928 0 
L 506 0 
L 506 4581 
L 3822 4581 
L 3822 4038 
L 1113 4038 
L 1113 2638 
L 3647 2638 
L 3647 2094 
L 1113 2094 
L 1113 544 
L 3928 544 
L 3928 0 
z
" transform="scale(0.015625)"/>
        <path id="ArialUnicodeMS-55" d="M 4109 1931 
Q 4109 1578 4070 1278 
Q 4031 978 3864 661 
Q 3697 344 3320 133 
Q 2944 -78 2316 -78 
Q 1703 -78 1328 109 
Q 953 297 778 594 
Q 603 891 554 1212 
Q 506 1534 506 1931 
L 506 4581 
L 1113 4581 
L 1113 1941 
Q 1113 1528 1172 1229 
Q 1231 931 1484 700 
Q 1738 469 2266 469 
Q 2800 469 3069 653 
Q 3338 838 3419 1145 
Q 3500 1453 3500 1941 
L 3500 4581 
L 4109 4581 
L 4109 1931 
z
" transform="scale(0.015625)"/>
        <path id="ArialUnicodeMS-41" d="M 4275 0 
L 3591 0 
L 3053 1394 
L 1141 1394 
L 634 0 
L -6 0 
L 1753 4581 
L 2406 4581 
L 4275 0 
z
M 2869 1875 
Q 2306 3363 2234 3564 
Q 2163 3766 2075 4103 
L 2059 4103 
Q 1972 3641 1825 3247 
L 1313 1875 
L 2869 1875 
z
" transform="scale(0.015625)"/>
        <path id="ArialUnicodeMS-4e" d="M 4109 0 
L 3488 0 
L 1094 3597 
L 1081 3597 
L 1081 0 
L 506 0 
L 506 4581 
L 1125 4581 
L 3519 984 
L 3531 984 
L 3531 4581 
L 4109 4581 
L 4109 0 
z
" transform="scale(0.015625)"/>
        <path id="ArialUnicodeMS-76" d="M 3122 3316 
L 1869 0 
L 1344 0 
L 84 3316 
L 678 3316 
L 1363 1397 
Q 1556 853 1594 659 
L 1606 659 
Q 1656 859 1778 1197 
L 2547 3316 
L 3122 3316 
z
" transform="scale(0.015625)"/>
        <path id="ArialUnicodeMS-28" d="M 1900 -1344 
L 1497 -1344 
Q 978 -681 681 103 
Q 384 888 384 1656 
Q 384 2528 700 3275 
Q 1016 4022 1497 4659 
L 1900 4659 
Q 1344 3747 1155 3059 
Q 966 2372 966 1663 
Q 966 153 1900 -1344 
z
" transform="scale(0.015625)"/>
        <path id="ArialUnicodeMS-29" d="M 634 4659 
Q 1153 3997 1450 3212 
Q 1747 2428 1747 1656 
Q 1747 788 1431 41 
Q 1116 -706 634 -1344 
L 231 -1344 
Q 788 -431 977 255 
Q 1166 941 1166 1650 
Q 1166 3163 231 4659 
L 634 4659 
z
" transform="scale(0.015625)"/>
       </defs>
       <use xlink:href="#ArialUnicodeMS-49"/>
       <use xlink:href="#ArialUnicodeMS-74" transform="translate(27.783203 0)"/>
       <use xlink:href="#ArialUnicodeMS-20" transform="translate(55.566406 0)"/>
       <use xlink:href="#ArialUnicodeMS-45" transform="translate(83.349609 0)"/>
       <use xlink:href="#ArialUnicodeMS-6e" transform="translate(150.048828 0)"/>
       <use xlink:href="#ArialUnicodeMS-64" transform="translate(205.664062 0)"/>
       <use xlink:href="#ArialUnicodeMS-73" transform="translate(261.279297 0)"/>
       <use xlink:href="#ArialUnicodeMS-20" transform="translate(311.279297 0)"/>
       <use xlink:href="#ArialUnicodeMS-77" transform="translate(339.0625 0)"/>
       <use xlink:href="#ArialUnicodeMS-69" transform="translate(411.279297 0)"/>
       <use xlink:href="#ArialUnicodeMS-74" transform="translate(433.496094 0)"/>
       <use xlink:href="#ArialUnicodeMS-68" transform="translate(461.279297 0)"/>
       <use xlink:href="#ArialUnicodeMS-20" transform="translate(516.894531 0)"/>
       <use xlink:href="#ArialUnicodeMS-55" transform="translate(544.677734 0)"/>
       <use xlink:href="#ArialUnicodeMS-73" transform="translate(616.894531 0)"/>
       <use xlink:href="#ArialUnicodeMS-3a" transform="translate(666.894531 0)"/>
       <use xlink:href="#ArialUnicodeMS-20" transform="translate(694.677734 0)"/>
       <use xlink:href="#ArialUnicodeMS-41" transform="translate(722.460938 0)"/>
       <use xlink:href="#ArialUnicodeMS-20" transform="translate(789.160156 0)"/>
       <use xlink:href="#ArialUnicodeMS-4e" transform="translate(816.943359 0)"/>
       <use xlink:href="#ArialUnicodeMS-6f" transform="translate(889.160156 0)"/>
       <use xlink:href="#ArialUnicodeMS-76" transform="translate(944.775391 0)"/>
       <use xlink:href="#ArialUnicodeMS-65" transform="translate(994.775391 0)"/>
       <use xlink:href="#ArialUnicodeMS-6c" transform="translate(1050.390625 0)"/>
       <use xlink:href="#ArialUnicodeMS-20" transform="translate(1072.607422 0)"/>
       <use xlink:href="#ArialUnicodeMS-28" transform="translate(1100.390625 0)"/>
       <use xlink:href="#ArialUnicodeMS-31" transform="translate(1133.691406 0)"/>
       <use xlink:href="#ArialUnicodeMS-29" transform="translate(1189.306641 0)"/>
      </g>
     </g>
    </g>
    <g id="ytick_3">
     <g id="line2d_6">
      <g>
       <use xlink:href="#m458f9af535" x="610.67" y="308.249972" style="stroke: #000000; stroke-width: 0.8"/>
      </g>
     </g>
     <g id="text_7">
      <!-- The Body Keeps the Score: Brain, Mind, and Body in the Healing of Trauma -->
      <g transform="translate(267.949687 311.889815) scale(0.1 -0.1)">
       <defs>
        <path id="ArialUnicodeMS-54" d="M 3769 4038 
L 2253 4038 
L 2253 0 
L 1644 0 
L 1644 4038 
L 141 4038 
L 141 4581 
L 3769 4581 
L 3769 4038 
z
" transform="scale(0.015625)"/>
        <path id="ArialUnicodeMS-79" d="M 3150 3316 
L 1881 -56 
Q 1878 -63 1875 -78 
Q 1694 -641 1451 -992 
Q 1209 -1344 763 -1344 
Q 613 -1344 397 -1281 
L 341 -750 
Q 503 -800 659 -800 
Q 972 -800 1092 -628 
Q 1213 -456 1363 -6 
L 103 3316 
L 709 3316 
L 1491 1144 
Q 1559 944 1638 628 
L 1650 628 
Q 1728 991 1850 1319 
L 2578 3316 
L 3150 3316 
z
" transform="scale(0.015625)"/>
        <path id="ArialUnicodeMS-4b" d="M 4256 0 
L 3456 0 
L 1831 2316 
L 1075 1588 
L 1075 0 
L 469 0 
L 469 4581 
L 1075 4581 
L 1075 2309 
L 3353 4581 
L 4172 4581 
L 2253 2725 
L 4256 0 
z
" transform="scale(0.015625)"/>
        <path id="ArialUnicodeMS-70" d="M 959 2888 
Q 1275 3391 1906 3391 
Q 2559 3391 2937 2917 
Q 3316 2444 3316 1684 
Q 3316 875 2897 398 
Q 2478 -78 1869 -78 
Q 1334 -78 1013 347 
L 997 347 
L 997 -1275 
L 434 -1275 
L 434 3316 
L 947 3316 
L 947 2888 
L 959 2888 
z
M 1831 384 
Q 2225 384 2483 711 
Q 2741 1038 2741 1684 
Q 2741 2294 2492 2622 
Q 2244 2950 1856 2950 
Q 1456 2950 1198 2584 
Q 941 2219 941 1638 
Q 941 1022 1187 703 
Q 1434 384 1831 384 
z
" transform="scale(0.015625)"/>
        <path id="ArialUnicodeMS-63" d="M 3144 1147 
Q 3034 513 2643 217 
Q 2253 -78 1759 -78 
Q 1038 -78 644 395 
Q 250 869 250 1650 
Q 250 2297 476 2686 
Q 703 3075 1043 3233 
Q 1384 3391 1759 3391 
Q 2272 3391 2636 3125 
Q 3000 2859 3084 2344 
L 2541 2259 
Q 2456 2594 2267 2762 
Q 2078 2931 1784 2931 
Q 1313 2931 1069 2597 
Q 825 2263 825 1663 
Q 825 1050 1064 717 
Q 1303 384 1753 384 
Q 2116 384 2323 592 
Q 2531 800 2584 1216 
L 3144 1147 
z
" transform="scale(0.015625)"/>
        <path id="ArialUnicodeMS-2c" d="M 1216 0 
Q 1216 -397 1064 -606 
Q 913 -816 691 -903 
L 538 -666 
Q 888 -516 891 0 
L 575 0 
L 575 641 
L 1216 641 
L 1216 0 
z
" transform="scale(0.015625)"/>
        <path id="ArialUnicodeMS-4d" d="M 4844 0 
L 4269 0 
L 4269 3834 
L 4256 3834 
L 2938 0 
L 2394 0 
L 1081 3897 
L 1063 3897 
L 1063 0 
L 488 0 
L 488 4581 
L 1394 4581 
L 2478 1338 
Q 2659 797 2688 659 
L 2700 659 
Q 2784 925 2944 1394 
L 4038 4581 
L 4844 4581 
L 4844 0 
z
" transform="scale(0.015625)"/>
        <path id="ArialUnicodeMS-48" d="M 4109 0 
L 3500 0 
L 3500 2156 
L 1119 2156 
L 1119 0 
L 513 0 
L 513 4581 
L 1119 4581 
L 1119 2700 
L 3500 2700 
L 3500 4581 
L 4109 4581 
L 4109 0 
z
" transform="scale(0.015625)"/>
        <path id="ArialUnicodeMS-66" d="M 1991 4603 
L 1906 4109 
Q 1738 4141 1575 4141 
Q 1372 4141 1242 4055 
Q 1113 3969 1113 3628 
L 1113 3316 
L 1753 3316 
L 1753 2881 
L 1113 2881 
L 1113 0 
L 550 0 
L 550 2881 
L 50 2881 
L 50 3316 
L 550 3316 
L 550 3675 
Q 550 3925 597 4128 
Q 644 4331 845 4495 
Q 1047 4659 1466 4659 
Q 1716 4659 1991 4603 
z
" transform="scale(0.015625)"/>
        <path id="ArialUnicodeMS-6d" d="M 4922 0 
L 4359 0 
L 4359 2094 
Q 4359 2325 4328 2489 
Q 4297 2653 4167 2779 
Q 4038 2906 3763 2906 
Q 3431 2906 3190 2675 
Q 2950 2444 2950 1925 
L 2950 0 
L 2388 0 
L 2388 2156 
Q 2388 2588 2236 2747 
Q 2084 2906 1806 2906 
Q 1444 2906 1211 2656 
Q 978 2406 978 1722 
L 978 0 
L 416 0 
L 416 3316 
L 922 3316 
L 922 2853 
L 934 2853 
Q 1272 3391 1925 3391 
Q 2291 3391 2527 3245 
Q 2763 3100 2869 2809 
Q 3238 3391 3891 3391 
Q 4406 3391 4664 3112 
Q 4922 2834 4922 2278 
L 4922 0 
z
" transform="scale(0.015625)"/>
       </defs>
       <use xlink:href="#ArialUnicodeMS-54"/>
       <use xlink:href="#ArialUnicodeMS-68" transform="translate(61.083984 0)"/>
       <use xlink:href="#ArialUnicodeMS-65" transform="translate(116.699219 0)"/>
       <use xlink:href="#ArialUnicodeMS-20" transform="translate(172.314453 0)"/>
       <use xlink:href="#ArialUnicodeMS-42" transform="translate(200.097656 0)"/>
       <use xlink:href="#ArialUnicodeMS-6f" transform="translate(266.796875 0)"/>
       <use xlink:href="#ArialUnicodeMS-64" transform="translate(322.412109 0)"/>
       <use xlink:href="#ArialUnicodeMS-79" transform="translate(378.027344 0)"/>
       <use xlink:href="#ArialUnicodeMS-20" transform="translate(428.027344 0)"/>
       <use xlink:href="#ArialUnicodeMS-4b" transform="translate(455.810547 0)"/>
       <use xlink:href="#ArialUnicodeMS-65" transform="translate(522.509766 0)"/>
       <use xlink:href="#ArialUnicodeMS-65" transform="translate(578.125 0)"/>
       <use xlink:href="#ArialUnicodeMS-70" transform="translate(633.740234 0)"/>
       <use xlink:href="#ArialUnicodeMS-73" transform="translate(689.355469 0)"/>
       <use xlink:href="#ArialUnicodeMS-20" transform="translate(739.355469 0)"/>
       <use xlink:href="#ArialUnicodeMS-74" transform="translate(767.138672 0)"/>
       <use xlink:href="#ArialUnicodeMS-68" transform="translate(794.921875 0)"/>
       <use xlink:href="#ArialUnicodeMS-65" transform="translate(850.537109 0)"/>
       <use xlink:href="#ArialUnicodeMS-20" transform="translate(906.152344 0)"/>
       <use xlink:href="#ArialUnicodeMS-53" transform="translate(933.935547 0)"/>
       <use xlink:href="#ArialUnicodeMS-63" transform="translate(1000.634766 0)"/>
       <use xlink:href="#ArialUnicodeMS-6f" transform="translate(1050.634766 0)"/>
       <use xlink:href="#ArialUnicodeMS-72" transform="translate(1106.25 0)"/>
       <use xlink:href="#ArialUnicodeMS-65" transform="translate(1139.550781 0)"/>
       <use xlink:href="#ArialUnicodeMS-3a" transform="translate(1195.166016 0)"/>
       <use xlink:href="#ArialUnicodeMS-20" transform="translate(1222.949219 0)"/>
       <use xlink:href="#ArialUnicodeMS-42" transform="translate(1250.732422 0)"/>
       <use xlink:href="#ArialUnicodeMS-72" transform="translate(1317.431641 0)"/>
       <use xlink:href="#ArialUnicodeMS-61" transform="translate(1350.732422 0)"/>
       <use xlink:href="#ArialUnicodeMS-69" transform="translate(1406.347656 0)"/>
       <use xlink:href="#ArialUnicodeMS-6e" transform="translate(1428.564453 0)"/>
       <use xlink:href="#ArialUnicodeMS-2c" transform="translate(1484.179688 0)"/>
       <use xlink:href="#ArialUnicodeMS-20" transform="translate(1511.962891 0)"/>
       <use xlink:href="#ArialUnicodeMS-4d" transform="translate(1539.746094 0)"/>
       <use xlink:href="#ArialUnicodeMS-69" transform="translate(1623.046875 0)"/>
       <use xlink:href="#ArialUnicodeMS-6e" transform="translate(1645.263672 0)"/>
       <use xlink:href="#ArialUnicodeMS-64" transform="translate(1700.878906 0)"/>
       <use xlink:href="#ArialUnicodeMS-2c" transform="translate(1756.494141 0)"/>
       <use xlink:href="#ArialUnicodeMS-20" transform="translate(1784.277344 0)"/>
       <use xlink:href="#ArialUnicodeMS-61" transform="translate(1812.060547 0)"/>
       <use xlink:href="#ArialUnicodeMS-6e" transform="translate(1867.675781 0)"/>
       <use xlink:href="#ArialUnicodeMS-64" transform="translate(1923.291016 0)"/>
       <use xlink:href="#ArialUnicodeMS-20" transform="translate(1978.90625 0)"/>
       <use xlink:href="#ArialUnicodeMS-42" transform="translate(2006.689453 0)"/>
       <use xlink:href="#ArialUnicodeMS-6f" transform="translate(2073.388672 0)"/>
       <use xlink:href="#ArialUnicodeMS-64" transform="translate(2129.003906 0)"/>
       <use xlink:href="#ArialUnicodeMS-79" transform="translate(2184.619141 0)"/>
       <use xlink:href="#ArialUnicodeMS-20" transform="translate(2234.619141 0)"/>
       <use xlink:href="#ArialUnicodeMS-69" transform="translate(2262.402344 0)"/>
       <use xlink:href="#ArialUnicodeMS-6e" transform="translate(2284.619141 0)"/>
       <use xlink:href="#ArialUnicodeMS-20" transform="translate(2340.234375 0)"/>
       <use xlink:href="#ArialUnicodeMS-74" transform="translate(2368.017578 0)"/>
       <use xlink:href="#ArialUnicodeMS-68" transform="translate(2395.800781 0)"/>
       <use xlink:href="#ArialUnicodeMS-65" transform="translate(2451.416016 0)"/>
       <use xlink:href="#ArialUnicodeMS-20" transform="translate(2507.03125 0)"/>
       <use xlink:href="#ArialUnicodeMS-48" transform="translate(2534.814453 0)"/>
       <use xlink:href="#ArialUnicodeMS-65" transform="translate(2607.03125 0)"/>
       <use xlink:href="#ArialUnicodeMS-61" transform="translate(2662.646484 0)"/>
       <use xlink:href="#ArialUnicodeMS-6c" transform="translate(2718.261719 0)"/>
       <use xlink:href="#ArialUnicodeMS-69" transform="translate(2740.478516 0)"/>
       <use xlink:href="#ArialUnicodeMS-6e" transform="translate(2762.695312 0)"/>
       <use xlink:href="#ArialUnicodeMS-67" transform="translate(2818.310547 0)"/>
       <use xlink:href="#ArialUnicodeMS-20" transform="translate(2873.925781 0)"/>
       <use xlink:href="#ArialUnicodeMS-6f" transform="translate(2901.708984 0)"/>
       <use xlink:href="#ArialUnicodeMS-66" transform="translate(2957.324219 0)"/>
       <use xlink:href="#ArialUnicodeMS-20" transform="translate(2985.107422 0)"/>
       <use xlink:href="#ArialUnicodeMS-54" transform="translate(3012.890625 0)"/>
       <use xlink:href="#ArialUnicodeMS-72" transform="translate(3073.974609 0)"/>
       <use xlink:href="#ArialUnicodeMS-61" transform="translate(3107.275391 0)"/>
       <use xlink:href="#ArialUnicodeMS-75" transform="translate(3162.890625 0)"/>
       <use xlink:href="#ArialUnicodeMS-6d" transform="translate(3218.505859 0)"/>
       <use xlink:href="#ArialUnicodeMS-61" transform="translate(3301.806641 0)"/>
      </g>
     </g>
    </g>
    <g id="ytick_4">
     <g id="line2d_7">
      <g>
       <use xlink:href="#m458f9af535" x="610.67" y="274.97821" style="stroke: #000000; stroke-width: 0.8"/>
      </g>
     </g>
     <g id="text_8">
      <!-- First 100 Words: A padded board book -->
      <g transform="translate(431.92 278.574304) scale(0.1 -0.1)">
       <defs>
        <path id="ArialUnicodeMS-46" d="M 3603 4038 
L 1119 4038 
L 1119 2619 
L 3272 2619 
L 3272 2075 
L 1119 2075 
L 1119 0 
L 513 0 
L 513 4581 
L 3603 4581 
L 3603 4038 
z
" transform="scale(0.015625)"/>
       </defs>
       <use xlink:href="#ArialUnicodeMS-46"/>
       <use xlink:href="#ArialUnicodeMS-69" transform="translate(61.083984 0)"/>
       <use xlink:href="#ArialUnicodeMS-72" transform="translate(83.300781 0)"/>
       <use xlink:href="#ArialUnicodeMS-73" transform="translate(116.601562 0)"/>
       <use xlink:href="#ArialUnicodeMS-74" transform="translate(166.601562 0)"/>
       <use xlink:href="#ArialUnicodeMS-20" transform="translate(194.384766 0)"/>
       <use xlink:href="#ArialUnicodeMS-31" transform="translate(222.167969 0)"/>
       <use xlink:href="#ArialUnicodeMS-30" transform="translate(277.783203 0)"/>
       <use xlink:href="#ArialUnicodeMS-30" transform="translate(333.398438 0)"/>
       <use xlink:href="#ArialUnicodeMS-20" transform="translate(389.013672 0)"/>
       <use xlink:href="#ArialUnicodeMS-57" transform="translate(416.796875 0)"/>
       <use xlink:href="#ArialUnicodeMS-6f" transform="translate(511.181641 0)"/>
       <use xlink:href="#ArialUnicodeMS-72" transform="translate(566.796875 0)"/>
       <use xlink:href="#ArialUnicodeMS-64" transform="translate(600.097656 0)"/>
       <use xlink:href="#ArialUnicodeMS-73" transform="translate(655.712891 0)"/>
       <use xlink:href="#ArialUnicodeMS-3a" transform="translate(705.712891 0)"/>
       <use xlink:href="#ArialUnicodeMS-20" transform="translate(733.496094 0)"/>
       <use xlink:href="#ArialUnicodeMS-41" transform="translate(761.279297 0)"/>
       <use xlink:href="#ArialUnicodeMS-20" transform="translate(827.978516 0)"/>
       <use xlink:href="#ArialUnicodeMS-70" transform="translate(855.761719 0)"/>
       <use xlink:href="#ArialUnicodeMS-61" transform="translate(911.376953 0)"/>
       <use xlink:href="#ArialUnicodeMS-64" transform="translate(966.992188 0)"/>
       <use xlink:href="#ArialUnicodeMS-64" transform="translate(1022.607422 0)"/>
       <use xlink:href="#ArialUnicodeMS-65" transform="translate(1078.222656 0)"/>
       <use xlink:href="#ArialUnicodeMS-64" transform="translate(1133.837891 0)"/>
       <use xlink:href="#ArialUnicodeMS-20" transform="translate(1189.453125 0)"/>
       <use xlink:href="#ArialUnicodeMS-62" transform="translate(1217.236328 0)"/>
       <use xlink:href="#ArialUnicodeMS-6f" transform="translate(1272.851562 0)"/>
       <use xlink:href="#ArialUnicodeMS-61" transform="translate(1328.466797 0)"/>
       <use xlink:href="#ArialUnicodeMS-72" transform="translate(1384.082031 0)"/>
       <use xlink:href="#ArialUnicodeMS-64" transform="translate(1417.382812 0)"/>
       <use xlink:href="#ArialUnicodeMS-20" transform="translate(1472.998047 0)"/>
       <use xlink:href="#ArialUnicodeMS-62" transform="translate(1500.78125 0)"/>
       <use xlink:href="#ArialUnicodeMS-6f" transform="translate(1556.396484 0)"/>
       <use xlink:href="#ArialUnicodeMS-6f" transform="translate(1612.011719 0)"/>
       <use xlink:href="#ArialUnicodeMS-6b" transform="translate(1667.626953 0)"/>
      </g>
     </g>
    </g>
    <g id="ytick_5">
     <g id="line2d_8">
      <g>
       <use xlink:href="#m458f9af535" x="610.67" y="241.706449" style="stroke: #000000; stroke-width: 0.8"/>
      </g>
     </g>
     <g id="text_9">
      <!-- Now, Discover Your Strengths: The revolutionary Gallup program that shows you how to develop your unique talents and strengths -->
      <g transform="translate(25.066875 245.346293) scale(0.1 -0.1)">
       <defs>
        <path id="ArialUnicodeMS-44" d="M 513 4581 
L 2094 4581 
Q 2509 4581 2809 4539 
Q 3109 4497 3382 4333 
Q 3656 4169 3861 3881 
Q 4066 3594 4183 3220 
Q 4300 2847 4300 2316 
Q 4300 1303 3819 651 
Q 3338 0 2163 0 
L 513 0 
L 513 4581 
z
M 1119 544 
L 2100 544 
Q 2400 544 2636 581 
Q 2872 619 3114 784 
Q 3356 950 3515 1328 
Q 3675 1706 3675 2328 
Q 3675 2672 3614 2970 
Q 3553 3269 3389 3514 
Q 3225 3759 3012 3873 
Q 2800 3988 2598 4013 
Q 2397 4038 2081 4038 
L 1119 4038 
L 1119 544 
z
" transform="scale(0.015625)"/>
        <path id="ArialUnicodeMS-59" d="M 4231 4581 
L 2406 1941 
L 2406 0 
L 1797 0 
L 1797 1941 
L 31 4581 
L 769 4581 
L 1775 3041 
Q 1928 2806 2138 2425 
Q 2269 2681 3525 4581 
L 4231 4581 
z
" transform="scale(0.015625)"/>
        <path id="ArialUnicodeMS-47" d="M 4569 641 
Q 3703 -78 2675 -78 
Q 1622 -78 976 564 
Q 331 1206 331 2272 
Q 331 2922 595 3483 
Q 859 4044 1373 4351 
Q 1888 4659 2631 4659 
Q 3403 4659 3870 4320 
Q 4338 3981 4500 3303 
L 3956 3150 
Q 3828 3644 3497 3892 
Q 3166 4141 2631 4141 
Q 1803 4141 1381 3634 
Q 959 3128 959 2309 
Q 959 1697 1164 1290 
Q 1369 884 1770 676 
Q 2172 469 2644 469 
Q 3363 469 3981 941 
L 3981 1791 
L 2631 1791 
L 2631 2338 
L 4569 2338 
L 4569 641 
z
" transform="scale(0.015625)"/>
        <path id="ArialUnicodeMS-71" d="M 3122 -1275 
L 2559 -1275 
L 2559 347 
L 2547 347 
Q 2222 -78 1691 -78 
Q 1078 -78 661 398 
Q 244 875 244 1684 
Q 244 2444 622 2917 
Q 1000 3391 1650 3391 
Q 2281 3391 2597 2888 
L 2613 2888 
L 2613 3316 
L 3122 3316 
L 3122 -1275 
z
M 1728 384 
Q 2125 384 2372 703 
Q 2619 1022 2619 1638 
Q 2619 2219 2362 2584 
Q 2106 2950 1703 2950 
Q 1316 2950 1067 2622 
Q 819 2294 819 1684 
Q 819 1256 934 965 
Q 1050 675 1262 529 
Q 1475 384 1728 384 
z
" transform="scale(0.015625)"/>
       </defs>
       <use xlink:href="#ArialUnicodeMS-4e"/>
       <use xlink:href="#ArialUnicodeMS-6f" transform="translate(72.216797 0)"/>
       <use xlink:href="#ArialUnicodeMS-77" transform="translate(127.832031 0)"/>
       <use xlink:href="#ArialUnicodeMS-2c" transform="translate(200.048828 0)"/>
       <use xlink:href="#ArialUnicodeMS-20" transform="translate(227.832031 0)"/>
       <use xlink:href="#ArialUnicodeMS-44" transform="translate(255.615234 0)"/>
       <use xlink:href="#ArialUnicodeMS-69" transform="translate(327.832031 0)"/>
       <use xlink:href="#ArialUnicodeMS-73" transform="translate(350.048828 0)"/>
       <use xlink:href="#ArialUnicodeMS-63" transform="translate(400.048828 0)"/>
       <use xlink:href="#ArialUnicodeMS-6f" transform="translate(450.048828 0)"/>
       <use xlink:href="#ArialUnicodeMS-76" transform="translate(505.664062 0)"/>
       <use xlink:href="#ArialUnicodeMS-65" transform="translate(555.664062 0)"/>
       <use xlink:href="#ArialUnicodeMS-72" transform="translate(611.279297 0)"/>
       <use xlink:href="#ArialUnicodeMS-20" transform="translate(644.580078 0)"/>
       <use xlink:href="#ArialUnicodeMS-59" transform="translate(672.363281 0)"/>
       <use xlink:href="#ArialUnicodeMS-6f" transform="translate(739.0625 0)"/>
       <use xlink:href="#ArialUnicodeMS-75" transform="translate(794.677734 0)"/>
       <use xlink:href="#ArialUnicodeMS-72" transform="translate(850.292969 0)"/>
       <use xlink:href="#ArialUnicodeMS-20" transform="translate(883.59375 0)"/>
       <use xlink:href="#ArialUnicodeMS-53" transform="translate(911.376953 0)"/>
       <use xlink:href="#ArialUnicodeMS-74" transform="translate(978.076172 0)"/>
       <use xlink:href="#ArialUnicodeMS-72" transform="translate(1005.859375 0)"/>
       <use xlink:href="#ArialUnicodeMS-65" transform="translate(1039.160156 0)"/>
       <use xlink:href="#ArialUnicodeMS-6e" transform="translate(1094.775391 0)"/>
       <use xlink:href="#ArialUnicodeMS-67" transform="translate(1150.390625 0)"/>
       <use xlink:href="#ArialUnicodeMS-74" transform="translate(1206.005859 0)"/>
       <use xlink:href="#ArialUnicodeMS-68" transform="translate(1233.789062 0)"/>
       <use xlink:href="#ArialUnicodeMS-73" transform="translate(1289.404297 0)"/>
       <use xlink:href="#ArialUnicodeMS-3a" transform="translate(1339.404297 0)"/>
       <use xlink:href="#ArialUnicodeMS-20" transform="translate(1367.1875 0)"/>
       <use xlink:href="#ArialUnicodeMS-54" transform="translate(1394.970703 0)"/>
       <use xlink:href="#ArialUnicodeMS-68" transform="translate(1456.054688 0)"/>
       <use xlink:href="#ArialUnicodeMS-65" transform="translate(1511.669922 0)"/>
       <use xlink:href="#ArialUnicodeMS-20" transform="translate(1567.285156 0)"/>
       <use xlink:href="#ArialUnicodeMS-72" transform="translate(1595.068359 0)"/>
       <use xlink:href="#ArialUnicodeMS-65" transform="translate(1628.369141 0)"/>
       <use xlink:href="#ArialUnicodeMS-76" transform="translate(1683.984375 0)"/>
       <use xlink:href="#ArialUnicodeMS-6f" transform="translate(1733.984375 0)"/>
       <use xlink:href="#ArialUnicodeMS-6c" transform="translate(1789.599609 0)"/>
       <use xlink:href="#ArialUnicodeMS-75" transform="translate(1811.816406 0)"/>
       <use xlink:href="#ArialUnicodeMS-74" transform="translate(1867.431641 0)"/>
       <use xlink:href="#ArialUnicodeMS-69" transform="translate(1895.214844 0)"/>
       <use xlink:href="#ArialUnicodeMS-6f" transform="translate(1917.431641 0)"/>
       <use xlink:href="#ArialUnicodeMS-6e" transform="translate(1973.046875 0)"/>
       <use xlink:href="#ArialUnicodeMS-61" transform="translate(2028.662109 0)"/>
       <use xlink:href="#ArialUnicodeMS-72" transform="translate(2084.277344 0)"/>
       <use xlink:href="#ArialUnicodeMS-79" transform="translate(2117.578125 0)"/>
       <use xlink:href="#ArialUnicodeMS-20" transform="translate(2167.578125 0)"/>
       <use xlink:href="#ArialUnicodeMS-47" transform="translate(2195.361328 0)"/>
       <use xlink:href="#ArialUnicodeMS-61" transform="translate(2273.144531 0)"/>
       <use xlink:href="#ArialUnicodeMS-6c" transform="translate(2328.759766 0)"/>
       <use xlink:href="#ArialUnicodeMS-6c" transform="translate(2350.976562 0)"/>
       <use xlink:href="#ArialUnicodeMS-75" transform="translate(2373.193359 0)"/>
       <use xlink:href="#ArialUnicodeMS-70" transform="translate(2428.808594 0)"/>
       <use xlink:href="#ArialUnicodeMS-20" transform="translate(2484.423828 0)"/>
       <use xlink:href="#ArialUnicodeMS-70" transform="translate(2512.207031 0)"/>
       <use xlink:href="#ArialUnicodeMS-72" transform="translate(2567.822266 0)"/>
       <use xlink:href="#ArialUnicodeMS-6f" transform="translate(2601.123047 0)"/>
       <use xlink:href="#ArialUnicodeMS-67" transform="translate(2656.738281 0)"/>
       <use xlink:href="#ArialUnicodeMS-72" transform="translate(2712.353516 0)"/>
       <use xlink:href="#ArialUnicodeMS-61" transform="translate(2745.654297 0)"/>
       <use xlink:href="#ArialUnicodeMS-6d" transform="translate(2801.269531 0)"/>
       <use xlink:href="#ArialUnicodeMS-20" transform="translate(2884.570312 0)"/>
       <use xlink:href="#ArialUnicodeMS-74" transform="translate(2912.353516 0)"/>
       <use xlink:href="#ArialUnicodeMS-68" transform="translate(2940.136719 0)"/>
       <use xlink:href="#ArialUnicodeMS-61" transform="translate(2995.751953 0)"/>
       <use xlink:href="#ArialUnicodeMS-74" transform="translate(3051.367188 0)"/>
       <use xlink:href="#ArialUnicodeMS-20" transform="translate(3079.150391 0)"/>
       <use xlink:href="#ArialUnicodeMS-73" transform="translate(3106.933594 0)"/>
       <use xlink:href="#ArialUnicodeMS-68" transform="translate(3156.933594 0)"/>
       <use xlink:href="#ArialUnicodeMS-6f" transform="translate(3212.548828 0)"/>
       <use xlink:href="#ArialUnicodeMS-77" transform="translate(3268.164062 0)"/>
       <use xlink:href="#ArialUnicodeMS-73" transform="translate(3340.380859 0)"/>
       <use xlink:href="#ArialUnicodeMS-20" transform="translate(3390.380859 0)"/>
       <use xlink:href="#ArialUnicodeMS-79" transform="translate(3418.164062 0)"/>
       <use xlink:href="#ArialUnicodeMS-6f" transform="translate(3468.164062 0)"/>
       <use xlink:href="#ArialUnicodeMS-75" transform="translate(3523.779297 0)"/>
       <use xlink:href="#ArialUnicodeMS-20" transform="translate(3579.394531 0)"/>
       <use xlink:href="#ArialUnicodeMS-68" transform="translate(3607.177734 0)"/>
       <use xlink:href="#ArialUnicodeMS-6f" transform="translate(3662.792969 0)"/>
       <use xlink:href="#ArialUnicodeMS-77" transform="translate(3718.408203 0)"/>
       <use xlink:href="#ArialUnicodeMS-20" transform="translate(3790.625 0)"/>
       <use xlink:href="#ArialUnicodeMS-74" transform="translate(3818.408203 0)"/>
       <use xlink:href="#ArialUnicodeMS-6f" transform="translate(3846.191406 0)"/>
       <use xlink:href="#ArialUnicodeMS-20" transform="translate(3901.806641 0)"/>
       <use xlink:href="#ArialUnicodeMS-64" transform="translate(3929.589844 0)"/>
       <use xlink:href="#ArialUnicodeMS-65" transform="translate(3985.205078 0)"/>
       <use xlink:href="#ArialUnicodeMS-76" transform="translate(4040.820312 0)"/>
       <use xlink:href="#ArialUnicodeMS-65" transform="translate(4090.820312 0)"/>
       <use xlink:href="#ArialUnicodeMS-6c" transform="translate(4146.435547 0)"/>
       <use xlink:href="#ArialUnicodeMS-6f" transform="translate(4168.652344 0)"/>
       <use xlink:href="#ArialUnicodeMS-70" transform="translate(4224.267578 0)"/>
       <use xlink:href="#ArialUnicodeMS-20" transform="translate(4279.882812 0)"/>
       <use xlink:href="#ArialUnicodeMS-79" transform="translate(4307.666016 0)"/>
       <use xlink:href="#ArialUnicodeMS-6f" transform="translate(4357.666016 0)"/>
       <use xlink:href="#ArialUnicodeMS-75" transform="translate(4413.28125 0)"/>
       <use xlink:href="#ArialUnicodeMS-72" transform="translate(4468.896484 0)"/>
       <use xlink:href="#ArialUnicodeMS-20" transform="translate(4502.197266 0)"/>
       <use xlink:href="#ArialUnicodeMS-75" transform="translate(4529.980469 0)"/>
       <use xlink:href="#ArialUnicodeMS-6e" transform="translate(4585.595703 0)"/>
       <use xlink:href="#ArialUnicodeMS-69" transform="translate(4641.210938 0)"/>
       <use xlink:href="#ArialUnicodeMS-71" transform="translate(4663.427734 0)"/>
       <use xlink:href="#ArialUnicodeMS-75" transform="translate(4719.042969 0)"/>
       <use xlink:href="#ArialUnicodeMS-65" transform="translate(4774.658203 0)"/>
       <use xlink:href="#ArialUnicodeMS-20" transform="translate(4830.273438 0)"/>
       <use xlink:href="#ArialUnicodeMS-74" transform="translate(4858.056641 0)"/>
       <use xlink:href="#ArialUnicodeMS-61" transform="translate(4885.839844 0)"/>
       <use xlink:href="#ArialUnicodeMS-6c" transform="translate(4941.455078 0)"/>
       <use xlink:href="#ArialUnicodeMS-65" transform="translate(4963.671875 0)"/>
       <use xlink:href="#ArialUnicodeMS-6e" transform="translate(5019.287109 0)"/>
       <use xlink:href="#ArialUnicodeMS-74" transform="translate(5074.902344 0)"/>
       <use xlink:href="#ArialUnicodeMS-73" transform="translate(5102.685547 0)"/>
       <use xlink:href="#ArialUnicodeMS-20" transform="translate(5152.685547 0)"/>
       <use xlink:href="#ArialUnicodeMS-61" transform="translate(5180.46875 0)"/>
       <use xlink:href="#ArialUnicodeMS-6e" transform="translate(5236.083984 0)"/>
       <use xlink:href="#ArialUnicodeMS-64" transform="translate(5291.699219 0)"/>
       <use xlink:href="#ArialUnicodeMS-20" transform="translate(5347.314453 0)"/>
       <use xlink:href="#ArialUnicodeMS-73" transform="translate(5375.097656 0)"/>
       <use xlink:href="#ArialUnicodeMS-74" transform="translate(5425.097656 0)"/>
       <use xlink:href="#ArialUnicodeMS-72" transform="translate(5452.880859 0)"/>
       <use xlink:href="#ArialUnicodeMS-65" transform="translate(5486.181641 0)"/>
       <use xlink:href="#ArialUnicodeMS-6e" transform="translate(5541.796875 0)"/>
       <use xlink:href="#ArialUnicodeMS-67" transform="translate(5597.412109 0)"/>
       <use xlink:href="#ArialUnicodeMS-74" transform="translate(5653.027344 0)"/>
       <use xlink:href="#ArialUnicodeMS-68" transform="translate(5680.810547 0)"/>
       <use xlink:href="#ArialUnicodeMS-73" transform="translate(5736.425781 0)"/>
      </g>
     </g>
    </g>
    <g id="ytick_6">
     <g id="line2d_9">
      <g>
       <use xlink:href="#m458f9af535" x="610.67" y="208.434688" style="stroke: #000000; stroke-width: 0.8"/>
      </g>
     </g>
     <g id="text_10">
      <!-- Body for Life: 12 Weeks to Mental and Physical Strength -->
      <g transform="translate(353.552812 212.074531) scale(0.1 -0.1)">
       <defs>
        <path id="ArialUnicodeMS-4c" d="M 3347 0 
L 481 0 
L 481 4581 
L 1088 4581 
L 1088 544 
L 3347 544 
L 3347 0 
z
" transform="scale(0.015625)"/>
        <path id="ArialUnicodeMS-32" d="M 3231 0 
L 197 0 
Q 197 388 467 784 
Q 738 1181 1478 1778 
Q 1931 2141 2287 2539 
Q 2644 2938 2644 3341 
Q 2644 3688 2398 3914 
Q 2153 4141 1778 4141 
Q 1400 4141 1144 3908 
Q 888 3675 884 3213 
L 306 3278 
Q 359 3922 764 4262 
Q 1169 4603 1791 4603 
Q 2466 4603 2842 4229 
Q 3219 3856 3219 3328 
Q 3219 2888 2901 2436 
Q 2584 1984 1638 1228 
Q 1141 831 978 544 
L 3231 544 
L 3231 0 
z
" transform="scale(0.015625)"/>
        <path id="ArialUnicodeMS-50" d="M 494 4581 
L 2222 4581 
Q 2631 4581 2926 4540 
Q 3222 4500 3475 4329 
Q 3728 4159 3858 3867 
Q 3988 3575 3988 3256 
Q 3988 2622 3580 2239 
Q 3172 1856 2272 1856 
L 1100 1856 
L 1100 0 
L 494 0 
L 494 4581 
z
M 1100 2400 
L 2278 2400 
Q 3359 2400 3359 3238 
Q 3359 3513 3218 3723 
Q 3078 3934 2873 3986 
Q 2669 4038 2266 4038 
L 1100 4038 
L 1100 2400 
z
" transform="scale(0.015625)"/>
       </defs>
       <use xlink:href="#ArialUnicodeMS-42"/>
       <use xlink:href="#ArialUnicodeMS-6f" transform="translate(66.699219 0)"/>
       <use xlink:href="#ArialUnicodeMS-64" transform="translate(122.314453 0)"/>
       <use xlink:href="#ArialUnicodeMS-79" transform="translate(177.929688 0)"/>
       <use xlink:href="#ArialUnicodeMS-20" transform="translate(227.929688 0)"/>
       <use xlink:href="#ArialUnicodeMS-66" transform="translate(255.712891 0)"/>
       <use xlink:href="#ArialUnicodeMS-6f" transform="translate(283.496094 0)"/>
       <use xlink:href="#ArialUnicodeMS-72" transform="translate(339.111328 0)"/>
       <use xlink:href="#ArialUnicodeMS-20" transform="translate(372.412109 0)"/>
       <use xlink:href="#ArialUnicodeMS-4c" transform="translate(400.195312 0)"/>
       <use xlink:href="#ArialUnicodeMS-69" transform="translate(455.810547 0)"/>
       <use xlink:href="#ArialUnicodeMS-66" transform="translate(478.027344 0)"/>
       <use xlink:href="#ArialUnicodeMS-65" transform="translate(505.810547 0)"/>
       <use xlink:href="#ArialUnicodeMS-3a" transform="translate(561.425781 0)"/>
       <use xlink:href="#ArialUnicodeMS-20" transform="translate(589.208984 0)"/>
       <use xlink:href="#ArialUnicodeMS-31" transform="translate(616.992188 0)"/>
       <use xlink:href="#ArialUnicodeMS-32" transform="translate(672.607422 0)"/>
       <use xlink:href="#ArialUnicodeMS-20" transform="translate(728.222656 0)"/>
       <use xlink:href="#ArialUnicodeMS-57" transform="translate(756.005859 0)"/>
       <use xlink:href="#ArialUnicodeMS-65" transform="translate(850.390625 0)"/>
       <use xlink:href="#ArialUnicodeMS-65" transform="translate(906.005859 0)"/>
       <use xlink:href="#ArialUnicodeMS-6b" transform="translate(961.621094 0)"/>
       <use xlink:href="#ArialUnicodeMS-73" transform="translate(1011.621094 0)"/>
       <use xlink:href="#ArialUnicodeMS-20" transform="translate(1061.621094 0)"/>
       <use xlink:href="#ArialUnicodeMS-74" transform="translate(1089.404297 0)"/>
       <use xlink:href="#ArialUnicodeMS-6f" transform="translate(1117.1875 0)"/>
       <use xlink:href="#ArialUnicodeMS-20" transform="translate(1172.802734 0)"/>
       <use xlink:href="#ArialUnicodeMS-4d" transform="translate(1200.585938 0)"/>
       <use xlink:href="#ArialUnicodeMS-65" transform="translate(1283.886719 0)"/>
       <use xlink:href="#ArialUnicodeMS-6e" transform="translate(1339.501953 0)"/>
       <use xlink:href="#ArialUnicodeMS-74" transform="translate(1395.117188 0)"/>
       <use xlink:href="#ArialUnicodeMS-61" transform="translate(1422.900391 0)"/>
       <use xlink:href="#ArialUnicodeMS-6c" transform="translate(1478.515625 0)"/>
       <use xlink:href="#ArialUnicodeMS-20" transform="translate(1500.732422 0)"/>
       <use xlink:href="#ArialUnicodeMS-61" transform="translate(1528.515625 0)"/>
       <use xlink:href="#ArialUnicodeMS-6e" transform="translate(1584.130859 0)"/>
       <use xlink:href="#ArialUnicodeMS-64" transform="translate(1639.746094 0)"/>
       <use xlink:href="#ArialUnicodeMS-20" transform="translate(1695.361328 0)"/>
       <use xlink:href="#ArialUnicodeMS-50" transform="translate(1723.144531 0)"/>
       <use xlink:href="#ArialUnicodeMS-68" transform="translate(1789.84375 0)"/>
       <use xlink:href="#ArialUnicodeMS-79" transform="translate(1845.458984 0)"/>
       <use xlink:href="#ArialUnicodeMS-73" transform="translate(1895.458984 0)"/>
       <use xlink:href="#ArialUnicodeMS-69" transform="translate(1945.458984 0)"/>
       <use xlink:href="#ArialUnicodeMS-63" transform="translate(1967.675781 0)"/>
       <use xlink:href="#ArialUnicodeMS-61" transform="translate(2017.675781 0)"/>
       <use xlink:href="#ArialUnicodeMS-6c" transform="translate(2073.291016 0)"/>
       <use xlink:href="#ArialUnicodeMS-20" transform="translate(2095.507812 0)"/>
       <use xlink:href="#ArialUnicodeMS-53" transform="translate(2123.291016 0)"/>
       <use xlink:href="#ArialUnicodeMS-74" transform="translate(2189.990234 0)"/>
       <use xlink:href="#ArialUnicodeMS-72" transform="translate(2217.773438 0)"/>
       <use xlink:href="#ArialUnicodeMS-65" transform="translate(2251.074219 0)"/>
       <use xlink:href="#ArialUnicodeMS-6e" transform="translate(2306.689453 0)"/>
       <use xlink:href="#ArialUnicodeMS-67" transform="translate(2362.304688 0)"/>
       <use xlink:href="#ArialUnicodeMS-74" transform="translate(2417.919922 0)"/>
       <use xlink:href="#ArialUnicodeMS-68" transform="translate(2445.703125 0)"/>
      </g>
     </g>
    </g>
    <g id="ytick_7">
     <g id="line2d_10">
      <g>
       <use xlink:href="#m458f9af535" x="610.67" y="175.162926" style="stroke: #000000; stroke-width: 0.8"/>
      </g>
     </g>
     <g id="text_11">
      <!-- Mockingjay (The Hunger Games) -->
      <g transform="translate(456.404375 178.80277) scale(0.1 -0.1)">
       <defs>
        <path id="ArialUnicodeMS-6a" d="M 991 -178 
Q 991 -506 947 -742 
Q 903 -978 720 -1158 
Q 538 -1338 153 -1338 
Q -69 -1338 -288 -1281 
L -178 -806 
Q -22 -850 84 -850 
Q 266 -850 347 -728 
Q 428 -606 428 -166 
L 428 3316 
L 991 3316 
L 991 -178 
z
M 991 3944 
L 428 3944 
L 428 4581 
L 991 4581 
L 991 3944 
z
" transform="scale(0.015625)"/>
       </defs>
       <use xlink:href="#ArialUnicodeMS-4d"/>
       <use xlink:href="#ArialUnicodeMS-6f" transform="translate(83.300781 0)"/>
       <use xlink:href="#ArialUnicodeMS-63" transform="translate(138.916016 0)"/>
       <use xlink:href="#ArialUnicodeMS-6b" transform="translate(188.916016 0)"/>
       <use xlink:href="#ArialUnicodeMS-69" transform="translate(238.916016 0)"/>
       <use xlink:href="#ArialUnicodeMS-6e" transform="translate(261.132812 0)"/>
       <use xlink:href="#ArialUnicodeMS-67" transform="translate(316.748047 0)"/>
       <use xlink:href="#ArialUnicodeMS-6a" transform="translate(372.363281 0)"/>
       <use xlink:href="#ArialUnicodeMS-61" transform="translate(394.580078 0)"/>
       <use xlink:href="#ArialUnicodeMS-79" transform="translate(450.195312 0)"/>
       <use xlink:href="#ArialUnicodeMS-20" transform="translate(500.195312 0)"/>
       <use xlink:href="#ArialUnicodeMS-28" transform="translate(527.978516 0)"/>
       <use xlink:href="#ArialUnicodeMS-54" transform="translate(561.279297 0)"/>
       <use xlink:href="#ArialUnicodeMS-68" transform="translate(622.363281 0)"/>
       <use xlink:href="#ArialUnicodeMS-65" transform="translate(677.978516 0)"/>
       <use xlink:href="#ArialUnicodeMS-20" transform="translate(733.59375 0)"/>
       <use xlink:href="#ArialUnicodeMS-48" transform="translate(761.376953 0)"/>
       <use xlink:href="#ArialUnicodeMS-75" transform="translate(833.59375 0)"/>
       <use xlink:href="#ArialUnicodeMS-6e" transform="translate(889.208984 0)"/>
       <use xlink:href="#ArialUnicodeMS-67" transform="translate(944.824219 0)"/>
       <use xlink:href="#ArialUnicodeMS-65" transform="translate(1000.439453 0)"/>
       <use xlink:href="#ArialUnicodeMS-72" transform="translate(1056.054688 0)"/>
       <use xlink:href="#ArialUnicodeMS-20" transform="translate(1089.355469 0)"/>
       <use xlink:href="#ArialUnicodeMS-47" transform="translate(1117.138672 0)"/>
       <use xlink:href="#ArialUnicodeMS-61" transform="translate(1194.921875 0)"/>
       <use xlink:href="#ArialUnicodeMS-6d" transform="translate(1250.537109 0)"/>
       <use xlink:href="#ArialUnicodeMS-65" transform="translate(1333.837891 0)"/>
       <use xlink:href="#ArialUnicodeMS-73" transform="translate(1389.453125 0)"/>
       <use xlink:href="#ArialUnicodeMS-29" transform="translate(1439.453125 0)"/>
      </g>
     </g>
    </g>
    <g id="ytick_8">
     <g id="line2d_11">
      <g>
       <use xlink:href="#m458f9af535" x="610.67" y="141.891165" style="stroke: #000000; stroke-width: 0.8"/>
      </g>
     </g>
     <g id="text_12">
      <!-- Atomic Habits: An Easy &amp; Proven Way to Build Good Habits &amp; Break Bad Ones -->
      <g transform="translate(252.41375 145.531009) scale(0.1 -0.1)">
       <defs>
        <path id="ArialUnicodeMS-26" d="M 4122 341 
L 3744 -109 
Q 3444 88 3041 538 
Q 2497 -78 1728 -78 
Q 1075 -78 675 331 
Q 275 741 275 1259 
Q 275 1681 547 2025 
Q 819 2369 1363 2631 
Q 1109 2922 979 3156 
Q 850 3391 850 3634 
Q 850 4053 1178 4356 
Q 1506 4659 1991 4659 
Q 2450 4659 2751 4373 
Q 3053 4088 3053 3681 
Q 3053 3350 2836 3070 
Q 2619 2791 2188 2566 
L 3016 1516 
Q 3138 1772 3231 2156 
L 3816 2034 
Q 3663 1431 3406 1044 
Q 3747 609 4122 341 
z
M 1900 2925 
Q 2238 3116 2358 3284 
Q 2478 3453 2478 3669 
Q 2478 3906 2323 4051 
Q 2169 4197 1959 4197 
Q 1747 4197 1587 4056 
Q 1428 3916 1428 3694 
Q 1428 3616 1468 3495 
Q 1509 3375 1900 2925 
z
M 2688 984 
L 1656 2266 
Q 1269 2034 1076 1792 
Q 884 1550 884 1300 
Q 884 994 1117 708 
Q 1350 422 1734 422 
Q 1988 422 2253 578 
Q 2519 734 2688 984 
z
" transform="scale(0.015625)"/>
        <path id="ArialUnicodeMS-4f" d="M 2497 4659 
Q 3459 4659 4071 4006 
Q 4684 3353 4684 2284 
Q 4684 1219 4068 570 
Q 3453 -78 2497 -78 
Q 1506 -78 903 594 
Q 300 1266 300 2234 
Q 300 3363 911 4011 
Q 1522 4659 2497 4659 
z
M 2491 441 
Q 3188 441 3620 928 
Q 4053 1416 4056 2284 
Q 4056 3178 3614 3659 
Q 3172 4141 2503 4141 
Q 1816 4141 1372 3669 
Q 928 3197 928 2222 
Q 928 1425 1362 933 
Q 1797 441 2491 441 
z
" transform="scale(0.015625)"/>
       </defs>
       <use xlink:href="#ArialUnicodeMS-41"/>
       <use xlink:href="#ArialUnicodeMS-74" transform="translate(66.699219 0)"/>
       <use xlink:href="#ArialUnicodeMS-6f" transform="translate(94.482422 0)"/>
       <use xlink:href="#ArialUnicodeMS-6d" transform="translate(150.097656 0)"/>
       <use xlink:href="#ArialUnicodeMS-69" transform="translate(233.398438 0)"/>
       <use xlink:href="#ArialUnicodeMS-63" transform="translate(255.615234 0)"/>
       <use xlink:href="#ArialUnicodeMS-20" transform="translate(305.615234 0)"/>
       <use xlink:href="#ArialUnicodeMS-48" transform="translate(333.398438 0)"/>
       <use xlink:href="#ArialUnicodeMS-61" transform="translate(405.615234 0)"/>
       <use xlink:href="#ArialUnicodeMS-62" transform="translate(461.230469 0)"/>
       <use xlink:href="#ArialUnicodeMS-69" transform="translate(516.845703 0)"/>
       <use xlink:href="#ArialUnicodeMS-74" transform="translate(539.0625 0)"/>
       <use xlink:href="#ArialUnicodeMS-73" transform="translate(566.845703 0)"/>
       <use xlink:href="#ArialUnicodeMS-3a" transform="translate(616.845703 0)"/>
       <use xlink:href="#ArialUnicodeMS-20" transform="translate(644.628906 0)"/>
       <use xlink:href="#ArialUnicodeMS-41" transform="translate(672.412109 0)"/>
       <use xlink:href="#ArialUnicodeMS-6e" transform="translate(739.111328 0)"/>
       <use xlink:href="#ArialUnicodeMS-20" transform="translate(794.726562 0)"/>
       <use xlink:href="#ArialUnicodeMS-45" transform="translate(822.509766 0)"/>
       <use xlink:href="#ArialUnicodeMS-61" transform="translate(889.208984 0)"/>
       <use xlink:href="#ArialUnicodeMS-73" transform="translate(944.824219 0)"/>
       <use xlink:href="#ArialUnicodeMS-79" transform="translate(994.824219 0)"/>
       <use xlink:href="#ArialUnicodeMS-20" transform="translate(1044.824219 0)"/>
       <use xlink:href="#ArialUnicodeMS-26" transform="translate(1072.607422 0)"/>
       <use xlink:href="#ArialUnicodeMS-20" transform="translate(1139.306641 0)"/>
       <use xlink:href="#ArialUnicodeMS-50" transform="translate(1167.089844 0)"/>
       <use xlink:href="#ArialUnicodeMS-72" transform="translate(1233.789062 0)"/>
       <use xlink:href="#ArialUnicodeMS-6f" transform="translate(1267.089844 0)"/>
       <use xlink:href="#ArialUnicodeMS-76" transform="translate(1322.705078 0)"/>
       <use xlink:href="#ArialUnicodeMS-65" transform="translate(1372.705078 0)"/>
       <use xlink:href="#ArialUnicodeMS-6e" transform="translate(1428.320312 0)"/>
       <use xlink:href="#ArialUnicodeMS-20" transform="translate(1483.935547 0)"/>
       <use xlink:href="#ArialUnicodeMS-57" transform="translate(1511.71875 0)"/>
       <use xlink:href="#ArialUnicodeMS-61" transform="translate(1606.103516 0)"/>
       <use xlink:href="#ArialUnicodeMS-79" transform="translate(1661.71875 0)"/>
       <use xlink:href="#ArialUnicodeMS-20" transform="translate(1711.71875 0)"/>
       <use xlink:href="#ArialUnicodeMS-74" transform="translate(1739.501953 0)"/>
       <use xlink:href="#ArialUnicodeMS-6f" transform="translate(1767.285156 0)"/>
       <use xlink:href="#ArialUnicodeMS-20" transform="translate(1822.900391 0)"/>
       <use xlink:href="#ArialUnicodeMS-42" transform="translate(1850.683594 0)"/>
       <use xlink:href="#ArialUnicodeMS-75" transform="translate(1917.382812 0)"/>
       <use xlink:href="#ArialUnicodeMS-69" transform="translate(1972.998047 0)"/>
       <use xlink:href="#ArialUnicodeMS-6c" transform="translate(1995.214844 0)"/>
       <use xlink:href="#ArialUnicodeMS-64" transform="translate(2017.431641 0)"/>
       <use xlink:href="#ArialUnicodeMS-20" transform="translate(2073.046875 0)"/>
       <use xlink:href="#ArialUnicodeMS-47" transform="translate(2100.830078 0)"/>
       <use xlink:href="#ArialUnicodeMS-6f" transform="translate(2178.613281 0)"/>
       <use xlink:href="#ArialUnicodeMS-6f" transform="translate(2234.228516 0)"/>
       <use xlink:href="#ArialUnicodeMS-64" transform="translate(2289.84375 0)"/>
       <use xlink:href="#ArialUnicodeMS-20" transform="translate(2345.458984 0)"/>
       <use xlink:href="#ArialUnicodeMS-48" transform="translate(2373.242188 0)"/>
       <use xlink:href="#ArialUnicodeMS-61" transform="translate(2445.458984 0)"/>
       <use xlink:href="#ArialUnicodeMS-62" transform="translate(2501.074219 0)"/>
       <use xlink:href="#ArialUnicodeMS-69" transform="translate(2556.689453 0)"/>
       <use xlink:href="#ArialUnicodeMS-74" transform="translate(2578.90625 0)"/>
       <use xlink:href="#ArialUnicodeMS-73" transform="translate(2606.689453 0)"/>
       <use xlink:href="#ArialUnicodeMS-20" transform="translate(2656.689453 0)"/>
       <use xlink:href="#ArialUnicodeMS-26" transform="translate(2684.472656 0)"/>
       <use xlink:href="#ArialUnicodeMS-20" transform="translate(2751.171875 0)"/>
       <use xlink:href="#ArialUnicodeMS-42" transform="translate(2778.955078 0)"/>
       <use xlink:href="#ArialUnicodeMS-72" transform="translate(2845.654297 0)"/>
       <use xlink:href="#ArialUnicodeMS-65" transform="translate(2878.955078 0)"/>
       <use xlink:href="#ArialUnicodeMS-61" transform="translate(2934.570312 0)"/>
       <use xlink:href="#ArialUnicodeMS-6b" transform="translate(2990.185547 0)"/>
       <use xlink:href="#ArialUnicodeMS-20" transform="translate(3040.185547 0)"/>
       <use xlink:href="#ArialUnicodeMS-42" transform="translate(3067.96875 0)"/>
       <use xlink:href="#ArialUnicodeMS-61" transform="translate(3134.667969 0)"/>
       <use xlink:href="#ArialUnicodeMS-64" transform="translate(3190.283203 0)"/>
       <use xlink:href="#ArialUnicodeMS-20" transform="translate(3245.898438 0)"/>
       <use xlink:href="#ArialUnicodeMS-4f" transform="translate(3273.681641 0)"/>
       <use xlink:href="#ArialUnicodeMS-6e" transform="translate(3351.464844 0)"/>
       <use xlink:href="#ArialUnicodeMS-65" transform="translate(3407.080078 0)"/>
       <use xlink:href="#ArialUnicodeMS-73" transform="translate(3462.695312 0)"/>
      </g>
     </g>
    </g>
    <g id="ytick_9">
     <g id="line2d_12">
      <g>
       <use xlink:href="#m458f9af535" x="610.67" y="108.619403" style="stroke: #000000; stroke-width: 0.8"/>
      </g>
     </g>
     <g id="text_13">
      <!-- Who Moved My Cheese?: An A-Mazing Way to Deal with Change in Your Work and in Your Life -->
      <g transform="translate(179.610625 112.259247) scale(0.1 -0.1)">
       <defs>
        <path id="ArialUnicodeMS-3f" d="M 294 3334 
Q 366 3969 759 4314 
Q 1153 4659 1778 4659 
Q 2422 4659 2836 4304 
Q 3250 3950 3250 3413 
Q 3250 3144 3129 2891 
Q 3009 2638 2559 2241 
Q 2216 1934 2127 1757 
Q 2038 1581 2028 1125 
L 1491 1125 
Q 1491 1488 1517 1655 
Q 1544 1822 1626 1981 
Q 1709 2141 1842 2281 
Q 1975 2422 2216 2631 
Q 2522 2903 2598 3058 
Q 2675 3213 2675 3372 
Q 2675 3700 2415 3948 
Q 2156 4197 1784 4197 
Q 1028 4197 872 3272 
L 294 3334 
z
M 2094 0 
L 1453 0 
L 1453 641 
L 2094 641 
L 2094 0 
z
" transform="scale(0.015625)"/>
        <path id="ArialUnicodeMS-2d" d="M 1925 1375 
L 206 1375 
L 206 1941 
L 1925 1941 
L 1925 1375 
z
" transform="scale(0.015625)"/>
        <path id="ArialUnicodeMS-7a" d="M 3066 0 
L 128 0 
L 128 453 
L 2241 2875 
Q 1869 2853 1606 2853 
L 250 2853 
L 250 3316 
L 2963 3316 
L 2963 2950 
L 1166 850 
Q 1113 784 891 544 
Q 838 494 819 459 
Q 1141 488 1528 488 
L 3066 488 
L 3066 0 
z
" transform="scale(0.015625)"/>
       </defs>
       <use xlink:href="#ArialUnicodeMS-57"/>
       <use xlink:href="#ArialUnicodeMS-68" transform="translate(94.384766 0)"/>
       <use xlink:href="#ArialUnicodeMS-6f" transform="translate(150 0)"/>
       <use xlink:href="#ArialUnicodeMS-20" transform="translate(205.615234 0)"/>
       <use xlink:href="#ArialUnicodeMS-4d" transform="translate(233.398438 0)"/>
       <use xlink:href="#ArialUnicodeMS-6f" transform="translate(316.699219 0)"/>
       <use xlink:href="#ArialUnicodeMS-76" transform="translate(372.314453 0)"/>
       <use xlink:href="#ArialUnicodeMS-65" transform="translate(422.314453 0)"/>
       <use xlink:href="#ArialUnicodeMS-64" transform="translate(477.929688 0)"/>
       <use xlink:href="#ArialUnicodeMS-20" transform="translate(533.544922 0)"/>
       <use xlink:href="#ArialUnicodeMS-4d" transform="translate(561.328125 0)"/>
       <use xlink:href="#ArialUnicodeMS-79" transform="translate(644.628906 0)"/>
       <use xlink:href="#ArialUnicodeMS-20" transform="translate(694.628906 0)"/>
       <use xlink:href="#ArialUnicodeMS-43" transform="translate(722.412109 0)"/>
       <use xlink:href="#ArialUnicodeMS-68" transform="translate(794.628906 0)"/>
       <use xlink:href="#ArialUnicodeMS-65" transform="translate(850.244141 0)"/>
       <use xlink:href="#ArialUnicodeMS-65" transform="translate(905.859375 0)"/>
       <use xlink:href="#ArialUnicodeMS-73" transform="translate(961.474609 0)"/>
       <use xlink:href="#ArialUnicodeMS-65" transform="translate(1011.474609 0)"/>
       <use xlink:href="#ArialUnicodeMS-3f" transform="translate(1067.089844 0)"/>
       <use xlink:href="#ArialUnicodeMS-3a" transform="translate(1122.705078 0)"/>
       <use xlink:href="#ArialUnicodeMS-20" transform="translate(1150.488281 0)"/>
       <use xlink:href="#ArialUnicodeMS-41" transform="translate(1178.271484 0)"/>
       <use xlink:href="#ArialUnicodeMS-6e" transform="translate(1244.970703 0)"/>
       <use xlink:href="#ArialUnicodeMS-20" transform="translate(1300.585938 0)"/>
       <use xlink:href="#ArialUnicodeMS-41" transform="translate(1328.369141 0)"/>
       <use xlink:href="#ArialUnicodeMS-2d" transform="translate(1395.068359 0)"/>
       <use xlink:href="#ArialUnicodeMS-4d" transform="translate(1428.369141 0)"/>
       <use xlink:href="#ArialUnicodeMS-61" transform="translate(1511.669922 0)"/>
       <use xlink:href="#ArialUnicodeMS-7a" transform="translate(1567.285156 0)"/>
       <use xlink:href="#ArialUnicodeMS-69" transform="translate(1617.285156 0)"/>
       <use xlink:href="#ArialUnicodeMS-6e" transform="translate(1639.501953 0)"/>
       <use xlink:href="#ArialUnicodeMS-67" transform="translate(1695.117188 0)"/>
       <use xlink:href="#ArialUnicodeMS-20" transform="translate(1750.732422 0)"/>
       <use xlink:href="#ArialUnicodeMS-57" transform="translate(1778.515625 0)"/>
       <use xlink:href="#ArialUnicodeMS-61" transform="translate(1872.900391 0)"/>
       <use xlink:href="#ArialUnicodeMS-79" transform="translate(1928.515625 0)"/>
       <use xlink:href="#ArialUnicodeMS-20" transform="translate(1978.515625 0)"/>
       <use xlink:href="#ArialUnicodeMS-74" transform="translate(2006.298828 0)"/>
       <use xlink:href="#ArialUnicodeMS-6f" transform="translate(2034.082031 0)"/>
       <use xlink:href="#ArialUnicodeMS-20" transform="translate(2089.697266 0)"/>
       <use xlink:href="#ArialUnicodeMS-44" transform="translate(2117.480469 0)"/>
       <use xlink:href="#ArialUnicodeMS-65" transform="translate(2189.697266 0)"/>
       <use xlink:href="#ArialUnicodeMS-61" transform="translate(2245.3125 0)"/>
       <use xlink:href="#ArialUnicodeMS-6c" transform="translate(2300.927734 0)"/>
       <use xlink:href="#ArialUnicodeMS-20" transform="translate(2323.144531 0)"/>
       <use xlink:href="#ArialUnicodeMS-77" transform="translate(2350.927734 0)"/>
       <use xlink:href="#ArialUnicodeMS-69" transform="translate(2423.144531 0)"/>
       <use xlink:href="#ArialUnicodeMS-74" transform="translate(2445.361328 0)"/>
       <use xlink:href="#ArialUnicodeMS-68" transform="translate(2473.144531 0)"/>
       <use xlink:href="#ArialUnicodeMS-20" transform="translate(2528.759766 0)"/>
       <use xlink:href="#ArialUnicodeMS-43" transform="translate(2556.542969 0)"/>
       <use xlink:href="#ArialUnicodeMS-68" transform="translate(2628.759766 0)"/>
       <use xlink:href="#ArialUnicodeMS-61" transform="translate(2684.375 0)"/>
       <use xlink:href="#ArialUnicodeMS-6e" transform="translate(2739.990234 0)"/>
       <use xlink:href="#ArialUnicodeMS-67" transform="translate(2795.605469 0)"/>
       <use xlink:href="#ArialUnicodeMS-65" transform="translate(2851.220703 0)"/>
       <use xlink:href="#ArialUnicodeMS-20" transform="translate(2906.835938 0)"/>
       <use xlink:href="#ArialUnicodeMS-69" transform="translate(2934.619141 0)"/>
       <use xlink:href="#ArialUnicodeMS-6e" transform="translate(2956.835938 0)"/>
       <use xlink:href="#ArialUnicodeMS-20" transform="translate(3012.451172 0)"/>
       <use xlink:href="#ArialUnicodeMS-59" transform="translate(3040.234375 0)"/>
       <use xlink:href="#ArialUnicodeMS-6f" transform="translate(3106.933594 0)"/>
       <use xlink:href="#ArialUnicodeMS-75" transform="translate(3162.548828 0)"/>
       <use xlink:href="#ArialUnicodeMS-72" transform="translate(3218.164062 0)"/>
       <use xlink:href="#ArialUnicodeMS-20" transform="translate(3251.464844 0)"/>
       <use xlink:href="#ArialUnicodeMS-57" transform="translate(3279.248047 0)"/>
       <use xlink:href="#ArialUnicodeMS-6f" transform="translate(3373.632812 0)"/>
       <use xlink:href="#ArialUnicodeMS-72" transform="translate(3429.248047 0)"/>
       <use xlink:href="#ArialUnicodeMS-6b" transform="translate(3462.548828 0)"/>
       <use xlink:href="#ArialUnicodeMS-20" transform="translate(3512.548828 0)"/>
       <use xlink:href="#ArialUnicodeMS-61" transform="translate(3540.332031 0)"/>
       <use xlink:href="#ArialUnicodeMS-6e" transform="translate(3595.947266 0)"/>
       <use xlink:href="#ArialUnicodeMS-64" transform="translate(3651.5625 0)"/>
       <use xlink:href="#ArialUnicodeMS-20" transform="translate(3707.177734 0)"/>
       <use xlink:href="#ArialUnicodeMS-69" transform="translate(3734.960938 0)"/>
       <use xlink:href="#ArialUnicodeMS-6e" transform="translate(3757.177734 0)"/>
       <use xlink:href="#ArialUnicodeMS-20" transform="translate(3812.792969 0)"/>
       <use xlink:href="#ArialUnicodeMS-59" transform="translate(3840.576172 0)"/>
       <use xlink:href="#ArialUnicodeMS-6f" transform="translate(3907.275391 0)"/>
       <use xlink:href="#ArialUnicodeMS-75" transform="translate(3962.890625 0)"/>
       <use xlink:href="#ArialUnicodeMS-72" transform="translate(4018.505859 0)"/>
       <use xlink:href="#ArialUnicodeMS-20" transform="translate(4051.806641 0)"/>
       <use xlink:href="#ArialUnicodeMS-4c" transform="translate(4079.589844 0)"/>
       <use xlink:href="#ArialUnicodeMS-69" transform="translate(4135.205078 0)"/>
       <use xlink:href="#ArialUnicodeMS-66" transform="translate(4157.421875 0)"/>
       <use xlink:href="#ArialUnicodeMS-65" transform="translate(4185.205078 0)"/>
      </g>
     </g>
    </g>
    <g id="ytick_10">
     <g id="line2d_13">
      <g>
       <use xlink:href="#m458f9af535" x="610.67" y="75.347642" style="stroke: #000000; stroke-width: 0.8"/>
      </g>
     </g>
     <g id="text_14">
      <!-- Good to Great: Why Some Companies Make the Leap...And Others Don't (Good to Great, 1) -->
      <g transform="translate(194.923125 78.987486) scale(0.1 -0.1)">
       <defs>
        <path id="ArialUnicodeMS-2e" d="M 1209 0 
L 569 0 
L 569 641 
L 1209 641 
L 1209 0 
z
" transform="scale(0.015625)"/>
       </defs>
       <use xlink:href="#ArialUnicodeMS-47"/>
       <use xlink:href="#ArialUnicodeMS-6f" transform="translate(77.783203 0)"/>
       <use xlink:href="#ArialUnicodeMS-6f" transform="translate(133.398438 0)"/>
       <use xlink:href="#ArialUnicodeMS-64" transform="translate(189.013672 0)"/>
       <use xlink:href="#ArialUnicodeMS-20" transform="translate(244.628906 0)"/>
       <use xlink:href="#ArialUnicodeMS-74" transform="translate(272.412109 0)"/>
       <use xlink:href="#ArialUnicodeMS-6f" transform="translate(300.195312 0)"/>
       <use xlink:href="#ArialUnicodeMS-20" transform="translate(355.810547 0)"/>
       <use xlink:href="#ArialUnicodeMS-47" transform="translate(383.59375 0)"/>
       <use xlink:href="#ArialUnicodeMS-72" transform="translate(461.376953 0)"/>
       <use xlink:href="#ArialUnicodeMS-65" transform="translate(494.677734 0)"/>
       <use xlink:href="#ArialUnicodeMS-61" transform="translate(550.292969 0)"/>
       <use xlink:href="#ArialUnicodeMS-74" transform="translate(605.908203 0)"/>
       <use xlink:href="#ArialUnicodeMS-3a" transform="translate(633.691406 0)"/>
       <use xlink:href="#ArialUnicodeMS-20" transform="translate(661.474609 0)"/>
       <use xlink:href="#ArialUnicodeMS-57" transform="translate(689.257812 0)"/>
       <use xlink:href="#ArialUnicodeMS-68" transform="translate(783.642578 0)"/>
       <use xlink:href="#ArialUnicodeMS-79" transform="translate(839.257812 0)"/>
       <use xlink:href="#ArialUnicodeMS-20" transform="translate(889.257812 0)"/>
       <use xlink:href="#ArialUnicodeMS-53" transform="translate(917.041016 0)"/>
       <use xlink:href="#ArialUnicodeMS-6f" transform="translate(983.740234 0)"/>
       <use xlink:href="#ArialUnicodeMS-6d" transform="translate(1039.355469 0)"/>
       <use xlink:href="#ArialUnicodeMS-65" transform="translate(1122.65625 0)"/>
       <use xlink:href="#ArialUnicodeMS-20" transform="translate(1178.271484 0)"/>
       <use xlink:href="#ArialUnicodeMS-43" transform="translate(1206.054688 0)"/>
       <use xlink:href="#ArialUnicodeMS-6f" transform="translate(1278.271484 0)"/>
       <use xlink:href="#ArialUnicodeMS-6d" transform="translate(1333.886719 0)"/>
       <use xlink:href="#ArialUnicodeMS-70" transform="translate(1417.1875 0)"/>
       <use xlink:href="#ArialUnicodeMS-61" transform="translate(1472.802734 0)"/>
       <use xlink:href="#ArialUnicodeMS-6e" transform="translate(1528.417969 0)"/>
       <use xlink:href="#ArialUnicodeMS-69" transform="translate(1584.033203 0)"/>
       <use xlink:href="#ArialUnicodeMS-65" transform="translate(1606.25 0)"/>
       <use xlink:href="#ArialUnicodeMS-73" transform="translate(1661.865234 0)"/>
       <use xlink:href="#ArialUnicodeMS-20" transform="translate(1711.865234 0)"/>
       <use xlink:href="#ArialUnicodeMS-4d" transform="translate(1739.648438 0)"/>
       <use xlink:href="#ArialUnicodeMS-61" transform="translate(1822.949219 0)"/>
       <use xlink:href="#ArialUnicodeMS-6b" transform="translate(1878.564453 0)"/>
       <use xlink:href="#ArialUnicodeMS-65" transform="translate(1928.564453 0)"/>
       <use xlink:href="#ArialUnicodeMS-20" transform="translate(1984.179688 0)"/>
       <use xlink:href="#ArialUnicodeMS-74" transform="translate(2011.962891 0)"/>
       <use xlink:href="#ArialUnicodeMS-68" transform="translate(2039.746094 0)"/>
       <use xlink:href="#ArialUnicodeMS-65" transform="translate(2095.361328 0)"/>
       <use xlink:href="#ArialUnicodeMS-20" transform="translate(2150.976562 0)"/>
       <use xlink:href="#ArialUnicodeMS-4c" transform="translate(2178.759766 0)"/>
       <use xlink:href="#ArialUnicodeMS-65" transform="translate(2234.375 0)"/>
       <use xlink:href="#ArialUnicodeMS-61" transform="translate(2289.990234 0)"/>
       <use xlink:href="#ArialUnicodeMS-70" transform="translate(2345.605469 0)"/>
       <use xlink:href="#ArialUnicodeMS-2e" transform="translate(2401.220703 0)"/>
       <use xlink:href="#ArialUnicodeMS-2e" transform="translate(2429.003906 0)"/>
       <use xlink:href="#ArialUnicodeMS-2e" transform="translate(2456.787109 0)"/>
       <use xlink:href="#ArialUnicodeMS-41" transform="translate(2484.570312 0)"/>
       <use xlink:href="#ArialUnicodeMS-6e" transform="translate(2551.269531 0)"/>
       <use xlink:href="#ArialUnicodeMS-64" transform="translate(2606.884766 0)"/>
       <use xlink:href="#ArialUnicodeMS-20" transform="translate(2662.5 0)"/>
       <use xlink:href="#ArialUnicodeMS-4f" transform="translate(2690.283203 0)"/>
       <use xlink:href="#ArialUnicodeMS-74" transform="translate(2768.066406 0)"/>
       <use xlink:href="#ArialUnicodeMS-68" transform="translate(2795.849609 0)"/>
       <use xlink:href="#ArialUnicodeMS-65" transform="translate(2851.464844 0)"/>
       <use xlink:href="#ArialUnicodeMS-72" transform="translate(2907.080078 0)"/>
       <use xlink:href="#ArialUnicodeMS-73" transform="translate(2940.380859 0)"/>
       <use xlink:href="#ArialUnicodeMS-20" transform="translate(2990.380859 0)"/>
       <use xlink:href="#ArialUnicodeMS-44" transform="translate(3018.164062 0)"/>
       <use xlink:href="#ArialUnicodeMS-6f" transform="translate(3090.380859 0)"/>
       <use xlink:href="#ArialUnicodeMS-6e" transform="translate(3145.996094 0)"/>
       <use xlink:href="#ArialUnicodeMS-27" transform="translate(3201.611328 0)"/>
       <use xlink:href="#ArialUnicodeMS-74" transform="translate(3220.703125 0)"/>
       <use xlink:href="#ArialUnicodeMS-20" transform="translate(3248.486328 0)"/>
       <use xlink:href="#ArialUnicodeMS-28" transform="translate(3276.269531 0)"/>
       <use xlink:href="#ArialUnicodeMS-47" transform="translate(3309.570312 0)"/>
       <use xlink:href="#ArialUnicodeMS-6f" transform="translate(3387.353516 0)"/>
       <use xlink:href="#ArialUnicodeMS-6f" transform="translate(3442.96875 0)"/>
       <use xlink:href="#ArialUnicodeMS-64" transform="translate(3498.583984 0)"/>
       <use xlink:href="#ArialUnicodeMS-20" transform="translate(3554.199219 0)"/>
       <use xlink:href="#ArialUnicodeMS-74" transform="translate(3581.982422 0)"/>
       <use xlink:href="#ArialUnicodeMS-6f" transform="translate(3609.765625 0)"/>
       <use xlink:href="#ArialUnicodeMS-20" transform="translate(3665.380859 0)"/>
       <use xlink:href="#ArialUnicodeMS-47" transform="translate(3693.164062 0)"/>
       <use xlink:href="#ArialUnicodeMS-72" transform="translate(3770.947266 0)"/>
       <use xlink:href="#ArialUnicodeMS-65" transform="translate(3804.248047 0)"/>
       <use xlink:href="#ArialUnicodeMS-61" transform="translate(3859.863281 0)"/>
       <use xlink:href="#ArialUnicodeMS-74" transform="translate(3915.478516 0)"/>
       <use xlink:href="#ArialUnicodeMS-2c" transform="translate(3943.261719 0)"/>
       <use xlink:href="#ArialUnicodeMS-20" transform="translate(3971.044922 0)"/>
       <use xlink:href="#ArialUnicodeMS-31" transform="translate(3998.828125 0)"/>
       <use xlink:href="#ArialUnicodeMS-29" transform="translate(4054.443359 0)"/>
      </g>
     </g>
    </g>
    <g id="ytick_11">
     <g id="line2d_14">
      <g>
       <use xlink:href="#m458f9af535" x="610.67" y="42.075881" style="stroke: #000000; stroke-width: 0.8"/>
      </g>
     </g>
     <g id="text_15">
      <!-- StrengthsFinder 2.0 -->
      <g transform="translate(515.849687 45.715724) scale(0.1 -0.1)">
       <use xlink:href="#ArialUnicodeMS-53"/>
       <use xlink:href="#ArialUnicodeMS-74" transform="translate(66.699219 0)"/>
       <use xlink:href="#ArialUnicodeMS-72" transform="translate(94.482422 0)"/>
       <use xlink:href="#ArialUnicodeMS-65" transform="translate(127.783203 0)"/>
       <use xlink:href="#ArialUnicodeMS-6e" transform="translate(183.398438 0)"/>
       <use xlink:href="#ArialUnicodeMS-67" transform="translate(239.013672 0)"/>
       <use xlink:href="#ArialUnicodeMS-74" transform="translate(294.628906 0)"/>
       <use xlink:href="#ArialUnicodeMS-68" transform="translate(322.412109 0)"/>
       <use xlink:href="#ArialUnicodeMS-73" transform="translate(378.027344 0)"/>
       <use xlink:href="#ArialUnicodeMS-46" transform="translate(428.027344 0)"/>
       <use xlink:href="#ArialUnicodeMS-69" transform="translate(489.111328 0)"/>
       <use xlink:href="#ArialUnicodeMS-6e" transform="translate(511.328125 0)"/>
       <use xlink:href="#ArialUnicodeMS-64" transform="translate(566.943359 0)"/>
       <use xlink:href="#ArialUnicodeMS-65" transform="translate(622.558594 0)"/>
       <use xlink:href="#ArialUnicodeMS-72" transform="translate(678.173828 0)"/>
       <use xlink:href="#ArialUnicodeMS-20" transform="translate(711.474609 0)"/>
       <use xlink:href="#ArialUnicodeMS-32" transform="translate(739.257812 0)"/>
       <use xlink:href="#ArialUnicodeMS-2e" transform="translate(794.873047 0)"/>
       <use xlink:href="#ArialUnicodeMS-30" transform="translate(822.65625 0)"/>
      </g>
     </g>
    </g>
    <g id="text_16">
     <!-- title -->
     <g transform="translate(19.074687 216.215156) rotate(-90) scale(0.1 -0.1)">
      <use xlink:href="#ArialUnicodeMS-74"/>
      <use xlink:href="#ArialUnicodeMS-69" transform="translate(27.783203 0)"/>
      <use xlink:href="#ArialUnicodeMS-74" transform="translate(50 0)"/>
      <use xlink:href="#ArialUnicodeMS-6c" transform="translate(77.783203 0)"/>
      <use xlink:href="#ArialUnicodeMS-65" transform="translate(100 0)"/>
     </g>
    </g>
   </g>
   <g id="patch_14">
    <path d="M 610.67 391.429375 
L 610.67 25.44 
" style="fill: none; stroke: #000000; stroke-width: 0.8; stroke-linejoin: miter; stroke-linecap: square"/>
   </g>
   <g id="patch_15">
    <path d="M 709.2 391.429375 
L 709.2 25.44 
" style="fill: none; stroke: #000000; stroke-width: 0.8; stroke-linejoin: miter; stroke-linecap: square"/>
   </g>
   <g id="patch_16">
    <path d="M 610.67 391.429375 
L 709.2 391.429375 
" style="fill: none; stroke: #000000; stroke-width: 0.8; stroke-linejoin: miter; stroke-linecap: square"/>
   </g>
   <g id="patch_17">
    <path d="M 610.67 25.44 
L 709.2 25.44 
" style="fill: none; stroke: #000000; stroke-width: 0.8; stroke-linejoin: miter; stroke-linecap: square"/>
   </g>
   <g id="text_17">
    <!-- 多次上榜的书名 -->
    <g transform="translate(617.935 19.44) scale(0.12 -0.12)">
     <defs>
      <path id="ArialUnicodeMS-591a" d="M 5831 2253 
Q 5831 2169 5545 1786 
Q 5259 1403 4934 1120 
Q 4609 838 4125 556 
Q 3641 275 2842 20 
Q 2044 -234 891 -434 
L 569 6 
Q 2425 319 3438 763 
Q 3250 1059 2731 1403 
L 3194 1663 
Q 3663 1334 3853 966 
Q 4875 1516 5241 2194 
L 3603 2194 
Q 2994 1644 1581 1044 
L 1209 1453 
Q 3113 2131 3938 3244 
Q 2553 2428 884 2094 
L 575 2522 
Q 1969 2838 2572 3097 
Q 2394 3341 1856 3634 
L 2303 3922 
Q 2700 3694 3022 3291 
Q 3731 3653 4294 4197 
L 2534 4197 
Q 1941 3794 1131 3488 
L 709 3884 
Q 2303 4356 3181 5434 
L 3628 5197 
Q 3503 5025 3163 4684 
L 4966 4684 
L 4966 4256 
Q 4559 3725 4063 3347 
L 4441 3144 
Q 4294 2894 4103 2681 
L 5831 2681 
L 5831 2253 
z
" transform="scale(0.015625)"/>
      <path id="ArialUnicodeMS-7684" d="M 5644 4281 
Q 5619 1694 5395 673 
Q 5172 -347 4606 -347 
Q 4350 -347 3609 -134 
L 3525 403 
Q 4247 134 4531 134 
Q 4806 134 4976 1142 
Q 5147 2150 5159 3841 
L 3794 3841 
Q 3550 3166 3053 2497 
L 2719 2713 
L 2719 -147 
L 2216 -147 
L 2216 269 
L 1153 269 
L 1153 -250 
L 647 -250 
L 647 4184 
L 1234 4184 
Q 1494 4644 1625 5313 
L 2088 5125 
Q 1903 4444 1741 4184 
L 2719 4184 
L 2719 2881 
Q 3431 3888 3681 5363 
L 4191 5247 
Q 4106 4869 3916 4281 
L 5644 4281 
z
M 2216 2484 
L 2216 3719 
L 1153 3719 
L 1153 2484 
L 2216 2484 
z
M 2216 738 
L 2216 2016 
L 1153 2016 
L 1153 738 
L 2216 738 
z
M 4775 1369 
L 4313 1166 
Q 4034 1925 3444 2669 
L 3841 2931 
Q 4484 2191 4775 1369 
z
" transform="scale(0.015625)"/>
      <path id="ArialUnicodeMS-4e66" d="M 5722 2553 
L 5663 1497 
Q 5628 747 5561 609 
Q 5494 472 5364 389 
Q 5234 306 4975 306 
Q 4806 306 4494 341 
L 4372 806 
L 4997 756 
Q 5059 750 5084 792 
Q 5109 834 5154 1137 
Q 5200 1441 5228 2088 
L 3175 2088 
L 3175 -453 
L 2688 -453 
L 2688 2088 
L 384 2088 
L 384 2553 
L 2688 2553 
L 2688 3669 
L 997 3669 
L 997 4134 
L 2688 4134 
L 2688 5241 
L 3175 5241 
L 3175 4134 
L 4763 4134 
Q 4756 3425 4634 2553 
L 5722 2553 
z
M 4219 3669 
L 3175 3669 
L 3175 2553 
L 4122 2553 
Q 4181 3016 4219 3669 
z
M 5509 4091 
L 5113 3809 
Q 4825 4334 4256 4722 
L 4622 5013 
Q 5188 4619 5509 4091 
z
" transform="scale(0.015625)"/>
      <path id="ArialUnicodeMS-540d" d="M 5306 4166 
Q 5306 4113 5057 3789 
Q 4809 3466 4426 3156 
Q 4044 2847 3556 2590 
Q 3069 2334 2478 2144 
L 5269 2144 
L 5269 -428 
L 4781 -428 
L 4781 -72 
L 2381 -72 
L 2381 -428 
L 1894 -428 
L 1894 1966 
Q 1044 1734 775 1697 
L 359 2131 
Q 1944 2425 2875 2822 
Q 2666 3097 2144 3291 
L 2597 3641 
Q 3072 3388 3309 3041 
Q 4119 3422 4678 4116 
L 2772 4116 
Q 2069 3506 1075 3097 
L 569 3481 
Q 2369 4106 3200 5350 
L 3641 5119 
Q 3503 4881 3244 4581 
L 5306 4581 
L 5306 4166 
z
M 4781 397 
L 4781 1678 
L 2381 1678 
L 2381 397 
L 4781 397 
z
" transform="scale(0.015625)"/>
     </defs>
     <use xlink:href="#ArialUnicodeMS-591a"/>
     <use xlink:href="#ArialUnicodeMS-6b21" transform="translate(100 0)"/>
     <use xlink:href="#ArialUnicodeMS-4e0a" transform="translate(200 0)"/>
     <use xlink:href="#ArialUnicodeMS-699c" transform="translate(300 0)"/>
     <use xlink:href="#ArialUnicodeMS-7684" transform="translate(400 0)"/>
     <use xlink:href="#ArialUnicodeMS-4e66" transform="translate(500 0)"/>
     <use xlink:href="#ArialUnicodeMS-540d" transform="translate(600 0)"/>
    </g>
   </g>
  </g>
 </g>
 <defs>
  <clipPath id="p3e05c114ae">
   <rect x="610.67" y="25.44" width="98.53" height="365.989375"/>
  </clipPath>
 </defs>
</svg>
