<?xml version="1.0" encoding="utf-8" standalone="no"?>
<!DOCTYPE svg PUBLIC "-//W3C//DTD SVG 1.1//EN"
  "http://www.w3.org/Graphics/SVG/1.1/DTD/svg11.dtd">
<svg xmlns:xlink="http://www.w3.org/1999/xlink" width="432pt" height="432pt" viewBox="0 0 432 432" xmlns="http://www.w3.org/2000/svg" version="1.1">
 <metadata>
  <rdf:RDF xmlns:dc="http://purl.org/dc/elements/1.1/" xmlns:cc="http://creativecommons.org/ns#" xmlns:rdf="http://www.w3.org/1999/02/22-rdf-syntax-ns#">
   <cc:Work>
    <dc:type rdf:resource="http://purl.org/dc/dcmitype/StillImage"/>
    <dc:date>2025-05-27T13:03:11.784333</dc:date>
    <dc:format>image/svg+xml</dc:format>
    <dc:creator>
     <cc:Agent>
      <dc:title>Matplotlib v3.10.3, https://matplotlib.org/</dc:title>
     </cc:Agent>
    </dc:creator>
   </cc:Work>
  </rdf:RDF>
 </metadata>
 <defs>
  <style type="text/css">*{stroke-linejoin: round; stroke-linecap: butt}</style>
 </defs>
 <g id="figure_1">
  <g id="patch_1">
   <path d="M 0 432 
L 432 432 
L 432 0 
L 0 0 
z
" style="fill: #ffffff"/>
  </g>
  <g id="axes_1">
   <g id="patch_2">
    <path d="M 184.925005 65.792355 
C 168.644926 65.792355 152.461854 68.30387 136.947548 73.238167 
C 121.433242 78.172464 106.77259 85.470739 93.483564 94.875139 
C 80.194537 104.27954 68.435504 115.677991 58.621921 128.667777 
C 48.808337 141.657563 41.057153 156.083882 35.642224 171.437042 
C 30.227294 186.790201 27.21315 202.887234 26.706284 219.159421 
C 26.199418 235.431608 28.205869 251.685028 32.654749 267.345438 
C 37.103629 283.005848 43.94192 297.886618 52.928018 311.462 
C 61.914117 325.037382 72.940935 337.145595 85.618886 347.358847 
C 98.296838 357.5721 112.474837 365.768677 127.651964 371.658989 
C 142.829091 377.549301 158.824478 381.063151 175.072995 382.076392 
C 191.321513 383.089633 207.629523 381.590191 223.420853 377.631041 
C 239.212183 373.671891 254.298643 367.300216 268.147219 358.741131 
C 281.995794 350.182047 294.441448 339.537554 305.044466 327.183729 
C 315.647484 314.829905 324.281508 300.913973 330.641491 285.927593 
C 337.001475 270.941213 341.011624 255.062981 342.530257 238.853887 
C 344.048891 222.644793 343.057912 206.298005 339.592331 190.391066 
L 277.7254 203.869765 
C 279.804749 213.413929 280.399337 223.222002 279.488156 232.947458 
C 278.576976 242.672915 276.170887 252.199853 272.354897 261.191681 
C 268.538907 270.183509 263.358492 278.533069 256.996682 285.945363 
C 250.634871 293.357658 243.167479 299.744354 234.858333 304.879805 
C 226.549188 310.015255 217.497312 313.83826 208.022514 316.21375 
C 198.547716 318.58924 188.762909 319.488906 179.013799 318.880961 
C 169.264689 318.273016 159.667457 316.164706 150.56118 312.630519 
C 141.454904 309.096332 132.948104 304.178386 125.341334 298.050434 
C 117.734563 291.922483 111.118472 284.657555 105.726813 276.512326 
C 100.335154 268.367097 96.232179 259.438635 93.562851 250.042389 
C 90.893523 240.646143 89.689652 230.89409 89.993772 221.130778 
C 90.297892 211.367466 92.106378 201.709247 95.355336 192.497351 
C 98.604294 183.285455 103.255004 174.629664 109.143154 166.835792 
C 115.031304 159.04192 122.086724 152.20285 130.06014 146.560209 
C 138.033556 140.917569 146.829947 136.538604 156.13853 133.578026 
C 165.447114 130.617448 175.156957 129.110539 184.925005 129.110539 
z
" style="fill: #1f77b4"/>
   </g>
   <g id="patch_3">
    <path d="M 339.592331 190.391057 
C 333.651407 163.122349 320.603385 137.903684 301.776478 117.302121 
C 282.949572 96.700558 259.005005 81.439702 232.380268 73.073079 
L 213.398162 133.478973 
C 229.373005 138.498947 243.739745 147.655461 255.035889 160.016399 
C 266.332033 172.377336 274.160846 187.508535 277.7254 203.86976 
z
" style="fill: #aec7e8"/>
   </g>
   <g id="patch_4">
    <path d="M 232.380268 73.073079 
C 227.502689 71.540339 222.553718 70.2448 217.550756 69.191035 
C 212.547794 68.137271 207.496715 67.3265 202.415287 66.761589 
L 195.419174 129.69208 
C 198.468031 130.031026 201.498678 130.517489 204.500455 131.149747 
C 207.502233 131.782006 210.471615 132.559329 213.398162 133.478973 
z
" style="fill: #ff7f0e"/>
   </g>
   <g id="patch_5">
    <path d="M 202.415287 66.761589 
C 201.689501 66.6809 200.963165 66.60523 200.236331 66.534599 
C 199.509497 66.463967 198.782183 66.398365 198.054441 66.337791 
L 192.802667 129.437801 
C 193.239312 129.474145 193.6757 129.513506 194.111801 129.555885 
C 194.547901 129.598264 194.983702 129.643666 195.419174 129.69208 
z
" style="fill: #ffbb78"/>
   </g>
   <g id="patch_6">
    <path d="M 198.054441 66.337791 
C 197.326712 66.277227 196.598536 66.221682 195.870038 66.171195 
C 195.14154 66.120707 194.412738 66.075249 193.683612 66.034847 
L 190.180169 129.256034 
C 190.617645 129.280275 191.054926 129.30755 191.492024 129.337843 
C 191.929123 129.368135 192.366029 129.401462 192.802667 129.437801 
z
" style="fill: #2ca02c"/>
   </g>
   <g id="patch_7">
    <path d="M 193.683612 66.034847 
C 192.954485 65.994446 192.225125 65.959093 191.495509 65.928778 
C 190.765893 65.898462 190.036038 65.873205 189.306073 65.852994 
L 187.553646 129.146923 
C 187.991625 129.159049 188.429538 129.174203 188.867307 129.192392 
C 189.305077 129.210581 189.742693 129.231794 190.180169 129.256034 
z
" style="fill: #98df8a"/>
   </g>
   <g id="patch_8">
    <path d="M 189.306073 65.852994 
C 188.576095 65.832784 187.845985 65.817622 187.115797 65.807517 
C 186.385609 65.797412 185.65536 65.792355 184.925102 65.792355 
L 184.925063 129.110539 
C 185.363218 129.110539 185.801367 129.113573 186.23948 129.119636 
C 186.677593 129.125699 187.115659 129.134797 187.553646 129.146923 
z
" style="fill: #d62728"/>
   </g>
   <g id="matplotlib.axis_1"/>
   <g id="matplotlib.axis_2"/>
   <g id="text_1">
    <!-- 书名上榜次数分布（含1次） -->
    <g transform="translate(109.588437 20.975625) scale(0.12 -0.12)">
     <defs>
      <path id="ArialUnicodeMS-4e66" d="M 5722 2553 
L 5663 1497 
Q 5628 747 5561 609 
Q 5494 472 5364 389 
Q 5234 306 4975 306 
Q 4806 306 4494 341 
L 4372 806 
L 4997 756 
Q 5059 750 5084 792 
Q 5109 834 5154 1137 
Q 5200 1441 5228 2088 
L 3175 2088 
L 3175 -453 
L 2688 -453 
L 2688 2088 
L 384 2088 
L 384 2553 
L 2688 2553 
L 2688 3669 
L 997 3669 
L 997 4134 
L 2688 4134 
L 2688 5241 
L 3175 5241 
L 3175 4134 
L 4763 4134 
Q 4756 3425 4634 2553 
L 5722 2553 
z
M 4219 3669 
L 3175 3669 
L 3175 2553 
L 4122 2553 
Q 4181 3016 4219 3669 
z
M 5509 4091 
L 5113 3809 
Q 4825 4334 4256 4722 
L 4622 5013 
Q 5188 4619 5509 4091 
z
" transform="scale(0.015625)"/>
      <path id="ArialUnicodeMS-540d" d="M 5306 4166 
Q 5306 4113 5057 3789 
Q 4809 3466 4426 3156 
Q 4044 2847 3556 2590 
Q 3069 2334 2478 2144 
L 5269 2144 
L 5269 -428 
L 4781 -428 
L 4781 -72 
L 2381 -72 
L 2381 -428 
L 1894 -428 
L 1894 1966 
Q 1044 1734 775 1697 
L 359 2131 
Q 1944 2425 2875 2822 
Q 2666 3097 2144 3291 
L 2597 3641 
Q 3072 3388 3309 3041 
Q 4119 3422 4678 4116 
L 2772 4116 
Q 2069 3506 1075 3097 
L 569 3481 
Q 2369 4106 3200 5350 
L 3641 5119 
Q 3503 4881 3244 4581 
L 5306 4581 
L 5306 4166 
z
M 4781 397 
L 4781 1678 
L 2381 1678 
L 2381 397 
L 4781 397 
z
" transform="scale(0.015625)"/>
      <path id="ArialUnicodeMS-4e0a" d="M 5931 63 
L 588 63 
L 588 531 
L 2688 531 
L 2688 5209 
L 3175 5209 
L 3175 3353 
L 5369 3353 
L 5369 2888 
L 3175 2888 
L 3175 531 
L 5931 531 
L 5931 63 
z
" transform="scale(0.015625)"/>
      <path id="ArialUnicodeMS-699c" d="M 5941 2516 
L 5478 2516 
L 5478 2994 
L 3003 2994 
L 3003 2497 
L 2516 2497 
L 2516 3463 
L 3566 3463 
Q 3478 3678 3003 4019 
L 3341 4225 
L 2656 4225 
L 2656 4697 
L 3909 4697 
L 3909 5331 
L 4397 5331 
L 4397 4697 
L 5831 4697 
L 5831 4225 
L 5025 4225 
L 5319 4091 
Q 5138 3656 4959 3463 
L 5941 3463 
L 5941 2516 
z
M 4831 4225 
L 3481 4225 
Q 3838 3994 4084 3500 
L 3969 3469 
L 4409 3463 
Q 4709 3772 4831 4225 
z
M 5863 1784 
L 3897 1784 
Q 3859 1403 3853 1388 
L 5556 1388 
Q 5459 513 5411 256 
Q 5363 0 5178 -131 
Q 4994 -263 4728 -263 
Q 4444 -263 3944 -178 
L 3859 300 
Q 4538 197 4728 197 
Q 4856 197 4915 261 
Q 4975 325 5012 573 
Q 5050 822 5050 941 
L 3775 941 
Q 3566 91 2394 -428 
L 2059 0 
Q 2494 106 2928 476 
Q 3363 847 3413 1784 
L 2572 1784 
L 2572 2075 
L 2188 1869 
Q 2100 2359 1869 2572 
L 1869 -447 
L 1381 -447 
L 1381 2022 
Q 1269 1678 716 1031 
L 347 1388 
Q 1172 2197 1375 3572 
L 563 3572 
L 563 4038 
L 1381 4038 
L 1381 5259 
L 1869 5259 
L 1869 4038 
L 2497 4038 
L 2497 3572 
L 1869 3572 
L 1869 2975 
L 2041 3066 
Q 2369 2825 2572 2203 
L 2572 2253 
L 3950 2253 
L 3950 2713 
L 4434 2713 
L 4434 2253 
L 5863 2253 
L 5863 1784 
z
" transform="scale(0.015625)"/>
      <path id="ArialUnicodeMS-6b21" d="M 5759 4372 
Q 5653 3369 5281 2706 
L 4813 2881 
Q 5088 3478 5153 3903 
L 3169 3903 
Q 2906 3159 2381 2472 
L 1925 2731 
Q 2813 3800 3003 5259 
L 3494 5184 
Q 3444 4863 3316 4372 
L 5759 4372 
z
M 1941 3847 
L 1528 3541 
Q 1138 4263 409 4697 
L 788 4984 
Q 1597 4534 1941 3847 
z
M 6100 25 
L 5797 -397 
Q 4350 116 3803 1516 
Q 3500 447 1797 -422 
L 1459 -72 
Q 2197 300 2676 751 
Q 3156 1203 3348 1704 
Q 3541 2206 3572 3272 
L 4050 3163 
L 3988 2256 
Q 3988 2041 4461 1228 
Q 4934 416 6100 25 
z
M 1894 2431 
Q 1541 669 716 -231 
L 313 84 
Q 1200 1106 1459 2650 
L 1894 2431 
z
" transform="scale(0.015625)"/>
      <path id="ArialUnicodeMS-6570" d="M 6138 19 
L 5806 -378 
Q 5031 194 4697 716 
Q 4344 144 3328 -441 
L 2981 -50 
Q 3966 434 4403 1153 
Q 4038 1834 3866 2753 
Q 3678 2356 3353 1919 
L 2950 2203 
Q 3838 3172 3963 5253 
L 4409 5125 
Q 4341 4384 4269 4006 
L 5984 4006 
L 5984 3547 
L 5619 3541 
L 5594 3341 
Q 5441 2113 4978 1191 
Q 5281 672 6138 19 
z
M 5166 3541 
L 4172 3541 
Q 4297 2419 4691 1650 
Q 5038 2513 5166 3541 
z
M 3438 3653 
L 2209 3653 
L 2209 2338 
L 1919 2338 
Q 1900 2269 1753 1931 
L 3225 1931 
L 3225 1472 
L 2913 1472 
Q 2763 991 2503 666 
Q 2947 353 3103 184 
L 2747 -172 
Q 2463 138 2150 313 
Q 1322 -225 563 -428 
L 269 6 
Q 1106 163 1684 563 
Q 1291 756 703 884 
L 1038 1472 
L 403 1472 
L 403 1931 
L 1259 1931 
Q 1328 2056 1466 2553 
L 1747 2484 
L 1747 3653 
L 1716 3653 
Q 1413 2881 678 2456 
L 378 2803 
Q 938 3091 1241 3653 
L 403 3653 
L 403 4122 
L 1747 4122 
L 1747 5228 
L 2209 5228 
L 2209 4122 
L 3438 4122 
L 3438 3653 
z
M 2406 1472 
L 1538 1472 
Q 1422 1241 1369 1153 
Q 1388 1159 2069 884 
Q 2219 1031 2406 1472 
z
M 1625 4441 
L 1288 4159 
Q 1022 4547 575 4813 
L 878 5075 
Q 1394 4844 1625 4441 
z
M 3384 4844 
Q 3097 4409 2669 4172 
L 2322 4481 
Q 2806 4759 3047 5069 
L 3384 4844 
z
M 3303 2888 
L 2944 2578 
Q 2706 3025 2291 3297 
L 2584 3566 
Q 2988 3359 3303 2888 
z
" transform="scale(0.015625)"/>
      <path id="ArialUnicodeMS-5206" d="M 5991 3003 
L 5684 2553 
Q 4856 3041 4451 3534 
Q 4047 4028 3781 4831 
L 4319 4984 
Q 4375 4356 4829 3825 
Q 5284 3294 5991 3003 
z
M 2613 4697 
Q 2169 3484 800 2547 
L 416 2919 
Q 1731 3741 2188 4934 
L 2613 4697 
z
M 4872 2931 
Q 4844 1956 4730 1092 
Q 4616 228 4430 7 
Q 4244 -213 3847 -213 
Q 3469 -213 2894 -78 
L 2747 481 
Q 3503 269 3834 269 
Q 4013 269 4128 639 
Q 4244 1009 4341 2463 
L 3138 2463 
Q 2869 263 831 -441 
L 525 -31 
Q 2372 478 2631 2463 
L 1556 2463 
L 1556 2931 
L 4872 2931 
z
" transform="scale(0.015625)"/>
      <path id="ArialUnicodeMS-5e03" d="M 5888 3944 
L 2597 3944 
Q 2300 3216 2053 2841 
L 3272 2841 
L 3272 3653 
L 3756 3653 
L 3756 2841 
L 5338 2841 
L 5338 941 
Q 5338 325 4878 325 
L 4294 325 
L 4141 819 
Q 4481 775 4628 775 
Q 4850 775 4850 941 
L 4850 2375 
L 3756 2375 
L 3756 -428 
L 3272 -428 
L 3272 2375 
L 2322 2375 
L 2322 153 
L 1838 153 
L 1825 2534 
Q 1516 2056 794 1288 
L 372 1581 
Q 1731 2919 2094 3944 
L 659 3944 
L 659 4409 
L 2266 4409 
Q 2378 4706 2553 5344 
L 3009 5203 
Q 2794 4444 2778 4409 
L 5888 4409 
L 5888 3944 
z
" transform="scale(0.015625)"/>
      <path id="ArialUnicodeMS-ff08" d="M 3964 -1344 
L 3561 -1344 
Q 3042 -681 2745 103 
Q 2448 888 2448 1656 
Q 2448 2528 2764 3275 
Q 3080 4022 3561 4659 
L 3964 4659 
Q 3408 3747 3219 3059 
Q 3030 2372 3030 1663 
Q 3030 153 3964 -1344 
z
" transform="scale(0.015625)"/>
      <path id="ArialUnicodeMS-542b" d="M 6181 3481 
L 5894 3016 
Q 5197 3216 4428 3700 
L 4428 3456 
L 1900 3456 
L 1900 3706 
Q 1278 3309 506 2988 
L 238 3456 
Q 941 3656 1781 4232 
Q 2622 4809 3116 5491 
L 3584 5259 
L 3488 5119 
Q 4572 3931 6181 3481 
z
M 4091 3928 
Q 3516 4338 3181 4763 
Q 2775 4319 2222 3928 
L 4091 3928 
z
M 5141 2638 
Q 4156 1803 2016 1600 
L 1797 2059 
Q 3313 2181 4256 2591 
L 1184 2591 
L 1184 3059 
L 5141 3059 
L 5141 2638 
z
M 5081 -416 
L 4575 -416 
L 4575 -38 
L 1806 -38 
L 1806 -416 
L 1300 -416 
L 1300 1588 
L 5081 1588 
L 5081 -416 
z
M 4575 428 
L 4575 1119 
L 1806 1119 
L 1806 428 
L 4575 428 
z
" transform="scale(0.015625)"/>
      <path id="ArialUnicodeMS-31" d="M 2400 0 
L 1838 0 
L 1838 3584 
Q 1416 3184 709 2906 
L 709 3450 
Q 1681 3916 2034 4603 
L 2400 4603 
L 2400 0 
z
" transform="scale(0.015625)"/>
      <path id="ArialUnicodeMS-ff09" d="M 2850 4659 
Q 3369 3997 3666 3212 
Q 3963 2428 3963 1656 
Q 3963 788 3647 41 
Q 3332 -706 2850 -1344 
L 2447 -1344 
Q 3004 -431 3193 255 
Q 3382 941 3382 1650 
Q 3382 3163 2447 4659 
L 2850 4659 
z
" transform="scale(0.015625)"/>
     </defs>
     <use xlink:href="#ArialUnicodeMS-4e66"/>
     <use xlink:href="#ArialUnicodeMS-540d" transform="translate(100 0)"/>
     <use xlink:href="#ArialUnicodeMS-4e0a" transform="translate(200 0)"/>
     <use xlink:href="#ArialUnicodeMS-699c" transform="translate(300 0)"/>
     <use xlink:href="#ArialUnicodeMS-6b21" transform="translate(400 0)"/>
     <use xlink:href="#ArialUnicodeMS-6570" transform="translate(500 0)"/>
     <use xlink:href="#ArialUnicodeMS-5206" transform="translate(600 0)"/>
     <use xlink:href="#ArialUnicodeMS-5e03" transform="translate(700 0)"/>
     <use xlink:href="#ArialUnicodeMS-ff08" transform="translate(800 0)"/>
     <use xlink:href="#ArialUnicodeMS-542b" transform="translate(900 0)"/>
     <use xlink:href="#ArialUnicodeMS-31" transform="translate(1000 0)"/>
     <use xlink:href="#ArialUnicodeMS-6b21" transform="translate(1055.615234 0)"/>
     <use xlink:href="#ArialUnicodeMS-ff09" transform="translate(1155.615234 0)"/>
    </g>
   </g>
   <g id="legend_1">
    <g id="patch_9">
     <path d="M 366.05 282.187813 
L 419.171875 282.187813 
Q 421.171875 282.187813 421.171875 280.187813 
L 421.171875 167.987813 
Q 421.171875 165.987813 419.171875 165.987813 
L 366.05 165.987813 
Q 364.05 165.987813 364.05 167.987813 
L 364.05 280.187813 
Q 364.05 282.187813 366.05 282.187813 
z
" style="fill: #ffffff; opacity: 0.8; stroke: #cccccc; stroke-linejoin: miter"/>
    </g>
    <g id="text_2">
     <!-- 上榜次数 -->
     <g transform="translate(372.610937 177.145625) scale(0.1 -0.1)">
      <use xlink:href="#ArialUnicodeMS-4e0a"/>
      <use xlink:href="#ArialUnicodeMS-699c" transform="translate(100 0)"/>
      <use xlink:href="#ArialUnicodeMS-6b21" transform="translate(200 0)"/>
      <use xlink:href="#ArialUnicodeMS-6570" transform="translate(300 0)"/>
     </g>
    </g>
    <g id="patch_10">
     <path d="M 368.05 191.295625 
L 388.05 191.295625 
L 388.05 184.295625 
L 368.05 184.295625 
z
" style="fill: #1f77b4"/>
    </g>
    <g id="text_3">
     <!-- 1次 -->
     <g transform="translate(396.05 191.295625) scale(0.1 -0.1)">
      <use xlink:href="#ArialUnicodeMS-31"/>
      <use xlink:href="#ArialUnicodeMS-6b21" transform="translate(55.615234 0)"/>
     </g>
    </g>
    <g id="patch_11">
     <path d="M 368.05 205.445625 
L 388.05 205.445625 
L 388.05 198.445625 
L 368.05 198.445625 
z
" style="fill: #aec7e8"/>
    </g>
    <g id="text_4">
     <!-- 2次 -->
     <g transform="translate(396.05 205.445625) scale(0.1 -0.1)">
      <defs>
       <path id="ArialUnicodeMS-32" d="M 3231 0 
L 197 0 
Q 197 388 467 784 
Q 738 1181 1478 1778 
Q 1931 2141 2287 2539 
Q 2644 2938 2644 3341 
Q 2644 3688 2398 3914 
Q 2153 4141 1778 4141 
Q 1400 4141 1144 3908 
Q 888 3675 884 3213 
L 306 3278 
Q 359 3922 764 4262 
Q 1169 4603 1791 4603 
Q 2466 4603 2842 4229 
Q 3219 3856 3219 3328 
Q 3219 2888 2901 2436 
Q 2584 1984 1638 1228 
Q 1141 831 978 544 
L 3231 544 
L 3231 0 
z
" transform="scale(0.015625)"/>
      </defs>
      <use xlink:href="#ArialUnicodeMS-32"/>
      <use xlink:href="#ArialUnicodeMS-6b21" transform="translate(55.615234 0)"/>
     </g>
    </g>
    <g id="patch_12">
     <path d="M 368.05 219.595625 
L 388.05 219.595625 
L 388.05 212.595625 
L 368.05 212.595625 
z
" style="fill: #ff7f0e"/>
    </g>
    <g id="text_5">
     <!-- 3次 -->
     <g transform="translate(396.05 219.595625) scale(0.1 -0.1)">
      <defs>
       <path id="ArialUnicodeMS-33" d="M 2425 2478 
Q 2850 2397 3067 2067 
Q 3284 1738 3284 1350 
Q 3284 725 2829 323 
Q 2375 -78 1741 -78 
Q 1134 -78 740 275 
Q 347 628 281 1209 
L 844 1288 
Q 928 834 1151 609 
Q 1375 384 1741 384 
Q 2134 384 2407 661 
Q 2681 938 2681 1338 
Q 2681 1722 2432 1975 
Q 2184 2228 1784 2228 
Q 1622 2228 1388 2169 
L 1453 2663 
Q 1678 2663 1809 2684 
Q 1941 2706 2103 2790 
Q 2266 2875 2372 3033 
Q 2478 3191 2478 3425 
Q 2478 3766 2251 3953 
Q 2025 4141 1728 4141 
Q 1388 4141 1173 3925 
Q 959 3709 903 3309 
L 341 3413 
Q 450 4009 823 4306 
Q 1197 4603 1716 4603 
Q 2288 4603 2670 4258 
Q 3053 3913 3053 3413 
Q 3053 2772 2425 2491 
L 2425 2478 
z
" transform="scale(0.015625)"/>
      </defs>
      <use xlink:href="#ArialUnicodeMS-33"/>
      <use xlink:href="#ArialUnicodeMS-6b21" transform="translate(55.615234 0)"/>
     </g>
    </g>
    <g id="patch_13">
     <path d="M 368.05 233.745625 
L 388.05 233.745625 
L 388.05 226.745625 
L 368.05 226.745625 
z
" style="fill: #ffbb78"/>
    </g>
    <g id="text_6">
     <!-- 4次 -->
     <g transform="translate(396.05 233.745625) scale(0.1 -0.1)">
      <defs>
       <path id="ArialUnicodeMS-34" d="M 3263 1094 
L 2644 1094 
L 2644 0 
L 2081 0 
L 2081 1094 
L 97 1094 
L 97 1613 
L 2181 4581 
L 2644 4581 
L 2644 1613 
L 3263 1613 
L 3263 1094 
z
M 2081 1613 
L 2081 3681 
L 2069 3681 
L 647 1613 
L 2081 1613 
z
" transform="scale(0.015625)"/>
      </defs>
      <use xlink:href="#ArialUnicodeMS-34"/>
      <use xlink:href="#ArialUnicodeMS-6b21" transform="translate(55.615234 0)"/>
     </g>
    </g>
    <g id="patch_14">
     <path d="M 368.05 247.895625 
L 388.05 247.895625 
L 388.05 240.895625 
L 368.05 240.895625 
z
" style="fill: #2ca02c"/>
    </g>
    <g id="text_7">
     <!-- 5次 -->
     <g transform="translate(396.05 247.895625) scale(0.1 -0.1)">
      <defs>
       <path id="ArialUnicodeMS-35" d="M 1013 2753 
Q 1431 3041 1881 3041 
Q 2453 3041 2878 2636 
Q 3303 2231 3303 1556 
Q 3303 875 2872 398 
Q 2441 -78 1741 -78 
Q 1169 -78 750 245 
Q 331 569 269 1203 
L 856 1247 
Q 928 813 1162 598 
Q 1397 384 1741 384 
Q 2169 384 2434 707 
Q 2700 1031 2700 1503 
Q 2700 1984 2428 2262 
Q 2156 2541 1728 2541 
Q 1188 2541 897 2100 
L 366 2163 
L 813 4519 
L 3084 4519 
L 3084 3975 
L 1259 3975 
L 1013 2753 
z
" transform="scale(0.015625)"/>
      </defs>
      <use xlink:href="#ArialUnicodeMS-35"/>
      <use xlink:href="#ArialUnicodeMS-6b21" transform="translate(55.615234 0)"/>
     </g>
    </g>
    <g id="patch_15">
     <path d="M 368.05 262.045625 
L 388.05 262.045625 
L 388.05 255.045625 
L 368.05 255.045625 
z
" style="fill: #98df8a"/>
    </g>
    <g id="text_8">
     <!-- 6次 -->
     <g transform="translate(396.05 262.045625) scale(0.1 -0.1)">
      <defs>
       <path id="ArialUnicodeMS-36" d="M 838 2363 
Q 1225 2969 1941 2969 
Q 2503 2969 2897 2553 
Q 3291 2138 3291 1491 
Q 3291 838 2898 380 
Q 2506 -78 1856 -78 
Q 1197 -78 733 409 
Q 269 897 269 2144 
Q 269 3369 689 3986 
Q 1109 4603 1906 4603 
Q 2422 4603 2778 4315 
Q 3134 4028 3213 3463 
L 2650 3413 
Q 2497 4141 1875 4141 
Q 1444 4141 1134 3712 
Q 825 3284 825 2363 
L 838 2363 
z
M 1844 384 
Q 2231 384 2472 696 
Q 2713 1009 2713 1453 
Q 2713 1897 2472 2187 
Q 2231 2478 1825 2478 
Q 1453 2478 1184 2204 
Q 916 1931 916 1484 
Q 916 1028 1180 706 
Q 1444 384 1844 384 
z
" transform="scale(0.015625)"/>
      </defs>
      <use xlink:href="#ArialUnicodeMS-36"/>
      <use xlink:href="#ArialUnicodeMS-6b21" transform="translate(55.615234 0)"/>
     </g>
    </g>
    <g id="patch_16">
     <path d="M 368.05 276.195625 
L 388.05 276.195625 
L 388.05 269.195625 
L 368.05 269.195625 
z
" style="fill: #d62728"/>
    </g>
    <g id="text_9">
     <!-- 10次 -->
     <g transform="translate(396.05 276.195625) scale(0.1 -0.1)">
      <defs>
       <path id="ArialUnicodeMS-30" d="M 1778 4603 
Q 3272 4603 3272 2259 
Q 3272 1075 2886 498 
Q 2500 -78 1778 -78 
Q 288 -78 288 2259 
Q 288 3444 673 4023 
Q 1059 4603 1778 4603 
z
M 1778 384 
Q 2231 384 2462 823 
Q 2694 1263 2694 2259 
Q 2694 2953 2592 3351 
Q 2491 3750 2286 3945 
Q 2081 4141 1772 4141 
Q 1319 4141 1091 3694 
Q 863 3247 863 2259 
Q 863 1575 966 1175 
Q 1069 775 1272 579 
Q 1475 384 1778 384 
z
" transform="scale(0.015625)"/>
      </defs>
      <use xlink:href="#ArialUnicodeMS-31"/>
      <use xlink:href="#ArialUnicodeMS-30" transform="translate(55.615234 0)"/>
      <use xlink:href="#ArialUnicodeMS-6b21" transform="translate(111.230469 0)"/>
     </g>
    </g>
   </g>
  </g>
 </g>
</svg>
